<svg version="1.1" id="airport" xmlns="http://www.w3.org/2000/svg" width="16" height="16" viewBox="0 0 20 20" xmlns:m="https://www.mapbox.com"><path d="M5.5,1H14.5c2.485,0,4.5,2.015,4.5,4.5V14.5c0,2.485-2.015,4.5-4.5,4.5H5.5c-2.485,0-4.5-2.015-4.5-4.5V5.5C1,3.015,3.015,1,5.5,1Z" fill="#5373D4" stroke="#C4DCF2" stroke-linejoin="round" stroke-width="1.2"/><path id="path7712-0" d="M15,6.8182L15,8.5l-6.5-1	l-0.3182,4.7727L11,14v1l-3.5-0.6818L4,15v-1l2.8182-1.7273L6.5,7.5L0,8.5V6.8182L6.5,4.5v-3c0,0,0-1.5,1-1.5s1,1.5,1,1.5v2.8182	L15,6.8182z" transform="matrix(.8 0 0 .8 4 4)" fill="#FFF"/><m:metadata><m:parameters><m:parameter m:name="background-stroke" m:type="color" m:value="#C4DCF2"/><m:parameter m:name="icon" m:type="color" m:value="#FFFFFF"/><m:parameter m:name="background" m:type="color" m:value="#5373D4"/></m:parameters></m:metadata></svg>