<svg version="1.1" id="alcohol-shop" xmlns="http://www.w3.org/2000/svg" width="20" height="20" viewBox="0 0 20 20" xmlns:m="https://www.mapbox.com"><path d="M19.4 10C19.4 15.1918 15.1917 19.4 9.99998 19.4C4.80821 19.4 0.599976 15.1918 0.599976 10C0.599976 4.80823 4.80821 0.6 9.99998 0.6C15.1917 0.6 19.4 4.80823 19.4 10Z" fill="#A7A7A7" stroke="#DCDCDC" stroke-linejoin="round" stroke-width="1.2"/><path d="M14,4h-4v3.44l0,0c0,0,0,0,0,0.06c0.003,0.9096,0.6193,1.7026,1.5,1.93V13H11c-0.2761,0-0.5,0.2239-0.5,0.5	S10.7239,14,11,14h2c0.2761,0,0.5-0.2239,0.5-0.5S13.2761,13,13,13h-0.5V9.43c0.8807-0.2274,1.497-1.0204,1.5-1.93c0,0,0,0,0-0.06	l0,0V4z M13,7.5c0,0.5523-0.4477,1-1,1s-1-0.4477-1-1V5h2V7.5z M5.5,2.5V2C5.7761,2,6,1.7761,6,1.5S5.7761,1,5.5,1V0.5	C5.5,0.2239,5.2761,0,5,0H4C3.7239,0,3.5,0.2239,3.5,0.5V1C3.2239,1,3,1.2239,3,1.5S3.2239,2,3.5,2v0.5C3.5,3.93,1,5.57,1,7v6	c0,0.5523,0.4477,1,1,1h5c0.5318-0.0465,0.9535-0.4682,1-1V7C8,5.65,5.5,3.85,5.5,2.5z M4.5,12C3.1193,12,2,10.8807,2,9.5	S3.1193,7,4.5,7S7,8.1193,7,9.5S5.8807,12,4.5,12z" transform="matrix(.8 0 0 .8 4 4)" style="stroke-linejoin:round;stroke-miterlimit:4;" stroke="#fff" stroke-width="3"/><path d="M14,4h-4v3.44l0,0c0,0,0,0,0,0.06c0.003,0.9096,0.6193,1.7026,1.5,1.93V13H11c-0.2761,0-0.5,0.2239-0.5,0.5	S10.7239,14,11,14h2c0.2761,0,0.5-0.2239,0.5-0.5S13.2761,13,13,13h-0.5V9.43c0.8807-0.2274,1.497-1.0204,1.5-1.93c0,0,0,0,0-0.06	l0,0V4z M13,7.5c0,0.5523-0.4477,1-1,1s-1-0.4477-1-1V5h2V7.5z M5.5,2.5V2C5.7761,2,6,1.7761,6,1.5S5.7761,1,5.5,1V0.5	C5.5,0.2239,5.2761,0,5,0H4C3.7239,0,3.5,0.2239,3.5,0.5V1C3.2239,1,3,1.2239,3,1.5S3.2239,2,3.5,2v0.5C3.5,3.93,1,5.57,1,7v6	c0,0.5523,0.4477,1,1,1h5c0.5318-0.0465,0.9535-0.4682,1-1V7C8,5.65,5.5,3.85,5.5,2.5z M4.5,12C3.1193,12,2,10.8807,2,9.5	S3.1193,7,4.5,7S7,8.1193,7,9.5S5.8807,12,4.5,12z" transform="matrix(.8 0 0 .8 4 4)"/><m:metadata><m:parameters><m:parameter m:name="background-stroke" m:type="color" m:value="#DCDCDC"/><m:parameter m:name="icon" m:type="color" m:value="#000000"/><m:parameter m:name="background" m:type="color" m:value="#A7A7A7"/><m:parameter m:name="icon-stroke" m:type="color" m:value="#ffffff"/></m:parameters></m:metadata></svg>