<svg height="20" viewBox="0 0 20 20" width="20" xmlns="http://www.w3.org/2000/svg" id="art-gallery" xmlns:m="https://www.mapbox.com"><path d="M19.4 10C19.4 15.1918 15.1917 19.4 9.99998 19.4C4.80821 19.4 0.599976 15.1918 0.599976 10C0.599976 4.80823 4.80821 0.6 9.99998 0.6C15.1917 0.6 19.4 4.80823 19.4 10Z" fill="#A7A7A7" stroke="#DCDCDC" stroke-linejoin="round" stroke-width="1.2"/><path d="m10.71 3-2.86-2.849996c-.1945-.1960996-.511-.1973996-.7071-.0029-.001.001-.0019.0019-.0029.0029l-2.85 2.849996h-2.79c-.2761 0-.5.2239-.5.5v9c0 .2761.2239.5.5.5h12c.2761 0 .5-.2239.5-.5v-9c0-.2761-.2239-.5-.5-.5zm-3.21-1.79 1.79 1.79h-3.58zm5.5 10.79h-11v-8h11zm-8-5c-.5523 0-1-.4477-1-1s.4477-1 1-1 1 .4477 1 1-.4477 1-1 1zm7 4h-7.5l1.5-3 1.25 2.5 2.25-4.5z" transform="matrix(.8 0 0 .8 4 4)" style="stroke-linejoin:round;stroke-miterlimit:4;" stroke="#fff" stroke-width="3"/><path d="m10.71 3-2.86-2.849996c-.1945-.1960996-.511-.1973996-.7071-.0029-.001.001-.0019.0019-.0029.0029l-2.85 2.849996h-2.79c-.2761 0-.5.2239-.5.5v9c0 .2761.2239.5.5.5h12c.2761 0 .5-.2239.5-.5v-9c0-.2761-.2239-.5-.5-.5zm-3.21-1.79 1.79 1.79h-3.58zm5.5 10.79h-11v-8h11zm-8-5c-.5523 0-1-.4477-1-1s.4477-1 1-1 1 .4477 1 1-.4477 1-1 1zm7 4h-7.5l1.5-3 1.25 2.5 2.25-4.5z" transform="matrix(.8 0 0 .8 4 4)"/><m:metadata><m:parameters><m:parameter m:name="background-stroke" m:type="color" m:value="#DCDCDC"/><m:parameter m:name="icon" m:type="color" m:value="#000000"/><m:parameter m:name="background" m:type="color" m:value="#A7A7A7"/><m:parameter m:name="icon-stroke" m:type="color" m:value="#ffffff"/></m:parameters></m:metadata></svg>