<svg version="1.1" id="attraction" xmlns="http://www.w3.org/2000/svg" width="20" height="20" viewBox="0 0 20 20" xmlns:m="https://www.mapbox.com"><path d="M19.4 10C19.4 15.1918 15.1917 19.4 9.99998 19.4C4.80821 19.4 0.599976 15.1918 0.599976 10C0.599976 4.80823 4.80821 0.6 9.99998 0.6C15.1917 0.6 19.4 4.80823 19.4 10Z" fill="#A7A7A7" stroke="#DCDCDC" stroke-linejoin="round" stroke-width="1.2"/><path id="rect7143" d="M6,2C5.446,2,5.2478,2.5045,5,3L4.5,4h-2C1.669,4,1,4.669,1,5.5v5C1,11.331,1.669,12,2.5,12h10	c0.831,0,1.5-0.669,1.5-1.5v-5C14,4.669,13.331,4,12.5,4h-2L10,3C9.75,2.5,9.554,2,9,2H6z M2.5,5C2.7761,5,3,5.2239,3,5.5	S2.7761,6,2.5,6S2,5.7761,2,5.5S2.2239,5,2.5,5z M7.5,5c1.6569,0,3,1.3431,3,3s-1.3431,3-3,3s-3-1.3431-3-3S5.8431,5,7.5,5z M7.5,6.5C6.6716,6.5,6,7.1716,6,8l0,0c0,0.8284,0.6716,1.5,1.5,1.5l0,0C8.3284,9.5,9,8.8284,9,8l0,0C9,7.1716,8.3284,6.5,7.5,6.5	L7.5,6.5z" transform="matrix(.8 0 0 .8 4 4)" fill="#000" style="stroke-linejoin:round;stroke-miterlimit:4;" stroke="#fff" stroke-width="3"/><path id="rect7143" d="M6,2C5.446,2,5.2478,2.5045,5,3L4.5,4h-2C1.669,4,1,4.669,1,5.5v5C1,11.331,1.669,12,2.5,12h10	c0.831,0,1.5-0.669,1.5-1.5v-5C14,4.669,13.331,4,12.5,4h-2L10,3C9.75,2.5,9.554,2,9,2H6z M2.5,5C2.7761,5,3,5.2239,3,5.5	S2.7761,6,2.5,6S2,5.7761,2,5.5S2.2239,5,2.5,5z M7.5,5c1.6569,0,3,1.3431,3,3s-1.3431,3-3,3s-3-1.3431-3-3S5.8431,5,7.5,5z M7.5,6.5C6.6716,6.5,6,7.1716,6,8l0,0c0,0.8284,0.6716,1.5,1.5,1.5l0,0C8.3284,9.5,9,8.8284,9,8l0,0C9,7.1716,8.3284,6.5,7.5,6.5	L7.5,6.5z" transform="matrix(.8 0 0 .8 4 4)" fill="#000"/><m:metadata><m:parameters><m:parameter m:name="background-stroke" m:type="color" m:value="#DCDCDC"/><m:parameter m:name="icon" m:type="color" m:value="#000000"/><m:parameter m:name="background" m:type="color" m:value="#A7A7A7"/><m:parameter m:name="icon-stroke" m:type="color" m:value="#ffffff"/></m:parameters></m:metadata></svg>