<svg xmlns="http://www.w3.org/2000/svg" id="au-state-2" width="18" height="20" viewBox="0 0 18 20" xmlns:m="https://www.mapbox.com"><g><path d="M0,0 H18 V20 H0 Z" fill="none"/><path d="M3,3C2.042,4.083.98,7.083,1,10c.042,6.042,6,8.542,8,9,2-.5,8-3,8-9,0-2.917-1-6-2-7Z" fill="none" stroke="hsl(0, 0%, 100%)" stroke-linejoin="round" stroke-miterlimit="4px" stroke-width="2"/><path d="M3,3C2.042,4.083.98,7.083,1,10c.042,6.042,6,8.542,8,9,2-.5,8-3,8-9,0-2.917-1-6-2-7Z" fill="hsl(230, 57%, 54%)"/><path d="M0,7 H18 V13 H0 Z" fill="none" id="mapbox-text-placeholder"/></g><m:metadata><m:parameters><m:parameter m:name="color-1" m:type="color" m:value="#465DCC"/><m:parameter m:name="color-2" m:type="color" m:value="#FFFFFF"/></m:parameters></m:metadata></svg>