<svg xmlns="http://www.w3.org/2000/svg" width="20" height="20" viewBox="0 0 20 20" id="bakery" xmlns:m="https://www.mapbox.com"><path d="M19.4 10C19.4 15.1918 15.1917 19.4 9.99998 19.4C4.80821 19.4 0.599976 15.1918 0.599976 10C0.599976 4.80823 4.80821 0.6 9.99998 0.6C15.1917 0.6 19.4 4.80823 19.4 10Z" fill="#A7A7A7" stroke="#DCDCDC" stroke-linejoin="round" stroke-width="1.2"/><path d="M5.294,4.382,6,9.5a.979.979,0,0,0,1,1H8a.979.979,0,0,0,1-1l.706-5.118C9.706,3,7.5,3,7.5,3S5.291,3,5.294,4.382ZM3.5,5C2,5,2,6,2,6l1,4H4.5a.793.793,0,0,0,.794-.765L4.5,5Zm-2,2.5a1.533,1.533,0,0,0-1.059.412A1.366,1.366,0,0,0,0,8.794V11H.882A1.02,1.02,0,0,0,2,10ZM11.5,5C13,5,13,6,13,6l-1,4H10.5a.793.793,0,0,1-.794-.765L10.5,5Zm2,2.5a1.533,1.533,0,0,1,1.059.412A1.366,1.366,0,0,1,15,8.794V11h-.882A1.02,1.02,0,0,1,13,10Z" transform="matrix(.8 0 0 .8 4 4)" style="stroke-linejoin:round;stroke-miterlimit:4;" stroke="#fff" stroke-width="3"/><path d="M5.294,4.382,6,9.5a.979.979,0,0,0,1,1H8a.979.979,0,0,0,1-1l.706-5.118C9.706,3,7.5,3,7.5,3S5.291,3,5.294,4.382ZM3.5,5C2,5,2,6,2,6l1,4H4.5a.793.793,0,0,0,.794-.765L4.5,5Zm-2,2.5a1.533,1.533,0,0,0-1.059.412A1.366,1.366,0,0,0,0,8.794V11H.882A1.02,1.02,0,0,0,2,10ZM11.5,5C13,5,13,6,13,6l-1,4H10.5a.793.793,0,0,1-.794-.765L10.5,5Zm2,2.5a1.533,1.533,0,0,1,1.059.412A1.366,1.366,0,0,1,15,8.794V11h-.882A1.02,1.02,0,0,1,13,10Z" transform="matrix(.8 0 0 .8 4 4)"/><m:metadata><m:parameters><m:parameter m:name="background-stroke" m:type="color" m:value="#DCDCDC"/><m:parameter m:name="icon" m:type="color" m:value="#000000"/><m:parameter m:name="background" m:type="color" m:value="#A7A7A7"/><m:parameter m:name="icon-stroke" m:type="color" m:value="#ffffff"/></m:parameters></m:metadata></svg>