<svg version="1.1" id="bar" xmlns="http://www.w3.org/2000/svg" width="20" height="20" viewBox="0 0 20 20" xmlns:m="https://www.mapbox.com"><path d="M19.4 10C19.4 15.1918 15.1917 19.4 9.99998 19.4C4.80821 19.4 0.599976 15.1918 0.599976 10C0.599976 4.80823 4.80821 0.6 9.99998 0.6C15.1917 0.6 19.4 4.80823 19.4 10Z" fill="#A7A7A7" stroke="#DCDCDC" stroke-linejoin="round" stroke-width="1.2"/><path id="path4" d="M7.5,1c-2,0-7,0.25-6.5,0.75L7,8v4	c0,1-3,0.5-3,2h7c0-1.5-3-1-3-2V8l6-6.25C14.5,1.25,9.5,1,7.5,1z M7.5,2c2.5,0,4.75,0.25,4.75,0.25L11.5,3h-8L2.75,2.25	C2.75,2.25,5,2,7.5,2z" transform="matrix(.8 0 0 .8 4 4)" fill="#000" style="stroke-linejoin:round;stroke-miterlimit:4;" stroke="#fff" stroke-width="3"/><path id="path4" d="M7.5,1c-2,0-7,0.25-6.5,0.75L7,8v4	c0,1-3,0.5-3,2h7c0-1.5-3-1-3-2V8l6-6.25C14.5,1.25,9.5,1,7.5,1z M7.5,2c2.5,0,4.75,0.25,4.75,0.25L11.5,3h-8L2.75,2.25	C2.75,2.25,5,2,7.5,2z" transform="matrix(.8 0 0 .8 4 4)" fill="#000"/><m:metadata><m:parameters><m:parameter m:name="background-stroke" m:type="color" m:value="#DCDCDC"/><m:parameter m:name="icon" m:type="color" m:value="#000000"/><m:parameter m:name="background" m:type="color" m:value="#A7A7A7"/><m:parameter m:name="icon-stroke" m:type="color" m:value="#ffffff"/></m:parameters></m:metadata></svg>