<svg height="20" viewBox="0 0 20 20" width="20" xmlns="http://www.w3.org/2000/svg" id="baseball" xmlns:m="https://www.mapbox.com"><path d="M19.4 10C19.4 15.1918 15.1917 19.4 9.99998 19.4C4.80821 19.4 0.599976 15.1918 0.599976 10C0.599976 4.80823 4.80821 0.6 9.99998 0.6C15.1917 0.6 19.4 4.80823 19.4 10Z" fill="#A7A7A7" stroke="#DCDCDC" stroke-linejoin="round" stroke-width="1.2"/><path d="m9.00003 3.5c0 .8284-.6716 1.5-1.5 1.5s-1.5-.6716-1.5-1.5.6716-1.5 1.5-1.5 1.5.6716 1.5 1.5zm-3-3.22c0-.1546-.1254-.28-.28-.28-.0979.0262-.1852.0821-.25.16l-2.47 4.43c-.0059.0431-.0059.0869 0 .13 0 .1546.1254.28.28.28.1015-.0243.1926-.0803.26-.16l2.46-4.43c.006-.0431.006-.0869 0-.13zm5.89997 13.92-2.89997-7.81c-.0474-.2273-.2478-.3901-.48-.39h-5c-.2761 0-.5.2239-.5.5s.2239.5.5.5h2.48l1.45 2.51-4.27 4.61c-.1141.0932-.1802.2327-.18.38 0 .2761.2239.5.5.5.1224-.0006.2401-.047.33-.13l4.45-4.15 2.75997 4c.0895.1592.2574.2584.44.26.2796.0002.5092-.2207.52-.5-.0042-.1013-.039-.199-.1-.28z" transform="matrix(.8 0 0 .8 4 4)" style="stroke-linejoin:round;stroke-miterlimit:4;" stroke="#fff" stroke-width="3"/><path d="m9.00003 3.5c0 .8284-.6716 1.5-1.5 1.5s-1.5-.6716-1.5-1.5.6716-1.5 1.5-1.5 1.5.6716 1.5 1.5zm-3-3.22c0-.1546-.1254-.28-.28-.28-.0979.0262-.1852.0821-.25.16l-2.47 4.43c-.0059.0431-.0059.0869 0 .13 0 .1546.1254.28.28.28.1015-.0243.1926-.0803.26-.16l2.46-4.43c.006-.0431.006-.0869 0-.13zm5.89997 13.92-2.89997-7.81c-.0474-.2273-.2478-.3901-.48-.39h-5c-.2761 0-.5.2239-.5.5s.2239.5.5.5h2.48l1.45 2.51-4.27 4.61c-.1141.0932-.1802.2327-.18.38 0 .2761.2239.5.5.5.1224-.0006.2401-.047.33-.13l4.45-4.15 2.75997 4c.0895.1592.2574.2584.44.26.2796.0002.5092-.2207.52-.5-.0042-.1013-.039-.199-.1-.28z" transform="matrix(.8 0 0 .8 4 4)"/><m:metadata><m:parameters><m:parameter m:name="background-stroke" m:type="color" m:value="#DCDCDC"/><m:parameter m:name="icon" m:type="color" m:value="#000000"/><m:parameter m:name="background" m:type="color" m:value="#A7A7A7"/><m:parameter m:name="icon-stroke" m:type="color" m:value="#ffffff"/></m:parameters></m:metadata></svg>