<svg xmlns="http://www.w3.org/2000/svg" id="br-federal-3" width="26" height="22" viewBox="0 0 26 22" xmlns:m="https://www.mapbox.com"><g><path d="M0,0 H26 V22 H0 Z" fill="none"/><path d="M1,3V16c0,2.1,1.315,3.17,3,3,4.958-.5,7,.042,9,2,2.042-1.958,5-2.458,9-2,1.683.193,3-1,3-3V3Z" fill="none" stroke="hsl(230, 18%, 13%)" stroke-linejoin="round" stroke-miterlimit="4px" stroke-width="2"/><path d="M1,3V16c0,2.1,1.315,3.17,3,3,4.958-.5,7,.042,9,2,2.042-1.958,5-2.458,9-2,1.683.193,3-1,3-3V3Z" fill="hsl(0, 0%, 100%)"/><path d="M0,8 H26 V14 H0 Z" fill="none" id="mapbox-text-placeholder"/></g><m:metadata><m:parameters><m:parameter m:name="color-1" m:type="color" m:value="#1B1D27"/><m:parameter m:name="color-2" m:type="color" m:value="#FFFFFF"/></m:parameters></m:metadata></svg>