<svg width="16" height="16" viewBox="0 0 20 20" xmlns="http://www.w3.org/2000/svg" id="bus" xmlns:m="https://www.mapbox.com"><path d="M5.5,1H14.5c2.485,0,4.5,2.015,4.5,4.5V14.5c0,2.485-2.015,4.5-4.5,4.5H5.5c-2.485,0-4.5-2.015-4.5-4.5V5.5C1,3.015,3.015,1,5.5,1Z" fill="#5373D4" stroke="#C4DCF2" stroke-linejoin="round" stroke-width="1.2"/><path d="M2 3C2 1.9 2.9 1 4 1H11C12.1 1 13 1.9 13 3V11C13 12 12 12 12 12V13C12 13.55 11.55 14 11 14C10.45 14 10 13.55 10 13V12H5V13C5 13.55 4.55 14 4 14C3.45 14 3 13.55 3 13V12C2 12 2 11 2 11V3ZM3.5 4C3.22 4 3 4.22 3 4.5V7.5C3 7.78 3.22 8 3.5 8H11.5C11.78 8 12 7.78 12 7.5V4.5C12 4.22 11.78 4 11.5 4H3.5ZM4 9C3.45 9 3 9.45 3 10C3 10.55 3.45 11 4 11C4.55 11 5 10.55 5 10C5 9.45 4.55 9 4 9ZM11 9C10.45 9 10 9.45 10 10C10 10.55 10.45 11 11 11C11.55 11 12 10.55 12 10C12 9.45 11.55 9 11 9ZM4 2.5C4 2.78 4.22 3 4.5 3H10.5C10.78 3 11 2.78 11 2.5C11 2.22 10.78 2 10.5 2H4.5C4.22 2 4 2.22 4 2.5Z" transform="matrix(.8 0 0 .8 4 4)" fill="#FFF"/><m:metadata><m:parameters><m:parameter m:name="background-stroke" m:type="color" m:value="#C4DCF2"/><m:parameter m:name="icon" m:type="color" m:value="#FFFFFF"/><m:parameter m:name="background" m:type="color" m:value="#5373D4"/></m:parameters></m:metadata></svg>