<svg id="ca-alberta-3" xmlns="http://www.w3.org/2000/svg" width="29" height="36" viewBox="0 0 29 36" xmlns:m="https://www.mapbox.com"><rect id="container" width="29" height="36" fill="none"/><path id="stroke" d="M1 3C1 1.89543 1.89543 1 3 1H26C27.1046 1 28 1.89543 28 3V27C28 28.1046 27.1046 29 26 29H3C1.89543 29 1 28.1046 1 27V3Z" fill="none" stroke="#fff" stroke-width="2"/><path id="body" d="M1 3C1 1.89543 1.89543 1 3 1H26C27.1046 1 28 1.89543 28 3V27C28 28.1046 27.1046 29 26 29H3C1.89543 29 1 28.1046 1 27V3Z" fill="#1B1D27"/><path id="banner" d="M23 12H6C5.44772 12 5 12.4477 5 13V22.0585C5 22.4889 5.27543 22.8711 5.68377 23.0072L14.1838 25.8405C14.389 25.9089 14.611 25.9089 14.8162 25.8405L23.3162 23.0072C23.7246 22.8711 24 22.4889 24 22.0585V13C24 12.4477 23.5523 12 23 12Z M9.12339 7.52277C8.82023 7.67991 8.53273 7.7993 8.30623 7.88108C8.71956 8.08968 9.03623 8.21731 9.25823 8.29679C9.20873 8.11375 9.16423 7.86509 9.12339 7.52277Z M12.0829 7.99761C12.2669 7.98376 12.4415 7.96876 12.606 7.95227C12.8567 7.54827 12.96 6.94129 12.7642 6.87451C12.4247 6.75859 12.152 7.47918 12.0829 7.99761Z M12.0279 8.31075C12.0667 8.31768 12.1159 8.3185 12.1754 8.30943C12.2839 8.29294 12.3852 8.22517 12.475 8.12739C12.3037 8.14371 12.1597 8.1541 12.0677 8.15806C12.0664 8.18197 12.0657 8.20505 12.0657 8.22698C12.0657 8.26161 12.051 8.29063 12.0279 8.31075Z M14.621 6.94591C14.5925 6.89215 14.485 6.87814 14.2684 7.077C14.0979 7.23332 13.9812 7.47242 13.9392 7.6919C14.4274 7.46879 14.6824 7.0615 14.621 6.94591Z M2 3C2 2.44772 2.44772 2 3 2H26C26.5523 2 27 2.44772 27 3V27C27 27.5523 26.5523 28 26 28H3C2.44772 28 2 27.5523 2 27V3ZM6 11C4.89543 11 4 11.8954 4 13V22.0585C4 22.9193 4.55086 23.6836 5.36755 23.9558L13.8675 26.7892C14.2781 26.926 14.7219 26.926 15.1325 26.7892L23.6325 23.9558C24.4491 23.6836 25 22.9193 25 22.0585V13C25 11.8954 24.1046 11 23 11H6ZM11.1049 8.10782C10.9794 7.40783 11.0537 6.71709 11.2616 5.68797C11.2659 5.66657 11.2714 5.64344 11.2771 5.61914C11.3237 5.42236 11.3884 5.14871 11.0081 5.09088C10.9189 5.07734 10.9188 5.10123 10.9183 5.16971C10.9181 5.20547 10.9178 5.25339 10.9047 5.31448C10.7404 6.08108 10.1067 6.63332 9.47056 7.00367C9.40406 6.12626 9.43139 5.15157 9.59823 4.55382C9.66183 4.32616 9.73091 4.22025 9.7684 4.16278C9.78794 4.13282 9.79889 4.11602 9.79602 4.10199C9.79235 4.08409 9.76614 4.07071 9.70646 4.04024L9.69889 4.03638C9.48023 3.92474 9.24523 4.07232 9.05506 4.44779C9.03395 4.4895 9.00436 4.55176 8.96652 4.63139C8.66386 5.26824 7.83342 7.01567 6.5899 8.23924C5.8739 8.94367 5.22624 8.5809 5.09657 8.47256C4.99107 8.38435 4.95207 8.52038 5.08274 8.65989C5.66207 9.27759 6.5079 8.92339 6.8159 8.61866C7.66706 7.77654 8.65689 5.96434 9.05723 5.19559C9.02023 5.62861 9.00789 6.35481 9.08939 7.20567C8.65606 7.41459 8.26756 7.53744 8.08456 7.58477C7.88606 7.63621 7.7634 7.71635 7.75973 7.80738C7.75573 7.90681 7.88906 7.99107 8.08156 8.08143L8.11742 8.09824C8.48964 8.27268 9.43669 8.7165 9.67623 8.85413C9.88806 8.97583 9.99156 8.88068 10.0542 8.74959C10.1362 8.57843 9.91139 8.47965 9.69356 8.41518C9.60989 8.12711 9.54273 7.73911 9.49823 7.31203C10.0087 7.0012 10.5114 6.58715 10.8012 6.06987C10.7282 6.50223 10.5411 7.97277 11.0102 8.59442C11.1136 8.73129 11.3419 8.88101 11.5647 8.85908C11.6694 8.84869 11.7226 8.78059 11.7121 8.75915C11.7065 8.74784 11.6871 8.75086 11.661 8.75492C11.6377 8.75855 11.6089 8.76303 11.5799 8.75882C11.4047 8.7331 11.1746 8.49664 11.1049 8.10782ZM20.0343 7.54564C20.031 7.51969 20.0291 7.49196 20.0272 7.46372C20.0164 7.30763 20.0045 7.13593 19.7537 7.16357C19.6088 7.17949 19.4734 7.37976 19.3154 7.61361C19.2475 7.71407 19.1754 7.82076 19.0965 7.92176C18.871 8.21033 18.7702 8.18279 18.8227 7.93512C18.8882 7.62462 19.1497 6.89677 19.4492 6.84351C19.514 6.83202 19.5592 6.87865 19.5956 6.91612C19.637 6.95875 19.6669 6.98952 19.7008 6.9093C19.7647 6.75842 19.7062 6.43259 19.3962 6.43259C19.1792 6.43259 18.9187 6.66015 18.7052 6.91953C18.68 6.95005 18.6411 7.00147 18.5916 7.06683C18.2747 7.48524 17.5249 8.47544 17.1837 8.21973C16.9992 8.08138 17.0143 7.51843 17.1303 6.85489C17.5983 6.67631 17.988 6.73484 18.2082 6.83939C18.3168 6.891 18.332 6.88341 18.2853 6.76502C18.217 6.59105 17.8403 6.31947 17.2517 6.4443C17.2378 6.44727 17.2238 6.45056 17.2098 6.45403C17.2572 6.23867 17.3123 6.01986 17.3725 5.80714C17.3785 5.78576 17.3859 5.76241 17.3936 5.73815C17.456 5.54126 17.5427 5.26771 17.1672 5.20989C17.0753 5.19577 17.0731 5.22149 17.0666 5.29688C17.0636 5.33158 17.0597 5.37679 17.0457 5.43349C16.964 5.7646 16.8613 6.19382 16.7868 6.62535C16.44 6.8229 16.117 7.15302 15.8805 7.58752C15.8925 7.52873 15.9065 7.46813 15.9204 7.40805C15.9537 7.26339 15.9863 7.12178 15.9895 7.01599C15.994 6.85868 15.885 6.82372 15.8425 6.81169C15.7502 6.78547 15.6382 6.83098 15.5277 6.98516C15.4867 7.0423 15.4439 7.10478 15.3991 7.17031C15.1611 7.51796 14.8631 7.95329 14.4445 8.1546C14.088 8.32609 13.9315 8.15344 13.9225 7.88746C13.993 7.86636 14.0562 7.8441 14.1094 7.82085C14.7557 7.53739 14.9775 7.10998 14.8135 6.84978C14.6577 6.6026 14.212 6.67763 13.86 7.04435C13.6869 7.22508 13.5532 7.53558 13.5377 7.81854C13.3885 7.85036 13.2169 7.87873 13.0254 7.90412C13.3289 7.41685 13.3025 6.75793 12.8587 6.64712C12.3434 6.51817 12.083 7.01335 11.9725 7.42493C12.0065 7.01319 12.0732 6.51157 12.167 6.04624C12.1714 6.02487 12.1768 6.00179 12.1826 5.97755C12.2293 5.78063 12.2942 5.50685 11.9137 5.44915C11.7929 5.43065 11.7963 5.4782 11.8064 5.61722C11.8076 5.63428 11.809 5.65272 11.8102 5.67259C11.8149 5.74808 11.792 5.94161 11.7624 6.19211C11.6962 6.75133 11.5965 7.59456 11.695 8.0428C11.511 8.1015 11.4365 8.2382 11.673 8.38265C11.8359 8.48191 12.1945 8.51506 12.5569 8.33829C12.6869 8.27497 12.7992 8.18576 12.893 8.08105C13.1089 8.05351 13.3357 8.01922 13.5425 7.97849C13.578 8.26277 13.7655 8.48076 14.2012 8.44069C14.8207 8.3838 15.3709 7.63089 15.5785 7.26795C15.5708 7.34797 15.5539 7.44746 15.5356 7.55464C15.4651 7.96853 15.3751 8.49716 15.7215 8.46246C15.8427 8.45029 15.8405 8.43333 15.8328 8.37233C15.8297 8.34731 15.8256 8.31488 15.8287 8.27233C15.8662 7.76066 16.297 7.32682 16.7228 7.06101C16.649 7.68761 16.6747 8.24743 16.9618 8.42502C17.4903 8.75201 18.2388 7.89109 18.6508 7.36458C18.441 7.83206 18.3223 8.43129 18.6375 8.52248C18.9305 8.60738 19.1744 8.24321 19.4329 7.8573C19.5002 7.75677 19.5686 7.65476 19.639 7.55883C19.6788 7.89192 19.9033 8.46592 20.8087 8.46592C21.2155 8.46592 21.561 8.35231 21.817 8.17257H21.414C21.2637 8.26145 21.0927 8.31619 20.9097 8.31619C20.2397 8.31619 20.0667 7.80089 20.0343 7.54564ZM21.817 8.17257H23V6.55742H21.3673V8.17257H21.414C21.7688 7.96282 22.007 7.56163 22.0065 7.23118C22.0063 7.03182 21.9314 6.97897 21.8924 6.95142C21.8756 6.9396 21.8655 6.93244 21.8707 6.92035C21.9203 6.80591 22.2812 6.87154 22.302 7.27438C22.3197 7.61588 22.1392 7.94666 21.817 8.17257Z" fill="#fff"/><m:metadata><m:parameters><m:parameter m:name="color-1" m:type="color" m:value="#1B1D27"/><m:parameter m:name="color-2" m:type="color" m:value="#FFFFFF"/></m:parameters></m:metadata></svg>