<svg id="ca-alberta-2" xmlns="http://www.w3.org/2000/svg" width="25" height="36" viewBox="0 0 25 36" xmlns:m="https://www.mapbox.com"><rect id="container" width="25" height="36" fill="none"/><path id="stroke" d="M1 3C1 1.89543 1.89543 1 3 1H22C23.1046 1 24 1.89543 24 3V27C24 28.1046 23.1046 29 22 29H3C1.89543 29 1 28.1046 1 27V3Z" fill="none" stroke="#fff" stroke-width="2"/><path id="body" d="M1 3C1 1.89543 1.89543 1 3 1H22C23.1046 1 24 1.89543 24 3V27C24 28.1046 23.1046 29 22 29H3C1.89543 29 1 28.1046 1 27V3Z" fill="#1B1D27"/><path id="banner" d="M19 12H6C5.44772 12 5 12.4477 5 13V22.1606C5 22.5658 5.24455 22.931 5.61925 23.0853L12.1193 25.7618C12.3631 25.8622 12.6369 25.8622 12.8807 25.7618L19.3807 23.0853C19.7555 22.931 20 22.5658 20 22.1606V13C20 12.4477 19.5523 12 19 12Z M7.12339 7.52277C6.82023 7.67991 6.53273 7.7993 6.30623 7.88108C6.71956 8.08968 7.03623 8.21731 7.25823 8.29679C7.20873 8.11375 7.16423 7.86509 7.12339 7.52277Z M10.0829 7.99761C10.2669 7.98376 10.4415 7.96876 10.606 7.95227C10.8567 7.54827 10.96 6.94129 10.7642 6.87451C10.4247 6.75859 10.152 7.47918 10.0829 7.99761Z M10.0279 8.31075C10.0667 8.31768 10.1159 8.3185 10.1754 8.30943C10.2839 8.29294 10.3852 8.22517 10.475 8.12739C10.3037 8.14371 10.1597 8.1541 10.0677 8.15806C10.0664 8.18197 10.0657 8.20505 10.0657 8.22698C10.0657 8.26161 10.051 8.29063 10.0279 8.31075Z M12.621 6.94591C12.5925 6.89215 12.485 6.87814 12.2684 7.077C12.0979 7.23332 11.9812 7.47242 11.9392 7.6919C12.4274 7.46879 12.6824 7.0615 12.621 6.94591Z M2 3C2 2.44772 2.44772 2 3 2H22C22.5523 2 23 2.44772 23 3V27C23 27.5523 22.5523 28 22 28H3C2.44772 28 2 27.5523 2 27V3ZM6 11C4.89543 11 4 11.8954 4 13V22.1606C4 22.9711 4.4891 23.7014 5.2385 24.01L11.7385 26.6864C12.2263 26.8873 12.7737 26.8873 13.2615 26.6864L19.7615 24.01C20.5109 23.7014 21 22.9711 21 22.1606V13C21 11.8954 20.1046 11 19 11H6ZM9.10489 8.10782C8.97939 7.40783 9.05372 6.71709 9.26156 5.68797C9.26588 5.66658 9.27135 5.64343 9.2771 5.61914C9.32367 5.42236 9.38842 5.14871 9.00806 5.09088C8.91893 5.07734 8.91878 5.10123 8.91835 5.16971C8.91812 5.20547 8.91782 5.25339 8.90472 5.31448C8.74039 6.08108 8.10672 6.63332 7.47056 7.00367C7.40406 6.12626 7.43139 5.15157 7.59823 4.55382C7.66183 4.32616 7.73091 4.22025 7.7684 4.16278C7.78794 4.13282 7.79889 4.11602 7.79602 4.10199C7.79235 4.08409 7.76614 4.07071 7.70646 4.04024L7.69889 4.03638C7.48023 3.92474 7.24523 4.07232 7.05506 4.44779C7.03395 4.4895 7.00436 4.55176 6.96652 4.63139C6.66386 5.26824 5.83342 7.01567 4.5899 8.23924C3.8739 8.94367 3.22624 8.5809 3.09657 8.47256C2.99107 8.38435 2.95207 8.52038 3.08274 8.65989C3.66207 9.27759 4.5079 8.92339 4.8159 8.61866C5.66706 7.77654 6.65689 5.96434 7.05723 5.19559C7.02023 5.62861 7.00789 6.35481 7.08939 7.20567C6.65606 7.41459 6.26756 7.53744 6.08456 7.58477C5.88606 7.63621 5.7634 7.71635 5.75973 7.80738C5.75573 7.90681 5.88906 7.99107 6.08156 8.08143L6.11742 8.09824C6.48964 8.27268 7.43669 8.7165 7.67623 8.85413C7.88806 8.97583 7.99156 8.88068 8.05422 8.74959C8.13622 8.57843 7.91139 8.47965 7.69356 8.41518C7.60989 8.12711 7.54273 7.73911 7.49823 7.31203C8.00872 7.0012 8.51139 6.58715 8.80122 6.06987C8.72822 6.50223 8.54106 7.97277 9.01022 8.59442C9.11356 8.73129 9.34189 8.88101 9.56472 8.85908C9.66939 8.84869 9.72255 8.78059 9.71205 8.75915C9.70651 8.74784 9.68714 8.75086 9.66103 8.75492C9.63768 8.75855 9.60893 8.76303 9.57989 8.75882C9.40472 8.7331 9.17455 8.49664 9.10489 8.10782ZM18.0343 7.54564C18.031 7.51969 18.0291 7.49196 18.0272 7.46372C18.0164 7.30763 18.0045 7.13593 17.7537 7.16357C17.6088 7.17949 17.4736 7.37956 17.3156 7.6134C17.2476 7.71392 17.1755 7.82069 17.0965 7.92176C16.871 8.21033 16.7702 8.18279 16.8227 7.93512C16.8882 7.62462 17.1497 6.89677 17.4492 6.84351C17.514 6.83202 17.5592 6.87865 17.5956 6.91612C17.637 6.95875 17.6669 6.98952 17.7008 6.9093C17.7647 6.75842 17.7062 6.43259 17.3962 6.43259C17.1792 6.43259 16.9187 6.66015 16.7052 6.91953C16.68 6.95003 16.6411 7.00151 16.5916 7.06682C16.2747 7.48522 15.5249 8.47544 15.1837 8.21973C14.9992 8.08138 15.0143 7.51843 15.1303 6.85489C15.5983 6.67631 15.988 6.73484 16.2082 6.83939C16.3168 6.891 16.332 6.88341 16.2853 6.76502C16.217 6.59105 15.8403 6.31947 15.2517 6.4443C15.2378 6.44727 15.2238 6.45056 15.2098 6.45403C15.2572 6.23867 15.3123 6.01986 15.3725 5.80714C15.3785 5.78576 15.3859 5.76241 15.3936 5.73815C15.456 5.54126 15.5427 5.26771 15.1672 5.20989C15.0753 5.19577 15.0731 5.22149 15.0666 5.29688C15.0636 5.33158 15.0597 5.37679 15.0457 5.43349C14.964 5.7646 14.8613 6.19382 14.7868 6.62535C14.44 6.8229 14.117 7.15302 13.8805 7.58752C13.8925 7.52873 13.9065 7.46813 13.9204 7.40805C13.9537 7.26339 13.9863 7.12178 13.9895 7.01599C13.994 6.85868 13.885 6.82372 13.8425 6.81169C13.7502 6.78547 13.6382 6.83098 13.5277 6.98516C13.4867 7.0423 13.4439 7.10478 13.3991 7.17031C13.1611 7.51796 12.8631 7.95329 12.4445 8.1546C12.088 8.32609 11.9315 8.15344 11.9225 7.88746C11.993 7.86636 12.0562 7.8441 12.1094 7.82085C12.7557 7.53739 12.9775 7.10998 12.8135 6.84978C12.6577 6.6026 12.212 6.67763 11.86 7.04435C11.6869 7.22508 11.5532 7.53558 11.5377 7.81854C11.3885 7.85036 11.2169 7.87873 11.0254 7.90412C11.3289 7.41685 11.3025 6.75793 10.8587 6.64712C10.3434 6.51817 10.083 7.01335 9.97253 7.42493C10.0065 7.01319 10.0732 6.51157 10.167 6.04624C10.1714 6.02487 10.1768 6.00179 10.1826 5.97755C10.2293 5.78063 10.2942 5.50685 9.91369 5.44915C9.79286 5.43065 9.79631 5.4782 9.8064 5.61722C9.80764 5.63428 9.80897 5.65272 9.81019 5.67259C9.81489 5.74809 9.792 5.9416 9.76237 6.19211C9.69623 6.75133 9.5965 7.59456 9.69503 8.0428C9.51103 8.1015 9.43653 8.2382 9.67303 8.38265C9.83586 8.48191 10.1945 8.51506 10.5569 8.33829C10.6869 8.27497 10.7992 8.18576 10.893 8.08105C11.1089 8.05351 11.3357 8.01922 11.5425 7.97849C11.578 8.26277 11.7655 8.48076 12.2012 8.44069C12.8207 8.3838 13.3709 7.63089 13.5785 7.26795C13.5708 7.34797 13.5539 7.44746 13.5356 7.55464C13.4651 7.96853 13.3751 8.49716 13.7215 8.46246C13.8427 8.45029 13.8405 8.43333 13.8328 8.37233C13.8297 8.34731 13.8256 8.31488 13.8287 8.27233C13.8662 7.76066 14.297 7.32682 14.7228 7.06101C14.649 7.68761 14.6747 8.24743 14.9618 8.42502C15.4903 8.75201 16.2388 7.89109 16.6508 7.36458C16.441 7.83206 16.3223 8.43129 16.6375 8.52248C16.9305 8.60738 17.1744 8.24321 17.4329 7.8573C17.5002 7.75677 17.5686 7.65476 17.639 7.55883C17.6788 7.89192 17.9033 8.46592 18.8087 8.46592C19.2155 8.46592 19.561 8.35231 19.817 8.17257H19.414C19.2637 8.26145 19.0927 8.31619 18.9097 8.31619C18.2397 8.31619 18.0667 7.80089 18.0343 7.54564ZM19.817 8.17257H21V6.55742H19.3673V8.17257H19.414C19.7688 7.96282 20.007 7.56163 20.0065 7.23118C20.0063 7.03182 19.9314 6.97897 19.8924 6.95142C19.8756 6.9396 19.8655 6.93244 19.8707 6.92035C19.9203 6.80591 20.2812 6.87154 20.302 7.27438C20.3197 7.61588 20.1392 7.94666 19.817 8.17257Z" fill="#fff"/><m:metadata><m:parameters><m:parameter m:name="color-1" m:type="color" m:value="#1B1D27"/><m:parameter m:name="color-2" m:type="color" m:value="#FFFFFF"/></m:parameters></m:metadata></svg>