<svg id="ca-britishcolumbia-2" xmlns="http://www.w3.org/2000/svg" width="24" height="32" viewBox="0 0 24 32" xmlns:m="https://www.mapbox.com"><rect id="container" width="24" height="32" fill="none"/><path id="stroke" d="M1 4.7071C1 4.31658 1.31658 4 1.7071 4H7.5V2.5C7.5 1.67157 8.17157 1 9 1L15 1C15.8284 1 16.5 1.67157 16.5 2.5V4H22.2929C22.6834 4 23 4.31659 23 4.70711C23 4.89465 22.9255 5.0745 22.7929 5.20711L21.293 6.70711C21.1054 6.89464 21.0001 7.14899 21.0001 7.4142V17C21.0001 21.9706 16.9706 26 12.0001 26C7.02951 26 3.00007 21.9706 3.00007 17L3.00005 7.41422C3.00005 7.149 2.89469 6.89464 2.70715 6.70711L1.20711 5.20711C1.0745 5.0745 1 4.89464 1 4.7071Z" fill="none" stroke="#475DCD" stroke-width="2"/><path id="body" d="M1 4.7071C1 4.31658 1.31658 4 1.7071 4H7.5V2.5C7.5 1.67157 8.17157 1 9 1H15C15.8284 1 16.5 1.67157 16.5 2.5V4H22.2929C22.6834 4 23 4.31659 23 4.70711C23 4.89465 22.9255 5.0745 22.7929 5.20711L21.293 6.70711C21.1054 6.89464 21.0001 7.14899 21.0001 7.4142V17C21.0001 21.9706 16.9706 26 12.0001 26C7.02951 26 3.00007 21.9706 3.00007 17L3.00005 7.41422C3.00005 7.149 2.89469 6.89464 2.70715 6.70711L1.20711 5.20711C1.0745 5.0745 1 4.89464 1 4.7071Z" fill="#fff"/><path id="banner" d="M9.00002 2C8.72388 2 8.50002 2.22386 8.50002 2.5V5H3.01783C2.79511 5 2.68357 5.26929 2.84106 5.42678C2.88794 5.47366 2.95153 5.5 3.01784 5.5H8.50002V6H4.01786C3.79513 6 3.68359 6.26929 3.84109 6.42678C3.88797 6.47366 3.95156 6.5 4.01786 6.5H8.50002V7H4.50003C4.22388 7 4.00003 7.22386 4.00003 7.5V17C4.00003 21.4183 7.58175 25 12 25C16.4183 25 20 21.4183 20 17V7.5C20 7.22386 19.7762 7 19.5 7H15.5V6.5H19.9824C20.0487 6.5 20.1123 6.47366 20.1591 6.42677C20.3166 6.26928 20.2051 6 19.9824 6H15.5V5.5H20.9823C21.0486 5.5 21.1122 5.47366 21.1591 5.42677C21.3166 5.26928 21.205 5 20.9823 5H15.5V2.5C15.5 2.22386 15.2762 2 15 2H9.00002ZM9.00002 7.4914V5.5H15V7.4914C15 8.16112 14.5561 8.7497 13.9121 8.93368L12 9.47999L10.0879 8.93368C9.44399 8.7497 9.00002 8.16112 9.00002 7.4914ZM15.5 7.5H19.5V17C19.5 21.1421 16.1422 24.5 12 24.5C7.85789 24.5 4.50003 21.1421 4.50003 17V7.5H8.50004C8.50383 8.38939 9.09474 9.16992 9.95058 9.41445L12 10L14.0495 9.41444C14.9053 9.16992 15.4962 8.38939 15.5 7.5ZM13.8302 2.5H15V2.98757L14.2502 3.3H15V4.2H14.2499L15 4.51255V5H13.8299L12.45 4.42505V5H11.55V4.42507L10.1702 5H9V4.51257L9.75016 4.2H9V3.3H9.74989L9 2.98755V2.5H10.1699L11.55 3.07505V2.5H12.45V3.07507L13.8302 2.5Z" fill="#475DCD"/><path id="water" d="M14.8661 8.11106C14.7995 7.89602 14.7093 7.69133 14.5987 7.5H15V7H14.2361C14.066 6.80995 13.872 6.64171 13.6589 6.5H15V6H9V6.5H10.3411C10.128 6.64171 9.93399 6.80995 9.76389 7H9V7.4914C9 7.49427 9.00001 7.49713 9.00002 7.5H9.40135C9.29067 7.69133 9.20051 7.89602 9.13389 8.11106C9.31174 8.50279 9.65454 8.80986 10.0879 8.93368L12 9.47999L13.9121 8.93368C14.3455 8.80986 14.6883 8.50279 14.8661 8.11106Z" fill="#31A5A5"/><path id="sun" d="M14.4732 8.63292C14.2957 7.42624 13.256 6.5 12 6.5C10.744 6.5 9.7043 7.42622 9.52673 8.63289C9.68645 8.76916 9.87639 8.87325 10.0879 8.93368L12 9.47999L13.9121 8.93368C14.1236 8.87325 14.3135 8.76918 14.4732 8.63292Z" fill="#FFE666"/><path id="flag" d="M12.25 2.5H11.75V3.5H9V4H11.75V5H12.25V4H15V3.5H12.25V2.5Z M15 5H14.3515L12.45 4.20837V4.2H13.7299L15 4.72921V5Z M9.64851 5H9V4.72923L10.2702 4.2H11.55V4.2084L9.64851 5Z M14.3502 2.5H15V2.7709L13.7302 3.3H12.45V3.29174L14.3502 2.5Z M10.2699 3.3L9 2.77088L9.00005 2.5H9.64989L11.55 3.29171V3.3H10.2699Z" fill="#F13B3B"/><m:metadata><m:parameters><m:parameter m:name="color-1" m:type="color" m:value="#31A5A5"/><m:parameter m:name="color-2" m:type="color" m:value="#475DCD"/><m:parameter m:name="color-3" m:type="color" m:value="#F13B3B"/><m:parameter m:name="color-4" m:type="color" m:value="#FFE666"/><m:parameter m:name="color-5" m:type="color" m:value="#FFFFFF"/></m:parameters></m:metadata></svg>