<svg id="ca-britishcolumbia-3" xmlns="http://www.w3.org/2000/svg" width="28" height="32" viewBox="0 0 28 32" xmlns:m="https://www.mapbox.com"><rect id="container" width="28" height="32" fill="none"/><path id="stroke" d="M1 4.7071C1 4.31658 1.31658 4 1.7071 4H9.5V2.5C9.5 1.67157 10.1716 1 11 1L17 1C17.8284 1 18.5 1.67157 18.5 2.5V4H26.2929C26.6834 4 27 4.31659 27 4.70711C27 4.89465 26.9255 5.0745 26.7929 5.20711L25.293 6.70711C25.1054 6.89464 25.0001 7.14899 25.0001 7.4142V16C25.0001 22.0751 20.0752 27 14.0001 27C7.92494 27 3.00006 22.0751 3.00006 16L3.00005 7.41422C3.00005 7.149 2.89469 6.89464 2.70715 6.70711L1.20711 5.20711C1.0745 5.0745 1 4.89464 1 4.7071Z" fill="none" stroke="#475DCD" stroke-width="2"/><path id="body" d="M1 4.7071C1 4.31658 1.31658 4 1.7071 4H9.5V2.5C9.5 1.67157 10.1716 1 11 1H17C17.8284 1 18.5 1.67157 18.5 2.5V4H26.2929C26.6834 4 27 4.31659 27 4.70711C27 4.89465 26.9255 5.0745 26.7929 5.20711L25.293 6.70711C25.1054 6.89464 25.0001 7.14899 25.0001 7.4142V16C25.0001 22.0751 20.0752 27 14.0001 27C7.92494 27 3.00006 22.0751 3.00006 16L3.00005 7.41422C3.00005 7.149 2.89469 6.89464 2.70715 6.70711L1.20711 5.20711C1.0745 5.0745 1 4.89464 1 4.7071Z" fill="#fff"/><path id="banner" d="M11 2C10.7239 2 10.5 2.22386 10.5 2.5V5H3.01783C2.79511 5 2.68357 5.26929 2.84106 5.42678C2.88794 5.47366 2.95153 5.5 3.01784 5.5H10.5V6H4.01786C3.79513 6 3.68359 6.26929 3.84109 6.42678C3.88797 6.47366 3.95156 6.5 4.01786 6.5H10.5V7H4.50003C4.22388 7 4.00003 7.22386 4.00003 7.5L4 16C4 21.5228 8.47715 26 14 26C19.5228 26 24 21.5228 24 16L24 7.5C24 7.22386 23.7762 7 23.5 7H17.5V6.5H23.9824C24.0487 6.5 24.1123 6.47366 24.1591 6.42677C24.3166 6.26928 24.2051 6 23.9824 6H17.5V5.5H24.9823C25.0486 5.5 25.1122 5.47366 25.1591 5.42677C25.3166 5.26928 25.205 5 24.9823 5H17.5V2.5C17.5 2.22386 17.2762 2 17 2H11ZM23.5 7.5L23.5 16C23.5 21.2467 19.2467 25.5 14 25.5C8.7533 25.5 4.5 21.2467 4.5 16L4.50003 7.5H10.5C10.5038 8.38939 11.0947 9.16992 11.9506 9.41445L14 10L16.0495 9.41444C16.9053 9.16992 17.4962 8.38939 17.5 7.5H23.5ZM11 7.4914V5.5H17V7.4914C17 8.16112 16.5561 8.7497 15.9121 8.93368L14 9.47999L12.0879 8.93368C11.444 8.7497 11 8.16112 11 7.4914ZM15.8302 2.5H17V2.98757L16.2502 3.3H17V4.2H16.2499L17 4.51255V5H15.8299L14.45 4.42505V5H13.55V4.42507L12.1702 5H11V4.51257L11.7502 4.2H11V3.3H11.7499L11 2.98755V2.5H12.1699L13.55 3.07505V2.5H14.45V3.07507L15.8302 2.5Z" fill="#475DCD"/><path id="water" d="M16.8661 8.11106C16.7995 7.89602 16.7093 7.69133 16.5987 7.5H17V7H16.2361C16.066 6.80995 15.872 6.64171 15.6589 6.5H17V6H11V6.5H12.3411C12.128 6.64171 11.934 6.80995 11.7639 7H11V7.4914C11 7.49427 11 7.49713 11 7.5H11.4013C11.2907 7.69133 11.2005 7.89602 11.1339 8.11106C11.3117 8.50279 11.6545 8.80986 12.0879 8.93368L14 9.47999L15.9121 8.93368C16.3455 8.80986 16.6883 8.50279 16.8661 8.11106Z" fill="#31A5A5"/><path id="sun" d="M16.4733 8.63292C16.2958 7.42624 15.2561 6.5 14.0001 6.5C12.7441 6.5 11.7044 7.42622 11.5269 8.63289C11.6866 8.76916 11.8765 8.87325 12.088 8.93368L14.0001 9.47999L15.9122 8.93368C16.1237 8.87325 16.3136 8.76918 16.4733 8.63292Z" fill="#FFE666"/><path id="flag" d="M14.25 2.5H13.75V3.5H11V4H13.75V5H14.25V4H17V3.5H14.25V2.5Z M17 5H16.3515L14.45 4.20837V4.2H15.7299L17 4.72921V5Z M11.6485 5H11V4.72923L12.2702 4.2H13.55V4.2084L11.6485 5Z M16.3502 2.5H17V2.7709L15.7302 3.3H14.45V3.29174L16.3502 2.5Z M12.2699 3.3L11 2.77088L11 2.5H11.6499L13.55 3.29171V3.3H12.2699Z" fill="#F13B3B"/><m:metadata><m:parameters><m:parameter m:name="color-1" m:type="color" m:value="#31A5A5"/><m:parameter m:name="color-2" m:type="color" m:value="#475DCD"/><m:parameter m:name="color-3" m:type="color" m:value="#F13B3B"/><m:parameter m:name="color-4" m:type="color" m:value="#FFE666"/><m:parameter m:name="color-5" m:type="color" m:value="#FFFFFF"/></m:parameters></m:metadata></svg>