<svg id="ca-manitoba-alt-3" xmlns="http://www.w3.org/2000/svg" width="27" height="36" viewBox="0 0 27 36" xmlns:m="https://www.mapbox.com"><rect id="container" width="27" height="36" fill="none"/><path id="stroke" d="M24 1H3C1.89543 1 1 1.89543 1 3V25C1 26.1046 1.89543 27 3 27H24C25.1046 27 26 26.1046 26 25V3C26 1.89543 25.1046 1 24 1Z" fill="none" stroke="#fff" stroke-width="2"/><path id="body" d="M24 1H3C1.89543 1 1 1.89543 1 3V25C1 26.1046 1.89543 27 3 27H24C25.1046 27 26 26.1046 26 25V3C26 1.89543 25.1046 1 24 1Z" fill="#1B1D27"/><path id="banner" d="M12.1282 4.55559L13.1167 4.83406C13.074 4.96274 13.0335 5.11074 12.9993 5.2744L12.9961 5.28946C12.9442 5.54217 12.907 5.83297 12.9001 6.14814C12.8874 6.71492 12.9724 7.35838 13.242 8H12.8536C12.6272 8 12.4101 7.91007 12.25 7.75L12.1543 7.65425C12.0555 7.55549 11.9215 7.5 11.7819 7.5C11.6058 7.5 11.4413 7.412 11.3437 7.26548L11.0038 6.75577C10.6805 6.27077 10.5056 5.70226 10.5001 5.1198C10.7096 4.73862 11.1108 4.5 11.5482 4.5H11.7259C11.8619 4.5 11.9973 4.5187 12.1282 4.55559Z M9.04066 6.03672C9.14072 5.83659 9.30436 5.6813 9.5 5.59038V6L10 6.5C9.67986 6.5 9.37282 6.37282 9.14645 6.14645L9.03935 6.03935L9.04066 6.03672Z M13.5777 7.46196C13.4344 6.99946 13.3894 6.54412 13.4005 6.13568C13.408 5.86302 13.4405 5.61063 13.4858 5.39009C13.499 5.326 13.5382 5.28742 13.59 5.26971C13.6452 5.25083 13.7186 5.25582 13.7859 5.30165L14.3086 5.65754C14.3482 5.6845 14.3902 5.70761 14.4342 5.72655L15.7359 6.28664C15.8483 6.335 15.9091 6.4576 15.8797 6.57637L15.7806 6.97668C15.7397 7.14179 15.5327 7.1967 15.4153 7.07354C15.2008 6.84831 14.8652 6.78751 14.5853 6.92315L13.9575 7.22732C13.8547 7.27711 13.7679 7.35472 13.7071 7.45133C13.6824 7.49041 13.648 7.50134 13.623 7.49933C13.6104 7.49832 13.6015 7.4942 13.5956 7.48961C13.591 7.48604 13.5836 7.47875 13.5777 7.46196Z M2 3C2 2.44772 2.44772 2 3 2H24C24.5523 2 25 2.44772 25 3V25C25 25.5523 24.5523 26 24 26H3C2.44772 26 2 25.5523 2 25V3ZM9.00001 12C5.6863 12 3 14.6863 3.00001 18C3.00002 21.3137 5.68631 24 9.00001 24H18C21.3137 24 24 21.3137 24 18C24 14.6863 21.3137 12 18 12H9.00001ZM9.043 7.35803C9.05783 7.4508 9.09849 7.53751 9.16033 7.60823L9.53898 8.04129C9.6722 8.19365 9.88412 8.25067 10.0758 8.18574L10.3683 8.08667C10.4475 8.05984 10.535 8.08511 10.5877 8.15001L11.0702 8.74407C11.0862 8.76381 11.1058 8.78031 11.128 8.79269L11.3384 8.90992C11.4382 8.96553 11.5 9.07081 11.5 9.18504V9.25C11.5 9.38807 11.3881 9.5 11.25 9.5C11.1119 9.5 11 9.61193 11 9.75C11 9.88807 11.1119 10 11.25 10H11.691C11.8104 10 11.9234 9.95742 12.0118 9.88347C12.0562 9.8464 12.0943 9.80144 12.124 9.75C12.129 9.74138 12.1337 9.73258 12.1382 9.72361L12.4146 9.17082C12.4511 9.09776 12.5143 9.04348 12.5889 9.01735C12.6212 9.00604 12.6556 9 12.691 9H12.75C12.8881 9 13 9.11193 13 9.25C13 9.3663 12.9206 9.46405 12.813 9.49199C12.7929 9.49722 12.7718 9.5 12.75 9.5C12.6119 9.5 12.5 9.61193 12.5 9.75C12.5 9.82654 12.5344 9.89504 12.5886 9.9409C12.6321 9.97777 12.6885 10 12.75 10H13.191C13.3804 10 13.5533 9.89323 13.6241 9.71757C13.7685 9.35922 13.9888 8.70823 13.9996 8.05001C14 8.0224 14.0224 8 14.05 8H15C15.2761 8 15.5 8.22386 15.5 8.5V9.25C15.5 9.38807 15.3881 9.5 15.25 9.5C15.1119 9.5 15 9.61193 15 9.75C15 9.88807 15.1119 10 15.25 10H15.5C15.7761 10 16 9.77614 16 9.5V8.27102C16 8.10196 16.0854 7.94435 16.2271 7.85207L17.0227 7.33379L17.8976 6.58741C17.9347 6.55571 17.9775 6.53205 18.0233 6.51739C18.059 6.50595 18.0966 6.5 18.1347 6.5H18.3853C18.4487 6.5 18.5 6.44866 18.5 6.38532C18.5 6.33468 18.4668 6.29003 18.4183 6.27548L17.6774 6.05322C17.5749 6.02246 17.465 6.0699 17.4172 6.16566L17.2138 6.57246C17.1854 6.62912 17.1268 6.64491 17.078 6.62935C17.0352 6.61567 17 6.57772 17 6.52199C17 6.50747 16.9972 6.49308 16.9917 6.47962L16.8766 6.19559C16.8718 6.18361 16.8665 6.17188 16.8608 6.1604C16.8068 6.05197 16.715 5.9664 16.602 5.92035L14.422 5.03178C14.3704 5.01074 14.3226 4.98122 14.2807 4.94443L13.86 4.57484C13.8039 4.52557 13.7374 4.48949 13.6656 4.46924L12.2638 4.07432C12.0888 4.02501 11.9078 4 11.7259 4H11.5482C10.9058 4 10.3185 4.36294 10.0313 4.9375C10.0121 4.9758 9.97295 5 9.93012 5H9.90909C9.35194 5 8.84261 5.31478 8.59344 5.81312L8.54359 5.91283C8.51492 5.97016 8.5 6.03337 8.5 6.09746V6.53047C8.5 6.71814 8.60564 6.88984 8.77317 6.97444C8.91563 7.04638 9.01492 7.18232 9.04011 7.33991L9.043 7.35803ZM17 9.25C17 9.38807 16.8881 9.5 16.75 9.5C16.6119 9.5 16.5 9.61193 16.5 9.75C16.5 9.88807 16.6119 10 16.75 10H17C17.2761 10 17.5 9.77614 17.5 9.5V8.61803C17.5 8.54662 17.4847 8.47612 17.4552 8.41123C17.4527 8.40559 17.45 8.39998 17.4472 8.39443L17.062 7.62409C17.0315 7.56305 16.9502 7.54984 16.9019 7.59811L16.5707 7.92929C16.5317 7.96834 16.5317 8.03166 16.5707 8.07071L16.8536 8.35355C16.8646 8.36464 16.8751 8.37619 16.8851 8.38816C16.934 8.4472 16.9684 8.51647 16.9862 8.59043C16.9953 8.62834 17 8.66748 17 8.70711V9.25Z" fill="#fff"/><m:metadata><m:parameters><m:parameter m:name="color-1" m:type="color" m:value="#1B1D27"/><m:parameter m:name="color-2" m:type="color" m:value="#FFFFFF"/></m:parameters></m:metadata></svg>