<svg id="ca-province-manitoba-3" xmlns="http://www.w3.org/2000/svg" width="24" height="32" viewBox="0 0 24 32" xmlns:m="https://www.mapbox.com"><rect id="container" width="24" height="32" fill="none"/><path id="stroke" d="M21 1H3C1.89543 1 1 1.89543 1 3V19.3063C1 20.6128 1.84546 21.769 3.09039 22.1651L11.6968 24.9035C11.894 24.9663 12.1059 24.9663 12.3032 24.9035L20.9096 22.1651C22.1545 21.769 23 20.6128 23 19.3063V3C23 1.89543 22.1045 1 21 1Z" fill="none" stroke="#fff" stroke-width="2"/><path id="body" d="M23 3C23 1.89543 22.1046 1 21 1H3.00002C1.89545 1 1.00002 1.89543 1.00002 3L1 19.3063C0.999998 20.6128 1.84545 21.769 3.09039 22.1651L11.6968 24.9035C11.8941 24.9663 12.1059 24.9663 12.3032 24.9035L20.9096 22.1651C22.1545 21.769 23 20.6128 23 19.3063V3Z" fill="#1B1D27"/><path id="banner" d="M10.6282 4.55559L11.6167 4.83406C11.574 4.96274 11.5335 5.11074 11.4993 5.2744L11.4961 5.28946C11.4441 5.54217 11.407 5.83297 11.4001 6.14814C11.3874 6.71492 11.4724 7.35838 11.742 8H11.3536C11.1272 8 10.9101 7.91007 10.75 7.75L10.6543 7.65425C10.5555 7.55549 10.4215 7.5 10.2819 7.5C10.1058 7.5 9.94133 7.412 9.84365 7.26548L9.50385 6.75577C9.18051 6.27077 9.00559 5.70226 9.00013 5.1198C9.20961 4.73862 9.61076 4.5 10.0482 4.5H10.2259C10.3619 4.5 10.4973 4.5187 10.6282 4.55559Z M7.54066 6.03672C7.64072 5.83659 7.80436 5.68131 8 5.59038V6L8.5 6.5C8.17985 6.5 7.87282 6.37282 7.64644 6.14645L7.53934 6.03935L7.54066 6.03672Z M12.0777 7.46196C11.9344 6.99946 11.8894 6.54412 11.9005 6.13568C11.908 5.86302 11.9405 5.61063 11.9858 5.39009C11.999 5.326 12.0382 5.28742 12.09 5.26971C12.1452 5.25083 12.2186 5.25582 12.2859 5.30165L12.8086 5.65754C12.8482 5.6845 12.8902 5.70761 12.9342 5.72655L14.2359 6.28664C14.3483 6.335 14.4091 6.4576 14.3797 6.57637L14.2806 6.97668C14.2397 7.14179 14.0327 7.1967 13.9153 7.07354C13.7008 6.84831 13.3652 6.78751 13.0853 6.92315L12.4575 7.22732C12.3547 7.27711 12.2679 7.35472 12.2071 7.45133C12.1824 7.49041 12.148 7.50134 12.123 7.49933C12.1104 7.49832 12.1015 7.4942 12.0956 7.48961C12.091 7.48604 12.0836 7.47875 12.0777 7.46196Z M21 2C21.5523 2 22 2.44772 22 3V19.3056C22 20.1727 21.4413 20.941 20.6164 21.2083L12.1541 23.9501C12.0539 23.9825 11.9461 23.9825 11.8459 23.9501L3.38355 21.2083C2.5587 20.941 2 20.1727 2 19.3056L2.00002 3C2.00002 2.44771 2.44774 2 3.00002 2H21ZM7.543 7.35803C7.55783 7.4508 7.59849 7.53751 7.66033 7.60823L8.03898 8.04129C8.17219 8.19365 8.38412 8.25067 8.5758 8.18574L8.86827 8.08667C8.94746 8.05984 9.03497 8.08511 9.08768 8.15001L9.57015 8.74407C9.58618 8.76381 9.60582 8.78031 9.62803 8.79269L9.83837 8.90992C9.93815 8.96553 10 9.07081 10 9.18504V9.25C10 9.38807 9.88807 9.5 9.75 9.5C9.61193 9.5 9.5 9.61193 9.5 9.75C9.5 9.88807 9.61193 10 9.75 10H10.191C10.3104 10 10.4234 9.95742 10.5118 9.88347C10.5562 9.8464 10.5943 9.80144 10.624 9.75C10.629 9.74138 10.6337 9.73258 10.6382 9.72361L10.9146 9.17082C10.9511 9.09776 11.0143 9.04348 11.0889 9.01735C11.1212 9.00604 11.1556 9 11.191 9H11.25C11.3881 9 11.5 9.11193 11.5 9.25C11.5 9.3663 11.4206 9.46405 11.313 9.49199C11.2929 9.49722 11.2718 9.5 11.25 9.5C11.1119 9.5 11 9.61193 11 9.75C11 9.82654 11.0344 9.89504 11.0886 9.9409C11.1321 9.97777 11.1885 10 11.25 10H11.691C11.8804 10 12.0533 9.89323 12.1241 9.71757C12.2685 9.35922 12.4888 8.70823 12.4996 8.05001C12.5 8.0224 12.5224 8 12.55 8H13.5C13.7761 8 14 8.22386 14 8.5V9.25C14 9.38807 13.8881 9.5 13.75 9.5C13.6119 9.5 13.5 9.61193 13.5 9.75C13.5 9.88807 13.6119 10 13.75 10H14C14.2761 10 14.5 9.77614 14.5 9.5V8.27102C14.5 8.10196 14.5854 7.94435 14.7271 7.85207L15.5227 7.33379L16.3975 6.58741C16.4347 6.55571 16.4775 6.53205 16.5233 6.51739C16.559 6.50595 16.5966 6.5 16.6347 6.5H16.8853C16.9487 6.5 17 6.44866 17 6.38532C17 6.33468 16.9668 6.29003 16.9183 6.27548L16.1774 6.05322C16.0749 6.02246 15.965 6.0699 15.9172 6.16566L15.7138 6.57246C15.6854 6.62912 15.6268 6.64491 15.578 6.62935C15.5352 6.61567 15.5 6.57772 15.5 6.52199C15.5 6.50747 15.4972 6.49308 15.4917 6.47962L15.3766 6.19559C15.3718 6.18361 15.3665 6.17188 15.3608 6.1604C15.3068 6.05197 15.215 5.9664 15.102 5.92035L12.922 5.03178C12.8703 5.01074 12.8226 4.98122 12.7807 4.94443L12.36 4.57484C12.3039 4.52557 12.2374 4.48949 12.1656 4.46924L10.7638 4.07432C10.5888 4.02501 10.4078 4 10.2259 4H10.0482C9.40578 4 8.81853 4.36294 8.53125 4.9375C8.5121 4.9758 8.47295 5 8.43012 5H8.40909C7.85194 5 7.34261 5.31478 7.09344 5.81312L7.04358 5.91283C7.01492 5.97016 7 6.03337 7 6.09746V6.53047C7 6.71814 7.10564 6.88984 7.27317 6.97444C7.41563 7.04638 7.51492 7.18232 7.54011 7.33991L7.543 7.35803ZM15.5 9.25C15.5 9.38807 15.3881 9.5 15.25 9.5C15.1119 9.5 15 9.61193 15 9.75C15 9.88807 15.1119 10 15.25 10H15.5C15.7761 10 16 9.77614 16 9.5V8.61803C16 8.54662 15.9847 8.47612 15.9552 8.41123C15.9527 8.40559 15.95 8.39998 15.9472 8.39443L15.562 7.62409C15.5315 7.56305 15.4502 7.54984 15.4019 7.59811L15.0707 7.92929C15.0317 7.96834 15.0317 8.03166 15.0707 8.07071L15.3536 8.35355C15.3646 8.36464 15.3751 8.37619 15.3851 8.38816C15.434 8.4472 15.4684 8.51647 15.4862 8.59043C15.4953 8.62834 15.5 8.66748 15.5 8.70711V9.25Z" fill="#fff"/><m:metadata><m:parameters><m:parameter m:name="color-1" m:type="color" m:value="#1B1D27"/><m:parameter m:name="color-2" m:type="color" m:value="#FFFFFF"/></m:parameters></m:metadata></svg>