<svg id="ca-manitoba-reg-2" xmlns="http://www.w3.org/2000/svg" width="24" height="23" viewBox="0 0 24 23" xmlns:m="https://www.mapbox.com"><rect id="container" width="24" height="23" fill="none"/><path id="stroke" d="M1.49775 4.58835C1.12648 2.73197 2.54636 1 4.4395 1H19.5603C21.4534 1 22.8733 2.73197 22.502 4.58835L20.302 15.5883C20.0216 16.9906 18.7903 18 17.3603 18H6.6395C5.20945 18 3.97821 16.9906 3.69775 15.5883L1.49775 4.58835Z" fill="none" stroke="#fff" stroke-width="2"/><path id="body" d="M1.49775 4.58835C1.12648 2.73197 2.54636 1 4.4395 1H19.5603C21.4534 1 22.8733 2.73197 22.502 4.58835L20.302 15.5883C20.0216 16.9906 18.7903 18 17.3603 18H6.6395C5.20945 18 3.97821 16.9906 3.69775 15.5883L1.49775 4.58835Z" fill="#1B1D27"/><path id="banner" d="M2.47848 4.39223C2.23097 3.15465 3.17755 2 4.43964 2H19.5604C20.8225 2 21.7691 3.15465 21.5216 4.39223L19.3216 15.3922C19.1346 16.3271 18.3138 17 17.3604 17H6.63964C5.68628 17 4.86545 16.3271 4.67848 15.3922L2.47848 4.39223Z" fill="#fff"/><path id="route" d="M4.43955 3H19.5603C20.1914 3 20.6647 3.57733 20.5409 4.19612L20.3409 5.19612C20.2474 5.66354 19.837 6 19.3603 6H4.63955C4.16286 6 3.75245 5.66354 3.65896 5.19611L3.45897 4.19611C3.33521 3.57732 3.8085 3 4.43955 3Z" fill="#19A45C"/><m:metadata><m:parameters><m:parameter m:name="color-1" m:type="color" m:value="#19A45C"/><m:parameter m:name="color-2" m:type="color" m:value="#1B1D27"/><m:parameter m:name="color-3" m:type="color" m:value="#FFFFFF"/></m:parameters></m:metadata></svg>