<svg id="ca-manitoba-2" xmlns="http://www.w3.org/2000/svg" width="20" height="32" viewBox="0 0 20 32" xmlns:m="https://www.mapbox.com"><rect id="container" width="20" height="32" fill="none"/><path id="stroke" d="M17 1H3.00002C1.89545 1 1.00002 1.89543 1.00002 3L1 19.4478C0.999997 20.685 1.75954 21.7954 2.91266 22.2438L9.63755 24.859C9.87068 24.9497 10.1293 24.9497 10.3624 24.859L17.0873 22.2438C18.2405 21.7954 19 20.6859 19 19.4487V2.99357C19 1.889 18.1046 1 17 1Z" fill="none" stroke="#fff" stroke-width="2"/><path id="body" d="M17 1H3.00002C1.89545 1 1.00002 1.89543 1.00002 3L1 19.4478C0.999997 20.685 1.75954 21.7954 2.91266 22.2438L9.63755 24.859C9.87068 24.9497 10.1293 24.9497 10.3624 24.859L17.0873 22.2438C18.2404 21.7954 19 20.685 19 19.4478V3C19 1.89543 18.1046 1 17 1Z" fill="#1B1D27"/><path id="banner" d="M8.62823 4.55559L9.61665 4.83406C9.574 4.96274 9.53354 5.11074 9.49933 5.2744L9.49607 5.28946C9.44415 5.54217 9.40704 5.83297 9.40007 6.14814C9.38743 6.71492 9.47236 7.35838 9.74197 8H9.35355C9.12718 8 8.91007 7.91007 8.75 7.75L8.65425 7.65425C8.55548 7.55549 8.42153 7.5 8.28185 7.5C8.10577 7.5 7.94133 7.412 7.84365 7.26548L7.50385 6.75577C7.18051 6.27077 7.00559 5.70226 7.00013 5.1198C7.20961 4.73862 7.61076 4.5 8.04816 4.5H8.22592C8.36193 4.5 8.4973 4.5187 8.62823 4.55559Z M5.54066 6.03672C5.64072 5.83659 5.80436 5.68131 6 5.59038V6L6.5 6.5C6.17985 6.5 5.87282 6.37282 5.64644 6.14645L5.53934 6.03935L5.54066 6.03672Z M10.0777 7.46196C9.93436 6.99946 9.88938 6.54412 9.90052 6.13568C9.90801 5.86302 9.94053 5.61063 9.98584 5.39009C9.99901 5.326 10.0382 5.28742 10.09 5.26971C10.1452 5.25083 10.2186 5.25582 10.2859 5.30165L10.8086 5.65754C10.8482 5.6845 10.8902 5.70761 10.9342 5.72655L12.2359 6.28664C12.3483 6.335 12.4091 6.4576 12.3797 6.57637L12.2806 6.97668C12.2397 7.14179 12.0327 7.1967 11.9153 7.07354C11.7008 6.84831 11.3652 6.78751 11.0853 6.92315L10.4575 7.22732C10.3547 7.27711 10.2679 7.35472 10.2071 7.45133C10.1824 7.49041 10.148 7.50134 10.123 7.49933C10.1104 7.49832 10.1015 7.4942 10.0956 7.48961C10.091 7.48604 10.0836 7.47875 10.0777 7.46196Z M17 2C17.5523 2 18 2.44772 18 3V19.4478C18 20.2726 17.4936 21.0129 16.7249 21.3118L10.1812 23.8566C10.0647 23.9019 9.93534 23.9019 9.81877 23.8566L3.27511 21.3118C2.50636 21.0129 2 20.2726 2 19.4478L2.00002 3C2.00002 2.44771 2.44774 2 3.00002 2H17ZM5.543 7.35803C5.55783 7.4508 5.59849 7.53751 5.66033 7.60823L6.03898 8.04129C6.17219 8.19365 6.38412 8.25067 6.5758 8.18574L6.86827 8.08667C6.94746 8.05984 7.03497 8.08511 7.08768 8.15001L7.57015 8.74407C7.58618 8.76381 7.60582 8.78031 7.62803 8.79269L7.83837 8.90992C7.93815 8.96553 8 9.07081 8 9.18504V9.25C8 9.38807 7.88807 9.5 7.75 9.5C7.61193 9.5 7.5 9.61193 7.5 9.75C7.5 9.88807 7.61193 10 7.75 10H8.19098C8.31044 10 8.42343 9.95742 8.51184 9.88347C8.55617 9.8464 8.59432 9.80144 8.624 9.75C8.62897 9.74138 8.63371 9.73258 8.6382 9.72361L8.91459 9.17082C8.95112 9.09776 9.01427 9.04348 9.08887 9.01735C9.12117 9.00604 9.15562 9 9.19098 9H9.25C9.38807 9 9.5 9.11193 9.5 9.25C9.5 9.3663 9.42058 9.46405 9.31302 9.49199C9.29289 9.49722 9.27177 9.5 9.25 9.5C9.11193 9.5 9 9.61193 9 9.75C9 9.82654 9.03439 9.89504 9.08857 9.9409C9.13212 9.97777 9.18847 10 9.25 10H9.69098C9.88037 10 10.0533 9.89323 10.1241 9.71757C10.2685 9.35922 10.4888 8.70823 10.4996 8.05001C10.5 8.0224 10.5224 8 10.55 8H11.5C11.7761 8 12 8.22386 12 8.5V9.25C12 9.38807 11.8881 9.5 11.75 9.5C11.6119 9.5 11.5 9.61193 11.5 9.75C11.5 9.88807 11.6119 10 11.75 10H12C12.2761 10 12.5 9.77614 12.5 9.5V8.27102C12.5 8.10196 12.5854 7.94435 12.7271 7.85207L13.5227 7.33379L14.3975 6.58741C14.4347 6.55571 14.4775 6.53205 14.5233 6.51739C14.559 6.50595 14.5966 6.5 14.6347 6.5H14.8853C14.9487 6.5 15 6.44866 15 6.38532C15 6.33468 14.9668 6.29003 14.9183 6.27548L14.1774 6.05322C14.0749 6.02246 13.965 6.0699 13.9172 6.16566L13.7138 6.57246C13.6854 6.62912 13.6268 6.64491 13.578 6.62935C13.5352 6.61567 13.5 6.57772 13.5 6.52199C13.5 6.50747 13.4972 6.49308 13.4917 6.47962L13.3766 6.19559C13.3718 6.18361 13.3665 6.17188 13.3608 6.1604C13.3068 6.05197 13.215 5.9664 13.102 5.92035L10.922 5.03178C10.8703 5.01074 10.8226 4.98122 10.7807 4.94443L10.36 4.57484C10.3039 4.52557 10.2374 4.48949 10.1656 4.46924L8.76381 4.07432C8.58877 4.02501 8.40777 4 8.22592 4H8.04816C7.40578 4 6.81853 4.36294 6.53125 4.9375C6.5121 4.9758 6.47295 5 6.43012 5H6.40909C5.85194 5 5.34261 5.31478 5.09344 5.81312L5.04358 5.91283C5.01492 5.97016 5 6.03337 5 6.09746V6.53047C5 6.71814 5.10564 6.88984 5.27317 6.97444C5.41563 7.04638 5.51492 7.18232 5.54011 7.33991L5.543 7.35803ZM13.5 9.25C13.5 9.38807 13.3881 9.5 13.25 9.5C13.1119 9.5 13 9.61193 13 9.75C13 9.88807 13.1119 10 13.25 10H13.5C13.7761 10 14 9.77614 14 9.5V8.61803C14 8.54662 13.9847 8.47612 13.9552 8.41123C13.9527 8.40559 13.95 8.39998 13.9472 8.39443L13.562 7.62409C13.5315 7.56305 13.4502 7.54984 13.4019 7.59811L13.0707 7.92929C13.0317 7.96834 13.0317 8.03166 13.0707 8.07071L13.3536 8.35355C13.3646 8.36464 13.3751 8.37619 13.3851 8.38816C13.434 8.4472 13.4684 8.51647 13.4862 8.59043C13.4953 8.62834 13.5 8.66748 13.5 8.70711V9.25Z" fill="#fff"/><m:metadata><m:parameters><m:parameter m:name="color-1" m:type="color" m:value="#1B1D27"/><m:parameter m:name="color-2" m:type="color" m:value="#FFFFFF"/></m:parameters></m:metadata></svg>