<svg id="ca-newbrunswick-country-3" xmlns="http://www.w3.org/2000/svg" width="26" height="20" viewBox="0 0 26 20" xmlns:m="https://www.mapbox.com"><rect id="container" width="26" height="20" fill="none"/><path id="stroke" d="M23 1H4C2.89543 1 2 1.89543 2 3V17C2 18.1046 2.89543 19 4 19H23C24.1046 19 25 18.1046 25 17V3C25 1.89543 24.1046 1 23 1Z" fill="none" stroke="#fff" stroke-width="2"/><path id="body" d="M23 1H4C2.89543 1 2 1.89543 2 3V17C2 18.1046 2.89543 19 4 19H23C24.1046 19 25 18.1046 25 17V3C25 1.89543 24.1046 1 23 1Z" fill="#1B1D27"/><path id="province" d="M4.38641 15.8978L3.53864 15.1351C3.51404 15.1129 3.5 15.0814 3.5 15.0483C3.5 15.0174 3.51229 14.9877 3.53417 14.9658L3.85355 14.6464C3.94732 14.5527 4 14.4255 4 14.2929V5.60355C4 5.38083 3.73071 5.26929 3.57322 5.42678C3.52634 5.47366 3.46275 5.5 3.39645 5.5H3.25C3.11193 5.5 3 5.38807 3 5.25C3 5.11193 3.11193 5 3.25 5H3.30902C3.42606 5 3.53307 4.93387 3.58541 4.82918L3.94721 4.10557C3.98193 4.03615 4 3.95959 4 3.88197V3.25C4 3.11193 4.11193 3 4.25 3C4.38807 3 4.5 2.88807 4.5 2.75C4.5 2.61193 4.61193 2.5 4.75 2.5H10.75C10.8881 2.5 11 2.61193 11 2.75C11 2.88807 11.1119 3 11.25 3H11.9549C11.9849 3 12.0148 2.9973 12.0444 2.99193L17.4823 2.00322C17.4941 2.00108 17.506 2 17.518 2C17.6959 2 17.7849 2.21505 17.6592 2.34082L17.6464 2.35355C17.5656 2.43443 17.5656 2.56557 17.6464 2.64645L17.8536 2.85355C17.9473 2.94732 18.0745 3 18.2071 3H18.7929C18.9255 3 19.0527 3.05268 19.1464 3.14645L19.2815 3.28149C19.4154 3.41541 19.4622 3.61349 19.4023 3.79316L19.1218 4.63471C19.0619 4.81442 19.1956 5 19.385 5C19.4586 5 19.5292 4.97076 19.5813 4.91872L20.3536 4.14645C20.4473 4.05268 20.5745 4 20.7071 4H21.7929C21.9255 4 22.0527 4.05268 22.1464 4.14645L22.3536 4.35355C22.4473 4.44732 22.5 4.5745 22.5 4.70711V4.91886C22.5 4.9726 22.4913 5.02599 22.4743 5.07698L22.0199 6.44025C22.0068 6.47954 21.9848 6.51525 21.9555 6.54454L21.949 6.55096C21.7833 6.71666 21.9007 7 22.135 7C22.3146 7 22.4414 7.1759 22.3846 7.34623L22.0977 8.20684C22.0378 8.38651 22.0846 8.58459 22.2185 8.71851L22.3787 8.87869C22.4573 8.95731 22.5075 9.0599 22.5213 9.17023L22.9787 12.8298C22.9925 12.9401 23.0427 13.0427 23.1213 13.1213L23.8658 13.8658C23.9517 13.9517 24 14.0683 24 14.1898C24 14.3771 23.8859 14.5456 23.712 14.6152L21.7153 15.4139C21.5788 15.4685 21.4732 15.5805 21.4267 15.72L21.0127 16.9618C21.0051 16.9846 20.9838 17 20.9597 17C20.9274 17 20.9018 16.9727 20.904 16.9404L20.9957 15.5639C20.998 15.5293 20.9706 15.5 20.936 15.5C20.9138 15.5 20.8935 15.5122 20.8831 15.5317L20.1278 16.9478C20.1107 16.9799 20.0773 17 20.0408 17C20.0147 17 19.9896 16.9896 19.9711 16.9711L19.6723 16.6723C19.5635 16.5635 19.4108 16.5109 19.2581 16.5295L13.2959 17.2578C13.2424 17.2644 13.1934 17.2273 13.185 17.1741L13.01 16.0632C13.0042 16.0268 12.9728 16 12.936 16C12.9132 16 12.8917 16.0103 12.8775 16.0281L12.5351 16.4562C12.5164 16.4795 12.4815 16.4814 12.4605 16.4601L12.1304 16.1269C12.1032 16.0995 12.0943 16.0589 12.1074 16.0226L12.4525 15.0666C12.4642 15.0342 12.4402 15 12.4058 15C12.3878 15 12.3711 15.0098 12.3624 15.0256L11.7262 16.1717C11.7054 16.2092 11.7108 16.2557 11.7396 16.2874L12.5955 17.2303C12.6497 17.29 12.6146 17.386 12.5347 17.3966L8 18H7.70943C7.59377 18 7.5 17.9062 7.5 17.7906C7.5 17.6476 7.35995 17.5467 7.22434 17.5919L6.07698 17.9743C6.02599 17.9913 5.9726 18 5.91886 18H5.39039C5.16095 18 4.96096 17.8439 4.90532 17.6213L4.53706 16.1482C4.5129 16.0516 4.46045 15.9644 4.38641 15.8978Z" fill="#fff"/><m:metadata><m:parameters><m:parameter m:name="color-1" m:type="color" m:value="#1B1D27"/><m:parameter m:name="color-2" m:type="color" m:value="#FFFFFF"/></m:parameters></m:metadata></svg>