<svg id="ca-novascotia-3" xmlns="http://www.w3.org/2000/svg" width="25" height="32" viewBox="0 0 25 32" xmlns:m="https://www.mapbox.com"><rect id="container" width="25" height="32" fill="none"/><path id="stroke" d="M22 1H3C1.89543 1 1 1.89543 1 3V23C1 24.1046 1.89543 25 3 25H22C23.1046 25 24 24.1046 24 23V3C24 1.89543 23.1046 1 22 1Z" fill="none" stroke="#475DCD" stroke-width="2"/><path id="body" d="M22 1H3C1.89543 1 1 1.89543 1 3V23C1 24.1046 1.89543 25 3 25H22C23.1046 25 24 24.1046 24 23V3C24 1.89543 23.1046 1 22 1Z" fill="#fff"/><path id="banner" d="M2.00002 9H23L23 3C23 2.44772 22.5523 2 22 2H3C2.44772 2 2 2.44772 2 3L2.00002 9ZM22.5 3.2405V7.75951L15.0759 5.50001L22.5 3.2405ZM11.2715 6.65787C11.5438 7.08263 11.951 7.3086 12.1545 7.40081C12.3748 7.50062 12.6252 7.50062 12.8455 7.40081C13.049 7.3086 13.4562 7.08263 13.7285 6.65786L19.7812 8.5H5.21879L11.2715 6.65787ZM11 4.25951L5.21874 2.5H19.7813L14 4.25953V4.2C14 3.8134 13.6866 3.5 13.3 3.5H11.7C11.3134 3.5 11 3.8134 11 4.2V4.25951ZM2.5 7.75953V3.24049L9.92413 5.50001L2.5 7.75953Z M2 9.5H23V16C23 21.6775 13.5985 23.7734 12.5878 23.9824C12.5261 23.9951 12.4739 23.9951 12.4122 23.9824C11.4015 23.7734 2 21.6775 2 16V9.5Z" fill="#475DCD"/><path id="heraldry" d="M11.5 4.2C11.5 4.08954 11.5895 4 11.7 4L13.3 4C13.4105 4 13.5 4.08954 13.5 4.2V5.7C13.5 6.46557 12.9139 6.82087 12.6391 6.94538C12.55 6.98577 12.45 6.98577 12.3609 6.94538C12.0861 6.82087 11.5 6.46557 11.5 5.7V4.2Z" fill="#FFE666"/><path id="lion" d="M12.05 4.5C12.0224 4.5 12 4.52239 12 4.55V5.6C12 5.99975 12.2597 6.22813 12.477 6.34766C12.4913 6.35555 12.5087 6.35555 12.523 6.34766C12.7403 6.22813 13 5.99975 13 5.6V4.55C13 4.52239 12.9776 4.5 12.95 4.5H12.05Z" fill="#F13B3B"/><m:metadata><m:parameters><m:parameter m:name="color-1" m:type="color" m:value="#475DCD"/><m:parameter m:name="color-2" m:type="color" m:value="#F13B3B"/><m:parameter m:name="color-3" m:type="color" m:value="#FFE666"/><m:parameter m:name="color-4" m:type="color" m:value="#FFFFFF"/></m:parameters></m:metadata></svg>