<svg id="ca-novascotia-country-3" xmlns="http://www.w3.org/2000/svg" width="26" height="16" viewBox="0 0 26 16" xmlns:m="https://www.mapbox.com"><rect id="container" width="26" height="16" fill="none"/><path id="stroke" d="M23 1H3C1.89543 1 1 1.89543 1 3V13C1 14.1046 1.89543 15 3 15H23C24.1046 15 25 14.1046 25 13V3C25 1.89543 24.1046 1 23 1Z" fill="none" stroke="#745239" stroke-width="2"/><path id="body" d="M23 1H3C1.89543 1 1 1.89543 1 3V13C1 14.1046 1.89543 15 3 15H23C24.1046 15 25 14.1046 25 13V3C25 1.89543 24.1046 1 23 1Z" fill="#fff"/><path id="banner" d="M2 3C2 2.44772 2.44772 2 3 2H23C23.5523 2 24 2.44772 24 3V13C24 13.5523 23.5523 14 23 14H3C2.44772 14 2 13.5523 2 13V3Z" fill="#745239"/><m:metadata><m:parameters><m:parameter m:name="color-1" m:type="color" m:value="#745239"/><m:parameter m:name="color-2" m:type="color" m:value="#FFFFFF"/></m:parameters></m:metadata></svg>