<svg id="ca-newfoundland-2" xmlns="http://www.w3.org/2000/svg" width="20" height="24" viewBox="0 0 20 24" xmlns:m="https://www.mapbox.com"><rect id="container" width="20" height="24" fill="none"/><path id="stroke" d="M17 1H3C1.89543 1 1 1.89543 1 3V16C1 17.1046 1.89543 18 3 18H17C18.1046 18 19 17.1046 19 16V3C19 1.89543 18.1046 1 17 1Z" fill="none" stroke="#fff" stroke-width="2"/><path id="body" d="M17 1H3C1.89543 1 1 1.89543 1 3V16C1 17.1046 1.89543 18 3 18H17C18.1046 18 19 17.1046 19 16V3C19 1.89543 18.1046 1 17 1Z" fill="#19A45C"/><path id="banner" d="M18 7C18 6.44772 17.5523 6 17 6H3C2.44772 6 2 6.44772 2 7V16C2 16.5523 2.44772 17 3 17H17C17.5523 17 18 16.5523 18 16V7Z" fill="#fff"/><m:metadata><m:parameters><m:parameter m:name="color-1" m:type="color" m:value="#19A45C"/><m:parameter m:name="color-2" m:type="color" m:value="#FFFFFF"/></m:parameters></m:metadata></svg>