<svg id="ca-novascotia-alt-2" xmlns="http://www.w3.org/2000/svg" width="20" height="21" viewBox="0 0 20 21" xmlns:m="https://www.mapbox.com"><rect id="container" width="20" height="21" fill="none"/><path id="stroke" d="M5.55214 2.19252C4.9349 1.5893 3.9854 1.51462 3.37513 2.12489L1.62203 3.87799C1.01282 4.4872 1.07326 5.45631 1.61778 6.12397C1.90998 6.48225 2.14761 6.86567 2.2758 7.27982C2.81319 9.01596 1 10.8172 1 12.6296C1 16 3.5 17.5 6.49191 17.7551C7.40728 17.8331 8.20434 18.1681 8.92697 18.6484C9.57354 19.0782 10.4249 19.0768 11.0685 18.6425C11.7725 18.1674 12.5504 17.8368 13.5079 17.7552C16.5 17.5 19 16 19 12.6296C19 10.8312 17.292 9.07696 17.7073 7.27982C17.8188 6.79748 18.0464 6.41871 18.3338 6.08474C18.8975 5.42958 18.9839 4.48393 18.3728 3.87278L16.6249 2.12489C16.0146 1.51462 15.0651 1.5893 14.4478 2.19251C13.9805 2.6492 13.4445 3 12.7499 3C12.0895 3 11.5725 2.68316 11.1217 2.25962C10.4671 1.64469 9.53234 1.64417 8.87781 2.25917C8.4269 2.68285 7.90999 3 7.24989 3C6.55539 3 6.01943 2.6492 5.55214 2.19252Z" fill="none" stroke="#fff" stroke-width="2"/><path id="body" d="M5.55214 2.19252C4.9349 1.5893 3.9854 1.51462 3.37513 2.12489L1.62203 3.87799C1.01282 4.4872 1.07326 5.45631 1.61778 6.12397C1.90998 6.48225 2.14761 6.86567 2.2758 7.27982C2.81319 9.01596 1 10.8172 1 12.6296C1 16 3.5 17.5 6.49191 17.7551C7.40728 17.8331 8.20434 18.1681 8.92697 18.6484C9.57354 19.0782 10.4249 19.0768 11.0685 18.6425C11.7725 18.1674 12.5504 17.8368 13.5079 17.7552C16.5 17.5 19 16 19 12.6296C19 10.8312 17.292 9.07696 17.7073 7.27982C17.8188 6.79748 18.0464 6.41871 18.3338 6.08474C18.8975 5.42958 18.9839 4.48393 18.3728 3.87278L16.6249 2.12489C16.0146 1.51462 15.0651 1.5893 14.4478 2.19251C13.9805 2.6492 13.4445 3 12.7499 3C12.0895 3 11.5725 2.68316 11.1217 2.25962C10.4671 1.64469 9.53234 1.64417 8.87781 2.25917C8.4269 2.68285 7.90999 3 7.24989 3C6.55539 3 6.01943 2.6492 5.55214 2.19252Z" fill="#1B1D27"/><path id="banner" d="M2.28311 4.6311C2.0898 4.82441 2.08936 5.13568 2.26773 5.34285C2.67336 5.81399 3.03838 6.36154 3.23108 6.98411C3.62201 8.24708 3.13125 9.45724 2.75743 10.3226C2.70347 10.4476 2.65113 10.5664 2.60063 10.6811C2.45547 11.0107 2.32555 11.3057 2.21628 11.6106C2.07348 12.009 2 12.3387 2 12.6295C2 14.0361 2.50664 14.9643 3.26222 15.5907C4.05281 16.2462 5.20554 16.6418 6.57686 16.7587C7.79126 16.8622 8.80955 17.3356 9.68345 17.955C9.87089 18.0879 10.1231 18.087 10.3095 17.9527C11.1627 17.3387 12.1574 16.8667 13.423 16.7587C14.7944 16.6418 15.9471 16.2462 16.7378 15.5907C17.4934 14.9643 18 14.0361 18 12.6295C18 12.0446 17.7469 11.4494 17.3894 10.6089C17.3529 10.523 17.3153 10.4346 17.2767 10.3433C16.9109 9.47734 16.4437 8.30648 16.733 7.05463C16.9 6.33182 17.2695 5.77021 17.6768 5.31846C17.8655 5.1092 17.8726 4.78682 17.6734 4.58757L15.9326 2.84685C15.729 2.64325 15.398 2.6554 15.1948 2.85937C15.1256 2.92889 15.0556 2.99601 14.9856 3.05932C14.4492 3.54423 13.7206 3.99998 12.7499 3.99998C11.7792 3.99998 11.0506 3.54452 10.5141 3.05953C10.4705 3.02016 10.427 2.97932 10.3837 2.93735C10.1703 2.73065 9.82871 2.7306 9.61532 2.9373C9.57214 2.97913 9.5288 3.01982 9.48542 3.05904C8.9492 3.54386 8.22068 3.99998 7.24989 3.99998C6.27916 3.99998 5.55062 3.54415 5.01428 3.05925C4.94428 2.99597 4.8744 2.92888 4.80517 2.8594C4.60194 2.65542 4.27095 2.64326 4.06734 2.84687L2.28311 4.6311Z" fill="#fff"/><m:metadata><m:parameters><m:parameter m:name="color-1" m:type="color" m:value="#1B1D27"/><m:parameter m:name="color-2" m:type="color" m:value="#FFFFFF"/></m:parameters></m:metadata></svg>