<svg id="ca-newbrunswick-2" xmlns="http://www.w3.org/2000/svg" width="20" height="20" viewBox="0 0 20 20" xmlns:m="https://www.mapbox.com"><rect id="container" width="20" height="20" fill="none"/><path id="stroke" d="M17 1H3C1.89543 1 1 1.89543 1 3V17C1 18.1046 1.89543 19 3 19H17C18.1046 19 19 18.1046 19 17V3C19 1.89543 18.1046 1 17 1Z" fill="none" stroke="#fff" stroke-width="2"/><path id="body" d="M17 1H3C1.89543 1 1 1.89543 1 3V17C1 18.1046 1.89543 19 3 19H17C18.1046 19 19 18.1046 19 17V3C19 1.89543 18.1046 1 17 1Z" fill="#19A45C"/><path id="province" d="M3.38641 15.8978L2.53864 15.1351C2.51404 15.1129 2.5 15.0814 2.5 15.0483C2.5 15.0174 2.51229 14.9877 2.53417 14.9658L2.85355 14.6464C2.94732 14.5527 3 14.4255 3 14.2929V5.60355C3 5.38083 2.73071 5.26929 2.57322 5.42678C2.52634 5.47366 2.46275 5.5 2.39645 5.5H2.25C2.11193 5.5 2 5.38807 2 5.25C2 5.11193 2.11193 5 2.25 5H2.30902C2.42606 5 2.53307 4.93387 2.58541 4.82918L2.94721 4.10557C2.98193 4.03615 3 3.95959 3 3.88197V3.25C3 3.11193 3.11193 3 3.25 3C3.38807 3 3.5 2.88807 3.5 2.75C3.5 2.61193 3.61193 2.5 3.75 2.5H6.75C6.88807 2.5 7 2.61193 7 2.75C7 2.88807 7.11193 3 7.25 3H7.92997C7.97643 3 8.02266 2.99353 8.06733 2.98076L11.4736 2.00753C11.4911 2.00253 11.5092 2 11.5274 2C11.7018 2 11.7891 2.21085 11.6658 2.33417L11.6464 2.35355C11.5656 2.43443 11.5656 2.56557 11.6464 2.64645L11.8536 2.85355C11.9473 2.94732 12.0745 3 12.2071 3H12.7929C12.9255 3 13.0527 3.05268 13.1464 3.14645L13.2815 3.28149C13.4154 3.41541 13.4622 3.61349 13.4023 3.79316L13.1218 4.63471C13.0619 4.81442 13.1956 5 13.385 5C13.4586 5 13.5292 4.97076 13.5813 4.91872L14.3536 4.14645C14.4473 4.05268 14.5745 4 14.7071 4H15.7929C15.9255 4 16.0527 4.05268 16.1464 4.14645L16.3536 4.35355C16.4473 4.44732 16.5 4.5745 16.5 4.70711V4.91886C16.5 4.9726 16.4913 5.02599 16.4743 5.07698L16.0199 6.44025C16.0068 6.47954 15.9848 6.51525 15.9555 6.54454L15.949 6.55096C15.7833 6.71666 15.9007 7 16.135 7C16.3146 7 16.4414 7.1759 16.3846 7.34623L16.0977 8.20684C16.0378 8.38651 16.0846 8.58459 16.2185 8.71851L16.3787 8.87869C16.4573 8.95731 16.5075 9.0599 16.5213 9.17023L16.9787 12.8298C16.9925 12.9401 17.0427 13.0427 17.1213 13.1213L17.8658 13.8658C17.9517 13.9517 18 14.0683 18 14.1898C18 14.3771 17.8859 14.5456 17.712 14.6152L15.7153 15.4139C15.5788 15.4685 15.4732 15.5805 15.4267 15.72L15.0127 16.9618C15.0051 16.9846 14.9838 17 14.9597 17C14.9274 17 14.9018 16.9727 14.904 16.9404L14.9957 15.5639C14.998 15.5293 14.9706 15.5 14.936 15.5C14.9138 15.5 14.8935 15.5122 14.8831 15.5317L14.1278 16.9478C14.1107 16.9799 14.0773 17 14.0408 17C14.0147 17 13.9896 16.9896 13.9711 16.9711L13.6965 16.6965C13.5743 16.5743 13.3977 16.5239 13.2294 16.5631L10.3048 17.2451C10.2482 17.2583 10.1923 17.2207 10.1833 17.1633L10.01 16.0632C10.0042 16.0268 9.97285 16 9.93599 16C9.91324 16 9.89173 16.0103 9.87752 16.0281L9.53506 16.4562C9.51639 16.4795 9.48154 16.4814 9.4605 16.4601L9.13041 16.1269C9.10325 16.0995 9.09429 16.0589 9.1074 16.0226L9.45254 15.0666C9.46423 15.0342 9.44024 15 9.40581 15C9.38776 15 9.37113 15.0098 9.36237 15.0256L8.72619 16.1717C8.7054 16.2092 8.71079 16.2557 8.73959 16.2874L9.60904 17.2452C9.66039 17.3017 9.63192 17.3926 9.55749 17.4098L7.04981 17.9885C7.01671 17.9961 6.98285 18 6.94888 18H6.70943C6.59377 18 6.5 17.9062 6.5 17.7906C6.5 17.6476 6.35995 17.5467 6.22434 17.5919L5.07698 17.9743C5.02599 17.9913 4.9726 18 4.91886 18H4.39039C4.16095 18 3.96096 17.8439 3.90532 17.6213L3.53706 16.1482C3.5129 16.0516 3.46045 15.9644 3.38641 15.8978Z" fill="#fff"/><m:metadata><m:parameters><m:parameter m:name="color-1" m:type="color" m:value="#19A45C"/><m:parameter m:name="color-2" m:type="color" m:value="#FFFFFF"/></m:parameters></m:metadata></svg>