<svg id="ca-newfoundland-4" xmlns="http://www.w3.org/2000/svg" width="29" height="24" viewBox="0 0 29 24" xmlns:m="https://www.mapbox.com"><rect id="container" width="29" height="24" fill="none"/><path id="stroke" d="M26 1H3C1.89543 1 1 1.89543 1 3V16C1 17.1046 1.89543 18 3 18H26C27.1046 18 28 17.1046 28 16V3C28 1.89543 27.1046 1 26 1Z" fill="none" stroke="#fff" stroke-width="2"/><path id="body" d="M26 1H3C1.89543 1 1 1.89543 1 3V16C1 17.1046 1.89543 18 3 18H26C27.1046 18 28 17.1046 28 16V3C28 1.89543 27.1046 1 26 1Z" fill="#19A45C"/><path id="banner" d="M27 7C27 6.44772 26.5523 6 26 6H3C2.44772 6 2 6.44772 2 7V16C2 16.5523 2.44772 17 3 17H26C26.5523 17 27 16.5523 27 16V7Z" fill="#fff"/><m:metadata><m:parameters><m:parameter m:name="color-1" m:type="color" m:value="#19A45C"/><m:parameter m:name="color-2" m:type="color" m:value="#FFFFFF"/></m:parameters></m:metadata></svg>