<svg id="ca-newfoundland-3" xmlns="http://www.w3.org/2000/svg" width="25" height="24" viewBox="0 0 25 24" xmlns:m="https://www.mapbox.com"><rect id="container" width="25" height="24" fill="none"/><path id="stroke" d="M22 1H3C1.89543 1 1 1.89543 1 3V16C1 17.1046 1.89543 18 3 18H22C23.1046 18 24 17.1046 24 16V3C24 1.89543 23.1046 1 22 1Z" fill="none" stroke="#fff" stroke-width="2"/><path id="body" d="M22 1H3C1.89543 1 1 1.89543 1 3V16C1 17.1046 1.89543 18 3 18H22C23.1046 18 24 17.1046 24 16V3C24 1.89543 23.1046 1 22 1Z" fill="#19A45C"/><path id="banner" d="M23 7C23 6.44772 22.5523 6 22 6H3C2.44772 6 2 6.44772 2 7V16C2 16.5523 2.44772 17 3 17H22C22.5523 17 23 16.5523 23 16V7Z" fill="#fff"/><m:metadata><m:parameters><m:parameter m:name="color-1" m:type="color" m:value="#19A45C"/><m:parameter m:name="color-2" m:type="color" m:value="#FFFFFF"/></m:parameters></m:metadata></svg>