<svg id="ca-northwest-2" xmlns="http://www.w3.org/2000/svg" width="21" height="42" viewBox="0 0 21 42" xmlns:m="https://www.mapbox.com"><rect id="container" width="21" height="42" fill="none"/><path id="stroke" d="M18 1H3C1.89543 1 1 1.97474 1 3.17713V24.8229C1 26.0253 1.89543 27 3 27H18C19.1046 27 20 26.0253 20 24.8229V3.17713C20 1.97474 19.1046 1 18 1Z" fill="none" stroke="#fff" stroke-width="2"/><path id="body" d="M18 1H3C1.89543 1 1 1.97474 1 3.17713V24.8229C1 26.0253 1.89543 27 3 27H18C19.1046 27 20 26.0253 20 24.8229V3.17713C20 1.97474 19.1046 1 18 1Z" fill="#475DCD"/><path id="bear" d="M4.51253 9.93453L4.65991 9.16548C4.67761 9.07316 4.70823 8.98379 4.75087 8.90002L4.89668 8.61361C4.96822 8.47308 5.00551 8.31763 5.00551 8.15993V7.84543C5.00551 7.75251 5.01846 7.66005 5.04399 7.57071L5.07103 7.47608C5.1149 7.32254 5.12136 7.16073 5.08987 7.00418L5.04382 6.77523L4.94645 6.08671C4.93686 6.01895 4.93426 5.95039 4.93868 5.8821L4.95426 5.64137C4.96829 5.42456 5.05693 5.21927 5.20513 5.06039C5.27315 4.98746 5.32915 4.90419 5.37102 4.81367L5.63789 4.2368C5.69478 4.11383 5.77529 4.00279 5.87903 3.91563C6.65072 3.2673 7.38876 3 8.5 3H9.5C10.1965 3 10.8947 3.30171 11.2542 3.48484C11.4201 3.56932 11.6019 3.62189 11.7881 3.62189H13.8769C13.9955 3.62189 14.1131 3.64297 14.2243 3.68414L14.8461 3.91445C14.8703 3.92341 14.8959 3.92799 14.9216 3.92799C14.9826 3.92799 15.0408 3.9024 15.082 3.85745L15.0847 3.85453C15.1276 3.80772 15.1882 3.78107 15.2517 3.78107H15.2971C15.3467 3.78107 15.3956 3.79224 15.4403 3.81377L15.8805 4.02595L16.1707 4.14716C16.2983 4.20046 16.4135 4.27963 16.5089 4.37968L16.6935 4.5732C16.7265 4.60781 16.7675 4.63381 16.8128 4.64894C16.852 4.662 16.8936 4.66663 16.9347 4.66252L17.3008 4.6259C17.4108 4.6259 17.5 4.71507 17.5 4.82506V4.89043C17.5 4.96059 17.4721 5.02787 17.4225 5.07748L17.1408 5.35916C17.0479 5.45214 16.9375 5.52587 16.816 5.57613L15.9548 5.93234C15.8725 5.96639 15.7958 6.01271 15.7274 6.06972C15.5798 6.19267 15.3962 6.26407 15.2044 6.27307L12.796 6.38611C12.6303 6.39388 12.5 6.53045 12.5 6.69628C12.5 6.73597 12.5076 6.77529 12.5224 6.81211L12.9177 7.79523C12.9714 7.92875 13.0633 8.0434 13.1821 8.12475L13.3395 8.23261C13.4394 8.30105 13.4991 8.41435 13.4991 8.53544C13.4991 8.64196 13.4528 8.74323 13.3723 8.81296L13.3103 8.86664C13.2109 8.95266 13.0839 9 12.9525 9H12.0147C11.9243 9 11.8356 8.97607 11.7575 8.93065L11.7024 8.89861C11.5791 8.82688 11.5033 8.695 11.5033 8.55235C11.5033 8.46736 11.4763 8.38457 11.4261 8.31596L10.8485 7.52581C10.7791 7.43083 10.6685 7.37469 10.5509 7.37469C10.4138 7.37469 10.288 7.45076 10.2243 7.57218L10.0932 7.82223C10.0332 7.93662 10.0181 8.06925 10.0506 8.19422C10.0998 8.38264 10.2502 8.52771 10.4403 8.56995L10.5472 8.59369C10.7033 8.62838 10.838 8.72617 10.9195 8.86382L10.9327 8.88629C10.9768 8.96073 11 9.04563 11 9.13211C11 9.30264 10.9101 9.46052 10.7634 9.54748L10.2358 9.86021C10.0814 9.95172 9.90531 10 9.72587 10H9.31156C9.10866 10 8.91057 9.93828 8.74357 9.82303L8.44683 9.61825C8.24955 9.4821 8.10773 9.27961 8.04721 9.04766L7.87076 8.37134C7.82875 8.21032 7.72975 8.07001 7.59213 7.97645L7.29827 7.77667C7.23532 7.73388 7.15232 7.7351 7.09066 7.77972C7.04368 7.81371 7.01586 7.86818 7.01586 7.92617V8.19911C7.01586 8.34398 6.97186 8.48544 6.88969 8.60475L6.68006 8.90914C6.6077 9.01422 6.56895 9.1388 6.56895 9.26639L6.5319 10.1978C6.51408 10.6459 6.14564 11 5.6972 11C5.56752 11 5.43961 10.9698 5.32362 10.9118L4.8877 10.6939C4.65009 10.575 4.5 10.3322 4.5 10.0665C4.5 10.0222 4.5042 9.97804 4.51253 9.93453Z M20 13H1V15H20V13Z" fill="#fff"/><m:metadata><m:parameters><m:parameter m:name="color-1" m:type="color" m:value="#475DCD"/><m:parameter m:name="color-2" m:type="color" m:value="#FFFFFF"/></m:parameters></m:metadata></svg>