<svg id="ca-ontario-country-3" xmlns="http://www.w3.org/2000/svg" width="27" height="17" viewBox="0 0 27 17" xmlns:m="https://www.mapbox.com"><rect id="container" width="27" height="17" fill="none"/><path id="stroke" d="M1.47848 3.39223C1.23097 2.15465 2.17755 1 3.43964 1H23.5604C24.8225 1 25.7691 2.15465 25.5216 3.39223L23.3216 14.3922C23.1346 15.3271 22.3138 16 21.3604 16H5.63964C4.68628 16 3.86545 15.3271 3.67848 14.3922L1.47848 3.39223Z" fill="none" stroke="#fff" stroke-width="2"/><path id="body" d="M1.47848 3.39223C1.23097 2.15465 2.17755 1 3.43964 1H23.5604C24.8225 1 25.7691 2.15465 25.5216 3.39223L23.3216 14.3922C23.1346 15.3271 22.3138 16 21.3604 16H5.63964C4.68628 16 3.86545 15.3271 3.67848 14.3922L1.47848 3.39223Z" fill="#1B1D27"/><path id="banner" d="M3.43955 2C2.8085 2 2.33521 2.57732 2.45897 3.19612L4.65897 14.1961C4.75245 14.6635 5.16287 15 5.63955 15H21.3603C21.837 15 22.2474 14.6635 22.3409 14.1961L24.5409 3.19612C24.6647 2.57732 24.1914 2 23.5603 2H3.43955Z" fill="#fff"/><m:metadata><m:parameters><m:parameter m:name="color-1" m:type="color" m:value="#1B1D27"/><m:parameter m:name="color-2" m:type="color" m:value="#FFFFFF"/></m:parameters></m:metadata></svg>