<svg id="ca-ontario-alt-4" xmlns="http://www.w3.org/2000/svg" width="32" height="34" viewBox="0 0 32 34" xmlns:m="https://www.mapbox.com"><rect id="container" width="32" height="34" fill="none"/><path id="stroke" d="M1.40755 21.6573C1.19482 22.8805 2.13639 24 3.37797 24H28.6223C29.8639 24 30.8054 22.8805 30.5927 21.6573L27.2884 2.65732C27.1218 1.69934 26.2903 1 25.3179 1H6.68232C5.70997 1 4.8785 1.69934 4.7119 2.65732L1.40755 21.6573Z" fill="none" stroke="#fff" stroke-width="2"/><path id="body" d="M1.40755 21.6573C1.19482 22.8805 2.13639 24 3.37797 24H28.6223C29.8639 24 30.8054 22.8805 30.5927 21.6573L27.2884 2.65732C27.1218 1.69934 26.2903 1 25.3179 1H6.68232C5.70997 1 4.8785 1.69934 4.7119 2.65732L1.40755 21.6573Z" fill="#1B1D27"/><path id="banner" d="M16.2498 6.59997C16.2498 6.54474 16.2946 6.49997 16.3498 6.49997H16.8998C16.9551 6.49997 16.9998 6.54474 16.9998 6.59997V7.39997C16.9998 7.4552 16.9551 7.49997 16.8998 7.49997H16.3498C16.2946 7.49997 16.2498 7.4552 16.2498 7.39997V6.59997Z M15.7498 6.59997C15.7498 6.54474 15.7051 6.49997 15.6498 6.49997H15.0998C15.0446 6.49997 14.9998 6.54474 14.9998 6.59997V7.39997C14.9998 7.4552 15.0446 7.49997 15.0998 7.49997H15.6498C15.7051 7.49997 15.7498 7.4552 15.7498 7.39997V6.59997Z M16.3499 8.1V8.5H16.8998C16.9551 8.5 16.9999 8.54478 16.9998 8.60001L16.9998 8.67691C16.9998 8.7101 16.9834 8.74112 16.9559 8.75972L16.5059 9.06433C16.4395 9.10928 16.3499 9.06171 16.3499 8.98151L16.3499 8.5H15.6499L15.6499 8.98153C15.6499 9.06172 15.5602 9.10929 15.4938 9.06434L15.0438 8.75972C15.0163 8.74112 14.9999 8.71009 14.9999 8.67691V8.6C14.9999 8.54477 15.0446 8.5 15.0999 8.5H15.6499V8.1C15.6499 8.04477 15.6947 8 15.7499 8H16.2499C16.3051 8 16.3499 8.04477 16.3499 8.1Z M5.69686 2.82866C5.78016 2.34967 6.19589 2 6.68207 2H25.3177C25.8039 2 26.2196 2.34967 26.3029 2.82866L29.6072 21.8287C29.7136 22.4403 29.2428 23 28.622 23H3.37771C2.75692 23 2.28613 22.4403 2.3925 21.8287L5.69686 2.82866ZM12.9999 4.1C12.9999 4.04477 12.9551 4 12.8999 4H12.0999C12.0446 4 11.9999 4.04477 11.9999 4.1V4.44682C11.9999 4.48007 12.0164 4.51114 12.044 4.52973L12.6535 4.94073C12.7012 4.97289 12.712 5.03856 12.6771 5.08429L12.3805 5.47314C12.3672 5.49056 12.36 5.51187 12.36 5.53379V5.97989C12.36 5.99316 12.3574 6.00631 12.3523 6.01855L12.0077 6.84069C12.0025 6.85293 11.9999 6.86607 11.9999 6.87935V7.31408C11.9999 7.34279 12.0122 7.37011 12.0338 7.3891L12.4322 7.74031C12.4706 7.77422 12.4772 7.83173 12.4474 7.87345L12.0185 8.47392C12.0064 8.49088 11.9999 8.5112 11.9999 8.53205V9.44823C11.9999 9.47682 12.0231 9.5 12.0516 9.5C12.0788 9.5 12.1014 9.47899 12.1033 9.45189L12.1546 8.72855C12.1561 8.70751 12.1642 8.68748 12.1777 8.67132L12.6532 8.10515C12.6832 8.0694 12.7415 8.09063 12.7415 8.1373V8.38085C12.7415 8.39906 12.7464 8.41692 12.7558 8.43251L13.3805 9.46786C13.3925 9.48781 13.4141 9.5 13.4374 9.5C13.488 9.5 13.5201 9.44578 13.4957 9.40146L13.0186 8.53398C13.0065 8.51212 13.0031 8.48656 13.009 8.46231L13.2283 7.55453C13.2365 7.52066 13.2264 7.48498 13.2018 7.46034L12.7931 7.05169C12.7624 7.02091 12.755 6.97374 12.775 6.93507L12.922 6.65075C12.9569 6.58306 13.0517 6.5778 13.094 6.64119L13.979 7.96869C13.992 7.98825 14.014 8 14.0375 8C14.0876 8 14.1216 7.9491 14.1025 7.90281L13.545 6.55582C13.5216 6.49934 13.5539 6.43529 13.6132 6.42053L14.3757 6.23086C14.4388 6.21516 14.4998 6.26289 14.4998 6.3279V8.94646C14.4998 8.97989 14.5165 9.01111 14.5444 9.02966L15.9444 9.96299C15.978 9.98539 16.0217 9.98539 16.0553 9.96299L17.4553 9.02966C17.4831 9.01111 17.4998 8.97989 17.4998 8.94646V6.33406C17.4998 6.26717 17.5642 6.21914 17.6284 6.23822L18.2341 6.41847C18.2868 6.43416 18.317 6.4895 18.3016 6.54232L17.8998 7.91923C17.888 7.95961 17.9183 8.00001 17.9604 8.00001C17.9845 8.00001 18.0065 7.98624 18.0171 7.96454L18.5818 6.80561C18.6105 6.74667 18.6872 6.73085 18.7369 6.77364L18.9408 6.94918C18.9755 6.97906 18.9855 7.02871 18.965 7.06968L18.5321 7.93554C18.5128 7.97404 18.5204 8.02054 18.5508 8.05097L18.9467 8.44691C18.9782 8.47836 18.9851 8.52682 18.9637 8.56581L18.5054 9.3991C18.4804 9.44448 18.5132 9.50001 18.565 9.50001C18.5869 9.50001 18.6075 9.48949 18.6203 9.47174L19.288 8.54584C19.3085 8.5174 19.3126 8.48029 19.2988 8.44804L19.1669 8.13931C19.1387 8.07333 19.1871 8.00001 19.2588 8.00001H19.2732C19.3035 8.00001 19.3321 8.0137 19.3511 8.03725L19.7079 8.47995C19.7185 8.4931 19.7256 8.50874 19.7285 8.52538L19.892 9.45508C19.8965 9.48106 19.9191 9.50001 19.9455 9.50001C19.9755 9.50001 19.9998 9.47568 19.9998 9.44566V8.54143C19.9998 8.5149 19.9893 8.48947 19.9706 8.47072L19.5706 8.07072C19.5315 8.03166 19.5315 7.96835 19.5705 7.9293L19.9706 7.52929C19.9893 7.51054 19.9998 7.48511 19.9998 7.45858V7.03292C19.9998 7.01154 19.993 6.99073 19.9803 6.97353L19.2892 6.03738C19.2717 6.01368 19.2655 5.98347 19.2724 5.95481L19.4915 5.03488C19.4969 5.01233 19.5099 4.99235 19.5284 4.97835L19.9602 4.6511C19.9852 4.6322 19.9998 4.60271 19.9998 4.5714V4.10001C19.9998 4.04478 19.9551 4.00001 19.8998 4.00001H19.2413C19.1522 4.00001 19.1076 4.10772 19.1706 4.17072L19.4291 4.4293C19.4682 4.46835 19.4682 4.53166 19.4291 4.57072L19.4181 4.58173C19.3767 4.62313 19.3088 4.62027 19.271 4.57554L18.815 4.03551C18.796 4.01299 18.768 4 18.7386 4H18.0998C18.0446 4 17.9998 4.04477 17.9998 4.1V4.1565C17.9998 4.19044 18.0171 4.22206 18.0456 4.24049L18.6243 4.61456C18.6701 4.64419 18.6837 4.70513 18.6548 4.75146L18.5292 4.95292C18.5109 4.98221 18.4789 5.00001 18.4444 5.00001H18.0998C18.0446 5.00001 17.9998 5.04478 17.9998 5.10001V5.2323C17.9998 5.27319 18.0247 5.30996 18.0627 5.32514L18.4539 5.48162C18.4828 5.4932 18.5047 5.51765 18.5131 5.54772L18.6034 5.87318C18.6211 5.93689 18.5732 5.99992 18.5071 5.99992L13.5504 5.99995C13.5186 5.99995 13.4887 5.98483 13.4699 5.95922L13.2222 5.62254C13.1795 5.56462 13.2102 5.48199 13.2802 5.46584L13.9223 5.31787C13.9677 5.30741 13.9999 5.267 13.9999 5.22042V5.1C13.9999 5.04477 13.9551 5 13.8999 5H13.7413C13.6522 5 13.6076 4.89229 13.6706 4.82929L13.9706 4.52929C13.9893 4.51054 13.9999 4.4851 13.9999 4.45858V4.1C13.9999 4.04477 13.9551 4 13.8999 4H13.5413C13.5148 4 13.4893 4.01054 13.4706 4.02929L13.1706 4.32929C13.1076 4.39229 12.9999 4.34767 12.9999 4.25858V4.1ZM15.4287 5.01935C15.4896 5.00923 15.545 5.05622 15.545 5.11799V5.40002C15.545 5.45525 15.5898 5.50002 15.645 5.50002H15.7018C15.757 5.50002 15.8018 5.45525 15.8018 5.40002V5.10001C15.8018 5.04479 15.8465 5.00002 15.9018 5.00001L16.311 5C16.3793 5 16.4275 5.06697 16.4059 5.13175L16.3267 5.36827C16.305 5.43305 16.3532 5.50002 16.4215 5.50002H16.4249C16.4659 5.50002 16.5028 5.47493 16.5179 5.43674L16.6653 5.06329C16.6804 5.0251 16.7173 5.00001 16.7583 5.00001L16.8273 5.00001C16.8758 5.00002 16.9173 5.03479 16.9257 5.08253L16.9852 5.4175C16.9937 5.46524 17.0352 5.50002 17.0837 5.50002H17.1041C17.1544 5.50002 17.1968 5.46264 17.2032 5.41274L17.284 4.78305C17.2872 4.75831 17.281 4.73328 17.2667 4.71287L17.0127 4.35104C17.0043 4.33906 16.9933 4.32907 16.9806 4.32178L16.6435 4.12816C16.6284 4.11946 16.6112 4.11487 16.5937 4.11487L15.2183 4.11481C15.1959 4.11481 15.1778 4.09668 15.1778 4.07432C15.1778 4.04226 15.1423 4.02291 15.1154 4.0403L15.0245 4.09895C15.0084 4.10932 14.9897 4.11483 14.9706 4.11483H14.7312C14.6831 4.11483 14.644 4.15387 14.644 4.20203C14.644 4.22947 14.657 4.25532 14.6789 4.27178L15.1454 4.62167C15.2022 4.66422 15.1978 4.75066 15.1371 4.78729L14.8484 4.96149C14.8105 4.98435 14.7921 5.02938 14.8032 5.07221L14.8617 5.29769C14.8704 5.33141 14.9009 5.35496 14.9357 5.35496C14.9779 5.35496 15.0122 5.32073 15.0122 5.27849V5.17327C15.0122 5.12437 15.0475 5.08264 15.0958 5.07462L15.4287 5.01935ZM12.0999 10C12.0446 10 11.9999 10.0448 11.9999 10.1V10.4C11.9999 10.4552 12.0446 10.5 12.0999 10.5H14.3999C14.4551 10.5 14.4999 10.5448 14.4999 10.6V10.9586C14.4999 10.9851 14.5104 11.0105 14.5292 11.0293L14.9706 11.4707C14.9893 11.4895 15.0148 11.5 15.0413 11.5H16.9585C16.985 11.5 17.0104 11.4895 17.0292 11.4707L17.4706 11.0293C17.4893 11.0105 17.4999 10.9851 17.4999 10.9586V10.6C17.4999 10.5448 17.5446 10.5 17.5999 10.5H19.8999C19.9551 10.5 19.9999 10.4552 19.9999 10.4V10.1C19.9999 10.0448 19.9551 10 19.8999 10H17.5413C17.5148 10 17.4893 10.0105 17.4706 10.0293L17.0292 10.4707C17.0104 10.4895 16.9999 10.5149 16.9999 10.5414V10.9C16.9999 10.9552 16.9551 11 16.8999 11H15.0999C15.0446 11 14.9999 10.9552 14.9999 10.9V10.5414C14.9999 10.5149 14.9893 10.4895 14.9706 10.4707L14.5292 10.0293C14.5104 10.0105 14.485 10 14.4585 10H12.0999Z" fill="#fff"/><m:metadata><m:parameters><m:parameter m:name="color-1" m:type="color" m:value="#1B1D27"/><m:parameter m:name="color-2" m:type="color" m:value="#FFFFFF"/></m:parameters></m:metadata></svg>