<svg id="ca-ontario-3" xmlns="http://www.w3.org/2000/svg" width="24" height="37" viewBox="0 0 24 37" xmlns:m="https://www.mapbox.com"><rect id="container" width="24" height="37" fill="none"/><path id="stroke" d="M6.10557 5.32918C5.428 5.66796 5 6.36049 5 7.11803V7.35994C5 7.54578 5.0259 7.7307 5.07695 7.90939L5.95998 11H3C1.89543 11 1 11.8954 1 13V17.6874C1 21.5953 3.27633 25.145 6.82778 26.7755L11.1656 28.7669C11.6953 29.0101 12.3048 29.0101 12.8345 28.7669L17.1723 26.7755C20.7237 25.145 23.0001 21.5952 23.0001 17.6874V13C23.0001 11.8954 22.1046 11 21.0001 11H18.04L18.923 7.90939C18.9741 7.73071 19 7.54578 19 7.35995V7.11803C19 6.36049 18.572 5.66796 17.8944 5.32918L15.0553 3.90961C15.0214 3.89267 15 3.85804 15 3.82016V3C15 1.89543 14.1046 1 13 1H11C9.89543 1 9 1.89543 9 3V3.82016C9 3.85804 8.9786 3.89267 8.94472 3.90961L6.10557 5.32918Z" fill="none" stroke="#fff" stroke-width="2"/><path id="body" d="M6.10557 5.32918C5.428 5.66796 5 6.36049 5 7.11803V7.35994C5 7.54578 5.0259 7.7307 5.07695 7.90939L5.95998 11H3C1.89543 11 1 11.8954 1 13V17.6874C1 21.5953 3.27633 25.145 6.82778 26.7755L11.1656 28.7669C11.6953 29.0101 12.3048 29.0101 12.8345 28.7669L17.1723 26.7755C20.7237 25.145 23.0001 21.5952 23.0001 17.6874V13C23.0001 11.8954 22.1046 11 21.0001 11H18.04L18.923 7.90939C18.9741 7.73071 19 7.54578 19 7.35995V7.11803C19 6.36049 18.572 5.66796 17.8944 5.32918L15.0553 3.90961C15.0214 3.89267 15 3.85804 15 3.82016V3C15 1.89543 14.1046 1 13 1H11C9.89543 1 9 1.89543 9 3V3.82016C9 3.85804 8.9786 3.89267 8.94472 3.90961L6.10557 5.32918Z" fill="#1B1D27"/><path id="banner" d="M11.7501 7.48543V7.99012C11.2187 7.94916 10.7113 7.78895 10.3809 7.6627C10.1263 7.56537 9.85812 7.5 9.58547 7.5C8.97651 7.5 8.41539 7.81496 8.09663 8.32468L8.04678 8.1253C7.84039 7.29973 8.4648 6.5 9.31578 6.5C9.66326 6.5 10.003 6.60285 10.2921 6.7956L10.8067 7.13868C11.0903 7.32777 11.4138 7.44609 11.7501 7.48543Z M13.6192 7.6627C13.2889 7.78895 12.7814 7.94915 12.2501 7.99012V7.48543C12.5863 7.44609 12.9098 7.32777 13.1934 7.13868L13.7081 6.7956C13.9972 6.60285 14.3369 6.5 14.6844 6.5C15.5353 6.5 16.1597 7.29973 15.9534 8.1253L15.9035 8.3247C15.5847 7.81497 15.0236 7.5 14.4147 7.5C14.142 7.5 13.8739 7.56537 13.6192 7.6627Z M8.39046 9.5H15.6097L15.5449 9.7593C15.5151 9.87828 15.5001 10.0005 15.5001 10.1231V10.5H8.50007V10.1231C8.50007 10.0005 8.48503 9.87828 8.45528 9.7593L8.39046 9.5ZM14.2501 9.75C14.112 9.75 14.0001 9.86193 14.0001 10C14.0001 10.1381 14.112 10.25 14.2501 10.25H14.7501C14.8881 10.25 15.0001 10.1381 15.0001 10C15.0001 9.86193 14.8881 9.75 14.7501 9.75H14.2501ZM9.00007 10C9.00007 10.1381 9.112 10.25 9.25007 10.25H9.75007C9.88814 10.25 10.0001 10.1381 10.0001 10C10.0001 9.86193 9.88814 9.75 9.75007 9.75H9.25007C9.112 9.75 9.00007 9.86193 9.00007 10ZM12.5001 10.25V9.75H11.5001V10.25H12.5001Z M8.50007 11V11.5H15.5001V11H8.50007Z M14.1119 8.5C14.0501 8.5 14.0001 8.55006 14.0001 8.6118V8.86024C14.0001 8.90719 14.0589 8.92825 14.0887 8.89195L14.1728 8.78953C14.2128 8.74077 14.2874 8.74077 14.3274 8.78953L14.4614 8.95289C14.4814 8.97727 14.5187 8.97727 14.5387 8.95289L14.6728 8.78953C14.7128 8.74077 14.7874 8.74077 14.8274 8.78953L14.9114 8.89195C14.9412 8.92825 15.0001 8.90719 15.0001 8.86024V8.6118C15.0001 8.55006 14.95 8.5 14.8883 8.5C14.8036 8.5 14.7261 8.45215 14.6883 8.37639L14.5448 8.08944C14.5264 8.05259 14.4738 8.05259 14.4553 8.08944L14.3119 8.37639C14.274 8.45215 14.1966 8.5 14.1119 8.5Z M9.00006 8.6118C9.00006 8.55006 9.05012 8.5 9.11186 8.5C9.19656 8.5 9.27399 8.45215 9.31186 8.37639L9.45534 8.08944C9.47377 8.05259 9.52636 8.05259 9.54478 8.08944L9.68826 8.37639C9.72613 8.45215 9.80356 8.5 9.88826 8.5C9.95001 8.5 10.0001 8.55006 10.0001 8.6118V8.86024C10.0001 8.90719 9.94119 8.92825 9.91141 8.89195L9.82737 8.78953C9.78736 8.74077 9.71276 8.74077 9.67275 8.78953L9.53871 8.95289C9.51871 8.97727 9.48141 8.97727 9.46141 8.95289L9.32737 8.78953C9.28736 8.74077 9.21276 8.74077 9.17275 8.78953L9.08871 8.89195C9.05893 8.92825 9.00006 8.90719 9.00006 8.86024V8.6118Z M6.03848 7.63467C6.01295 7.54532 6 7.45286 6 7.35995V7.11803C6 6.73926 6.214 6.393 6.55279 6.22361L9.72361 4.6382C9.893 4.5535 10 4.38037 10 4.19098V3C10 2.44772 10.4477 2 11 2H13C13.5523 2 14 2.44772 14 3V4.19098C14 4.38037 14.107 4.5535 14.2764 4.6382L17.4472 6.22361C17.786 6.393 18 6.73926 18 7.11803V7.35995C18 7.45286 17.9871 7.54532 17.9615 7.63467L17.077 10.7307C17.0259 10.9094 17 11.0943 17 11.2801V12H21.0001C21.5524 12 22.0001 12.4477 22.0001 13V17.6807C22.0001 21.2223 19.923 24.4347 16.6934 25.888L12.4104 27.8153C12.1494 27.9328 11.8506 27.9328 11.5897 27.8153L7.30673 25.888C4.07707 24.4347 2 21.2223 2 17.6807V13C2 12.4477 2.44772 12 3 12H7V11.2801C7 11.0943 6.9741 10.9094 6.92305 10.7307L6.03848 7.63467ZM12.2237 3.55269L12.5001 3H11.5001L11.7764 3.55269C11.6799 3.60106 11.6011 3.67978 11.5528 3.77634L11.0001 3.5V4.5L11.5528 4.22366C11.6011 4.32022 11.6799 4.39894 11.7764 4.44731L11.5001 5H11.7501V5.5315C11.3188 5.64252 11.0001 6.03404 11.0001 6.5C11.0001 6.56043 11.0054 6.61961 11.0157 6.67709L10.5694 6.37958C10.1982 6.13207 9.76197 6 9.31578 6C8.13951 6 7.27642 7.10542 7.56171 8.24657L7.97021 9.88057C7.99004 9.95989 8.00007 10.0413 8.00007 10.1231V11.5C8.00007 11.7761 8.22393 12 8.50007 12H15.5001C15.7762 12 16.0001 11.7761 16.0001 11.5V10.1231C16.0001 10.0413 16.0101 9.95989 16.0299 9.88057L16.4384 8.24657C16.7237 7.10542 15.8606 6 14.6844 6C14.2382 6 13.802 6.13207 13.4307 6.37958L12.9844 6.67709C12.9947 6.61961 13.0001 6.56043 13.0001 6.5C13.0001 6.03404 12.6814 5.64252 12.2501 5.5315V5H12.5001L12.2237 4.44731C12.3203 4.39894 12.399 4.32022 12.4474 4.22366L13.0001 4.5V3.5L12.4474 3.77634C12.399 3.67978 12.3203 3.60106 12.2237 3.55269Z" fill="#fff"/><m:metadata><m:parameters><m:parameter m:name="color-1" m:type="color" m:value="#1B1D27"/><m:parameter m:name="color-2" m:type="color" m:value="#FFFFFF"/></m:parameters></m:metadata></svg>