<svg id="ca-ontario-alt-3" xmlns="http://www.w3.org/2000/svg" width="28" height="34" viewBox="0 0 28 34" xmlns:m="https://www.mapbox.com"><rect id="container" width="28" height="34" fill="none"/><path id="stroke" d="M1.40755 21.6573C1.19482 22.8805 2.13639 24 3.37797 24H24.6223C25.8639 24 26.8054 22.8805 26.5927 21.6573L23.2884 2.65732C23.1218 1.69934 22.2903 1 21.3179 1H6.68232C5.70997 1 4.8785 1.69934 4.7119 2.65732L1.40755 21.6573Z" fill="none" stroke="#fff" stroke-width="2"/><path id="body" d="M1.40755 21.6573C1.19482 22.8805 2.13639 24 3.37797 24H24.6223C25.8639 24 26.8054 22.8805 26.5927 21.6573L23.2884 2.65732C23.1218 1.69934 22.2903 1 21.3179 1H6.68232C5.70997 1 4.8785 1.69934 4.7119 2.65732L1.40755 21.6573Z" fill="#1B1D27"/><path id="banner" d="M14.2498 6.59997C14.2498 6.54474 14.2946 6.49997 14.3498 6.49997H14.8998C14.9551 6.49997 14.9998 6.54474 14.9998 6.59997V7.39997C14.9998 7.4552 14.9551 7.49997 14.8998 7.49997H14.3498C14.2946 7.49997 14.2498 7.4552 14.2498 7.39997V6.59997Z M13.7498 6.59997C13.7498 6.54474 13.7051 6.49997 13.6498 6.49997H13.0998C13.0446 6.49997 12.9998 6.54474 12.9998 6.59997V7.39997C12.9998 7.4552 13.0446 7.49997 13.0998 7.49997H13.6498C13.7051 7.49997 13.7498 7.4552 13.7498 7.39997V6.59997Z M14.3499 8.1V8.5H14.8998C14.9551 8.5 14.9999 8.54478 14.9998 8.60001L14.9998 8.67691C14.9998 8.7101 14.9834 8.74112 14.9559 8.75972L14.5059 9.06433C14.4395 9.10928 14.3499 9.06171 14.3499 8.98151L14.3499 8.5H13.6499L13.6499 8.98153C13.6499 9.06172 13.5602 9.10929 13.4938 9.06434L13.0438 8.75972C13.0163 8.74112 12.9999 8.71009 12.9999 8.67691V8.6C12.9999 8.54477 13.0446 8.5 13.0999 8.5H13.6499V8.1C13.6499 8.04477 13.6947 8 13.7499 8H14.2499C14.3051 8 14.3499 8.04477 14.3499 8.1Z M5.69686 2.82866C5.78016 2.34967 6.19589 2 6.68207 2H21.3177C21.8039 2 22.2196 2.34967 22.3029 2.82866L25.6072 21.8287C25.7136 22.4403 25.2428 23 24.622 23H3.37771C2.75692 23 2.28613 22.4403 2.3925 21.8287L5.69686 2.82866ZM10.9999 4.1C10.9999 4.04477 10.9551 4 10.8999 4H10.0999C10.0446 4 9.99988 4.04477 9.99988 4.1V4.44682C9.99988 4.48007 10.0164 4.51114 10.044 4.52973L10.6535 4.94073C10.7012 4.97289 10.712 5.03856 10.6771 5.08429L10.3805 5.47314C10.3672 5.49056 10.36 5.51187 10.36 5.53379V5.97989C10.36 5.99316 10.3574 6.00631 10.3523 6.01855L10.0077 6.84069C10.0025 6.85293 9.99988 6.86607 9.99988 6.87935V7.31408C9.99988 7.34279 10.0122 7.37011 10.0338 7.3891L10.4322 7.74031C10.4706 7.77422 10.4772 7.83173 10.4474 7.87345L10.0185 8.47392C10.0064 8.49088 9.99988 8.5112 9.99988 8.53205V9.44823C9.99988 9.47682 10.0231 9.5 10.0516 9.5C10.0788 9.5 10.1014 9.47899 10.1033 9.45189L10.1546 8.72855C10.1561 8.70751 10.1642 8.68748 10.1777 8.67132L10.6532 8.10515C10.6832 8.0694 10.7415 8.09063 10.7415 8.1373V8.38085C10.7415 8.39906 10.7464 8.41692 10.7558 8.43251L11.3805 9.46786C11.3925 9.48781 11.4141 9.5 11.4374 9.5C11.488 9.5 11.5201 9.44578 11.4957 9.40146L11.0186 8.53398C11.0065 8.51212 11.0031 8.48656 11.009 8.46231L11.2283 7.55453C11.2365 7.52066 11.2264 7.48498 11.2018 7.46034L10.7931 7.05169C10.7624 7.02091 10.755 6.97374 10.775 6.93507L10.922 6.65075C10.9569 6.58306 11.0517 6.5778 11.094 6.64119L11.979 7.96869C11.992 7.98825 12.014 8 12.0375 8C12.0876 8 12.1216 7.9491 12.1025 7.90281L11.545 6.55582C11.5216 6.49934 11.5539 6.43529 11.6132 6.42053L12.3757 6.23086C12.4388 6.21516 12.4998 6.26289 12.4998 6.3279V8.94646C12.4998 8.97989 12.5165 9.01111 12.5444 9.02966L13.9444 9.96299C13.978 9.98539 14.0217 9.98539 14.0553 9.96299L15.4553 9.02966C15.4831 9.01111 15.4998 8.97989 15.4998 8.94646V6.33406C15.4998 6.26717 15.5642 6.21914 15.6284 6.23822L16.2341 6.41847C16.2868 6.43416 16.317 6.4895 16.3016 6.54232L15.8998 7.91923C15.888 7.95961 15.9183 8.00001 15.9604 8.00001C15.9845 8.00001 16.0065 7.98624 16.0171 7.96454L16.5818 6.80561C16.6105 6.74667 16.6872 6.73085 16.7369 6.77364L16.9408 6.94918C16.9755 6.97906 16.9855 7.02871 16.965 7.06968L16.5321 7.93554C16.5128 7.97404 16.5204 8.02054 16.5508 8.05097L16.9467 8.44691C16.9782 8.47836 16.9851 8.52682 16.9637 8.56581L16.5054 9.3991C16.4804 9.44448 16.5132 9.50001 16.565 9.50001C16.5869 9.50001 16.6075 9.48949 16.6203 9.47174L17.288 8.54584C17.3085 8.5174 17.3126 8.48029 17.2988 8.44804L17.1669 8.13931C17.1387 8.07333 17.1871 8.00001 17.2588 8.00001H17.2732C17.3035 8.00001 17.3321 8.0137 17.3511 8.03725L17.7079 8.47995C17.7185 8.4931 17.7256 8.50874 17.7285 8.52538L17.892 9.45508C17.8965 9.48106 17.9191 9.50001 17.9455 9.50001C17.9755 9.50001 17.9998 9.47568 17.9998 9.44566V8.54143C17.9998 8.5149 17.9893 8.48947 17.9706 8.47072L17.5706 8.07072C17.5315 8.03166 17.5315 7.96835 17.5705 7.9293L17.9706 7.52929C17.9893 7.51054 17.9998 7.48511 17.9998 7.45858V7.03292C17.9998 7.01154 17.993 6.99073 17.9803 6.97353L17.2892 6.03738C17.2717 6.01368 17.2655 5.98347 17.2724 5.95481L17.4915 5.03488C17.4969 5.01233 17.5099 4.99235 17.5284 4.97835L17.9602 4.6511C17.9852 4.6322 17.9998 4.60271 17.9998 4.5714V4.10001C17.9998 4.04478 17.9551 4.00001 17.8998 4.00001H17.2413C17.1522 4.00001 17.1076 4.10772 17.1706 4.17072L17.4291 4.4293C17.4682 4.46835 17.4682 4.53166 17.4291 4.57072L17.4181 4.58173C17.3767 4.62313 17.3088 4.62027 17.271 4.57554L16.815 4.03551C16.796 4.01299 16.768 4 16.7386 4H16.0998C16.0446 4 15.9998 4.04477 15.9998 4.1V4.1565C15.9998 4.19044 16.0171 4.22206 16.0456 4.24049L16.6243 4.61456C16.6701 4.64419 16.6837 4.70513 16.6548 4.75146L16.5292 4.95292C16.5109 4.98221 16.4789 5.00001 16.4444 5.00001H16.0998C16.0446 5.00001 15.9998 5.04478 15.9998 5.10001V5.2323C15.9998 5.27319 16.0247 5.30996 16.0627 5.32514L16.4539 5.48162C16.4828 5.4932 16.5047 5.51765 16.5131 5.54772L16.6034 5.87318C16.6211 5.93689 16.5732 5.99992 16.5071 5.99992L11.5504 5.99995C11.5186 5.99995 11.4887 5.98483 11.4699 5.95922L11.2222 5.62254C11.1795 5.56462 11.2102 5.48199 11.2802 5.46584L11.9223 5.31787C11.9677 5.30741 11.9999 5.267 11.9999 5.22042V5.1C11.9999 5.04477 11.9551 5 11.8999 5H11.7413C11.6522 5 11.6076 4.89229 11.6706 4.82929L11.9706 4.52929C11.9893 4.51054 11.9999 4.4851 11.9999 4.45858V4.1C11.9999 4.04477 11.9551 4 11.8999 4H11.5413C11.5148 4 11.4893 4.01054 11.4706 4.02929L11.1706 4.32929C11.1076 4.39229 10.9999 4.34767 10.9999 4.25858V4.1ZM13.4287 5.01935C13.4896 5.00923 13.545 5.05622 13.545 5.11799V5.40002C13.545 5.45525 13.5898 5.50002 13.645 5.50002H13.7018C13.757 5.50002 13.8018 5.45525 13.8018 5.40002V5.10001C13.8018 5.04479 13.8465 5.00002 13.9018 5.00001L14.311 5C14.3793 5 14.4275 5.06697 14.4059 5.13175L14.3267 5.36827C14.305 5.43305 14.3532 5.50002 14.4215 5.50002H14.4249C14.4659 5.50002 14.5028 5.47493 14.5179 5.43674L14.6653 5.06329C14.6804 5.0251 14.7173 5.00001 14.7583 5.00001L14.8273 5.00001C14.8758 5.00002 14.9173 5.03479 14.9257 5.08253L14.9852 5.4175C14.9937 5.46524 15.0352 5.50002 15.0837 5.50002H15.1041C15.1544 5.50002 15.1968 5.46264 15.2032 5.41274L15.284 4.78305C15.2872 4.75831 15.281 4.73328 15.2667 4.71287L15.0127 4.35104C15.0043 4.33906 14.9933 4.32907 14.9806 4.32178L14.6435 4.12816C14.6284 4.11946 14.6112 4.11487 14.5937 4.11487L13.2183 4.11481C13.1959 4.11481 13.1778 4.09668 13.1778 4.07432C13.1778 4.04226 13.1423 4.02291 13.1154 4.0403L13.0245 4.09895C13.0084 4.10932 12.9897 4.11483 12.9706 4.11483H12.7312C12.6831 4.11483 12.644 4.15387 12.644 4.20203C12.644 4.22947 12.657 4.25532 12.6789 4.27178L13.1454 4.62167C13.2022 4.66422 13.1978 4.75066 13.1371 4.78729L12.8484 4.96149C12.8105 4.98435 12.7921 5.02938 12.8032 5.07221L12.8617 5.29769C12.8704 5.33141 12.9009 5.35496 12.9357 5.35496C12.9779 5.35496 13.0122 5.32073 13.0122 5.27849V5.17327C13.0122 5.12437 13.0475 5.08264 13.0958 5.07462L13.4287 5.01935ZM10.0999 10C10.0446 10 9.99988 10.0448 9.99988 10.1V10.4C9.99988 10.4552 10.0446 10.5 10.0999 10.5H12.3999C12.4551 10.5 12.4999 10.5448 12.4999 10.6V10.9586C12.4999 10.9851 12.5104 11.0105 12.5292 11.0293L12.9706 11.4707C12.9893 11.4895 13.0148 11.5 13.0413 11.5H14.9585C14.985 11.5 15.0104 11.4895 15.0292 11.4707L15.4706 11.0293C15.4893 11.0105 15.4999 10.9851 15.4999 10.9586V10.6C15.4999 10.5448 15.5446 10.5 15.5999 10.5H17.8999C17.9551 10.5 17.9999 10.4552 17.9999 10.4V10.1C17.9999 10.0448 17.9551 10 17.8999 10H15.5413C15.5148 10 15.4893 10.0105 15.4706 10.0293L15.0292 10.4707C15.0104 10.4895 14.9999 10.5149 14.9999 10.5414V10.9C14.9999 10.9552 14.9551 11 14.8999 11H13.0999C13.0446 11 12.9999 10.9552 12.9999 10.9V10.5414C12.9999 10.5149 12.9893 10.4895 12.9706 10.4707L12.5292 10.0293C12.5104 10.0105 12.485 10 12.4585 10H10.0999Z" fill="#fff"/><m:metadata><m:parameters><m:parameter m:name="color-1" m:type="color" m:value="#1B1D27"/><m:parameter m:name="color-2" m:type="color" m:value="#FFFFFF"/></m:parameters></m:metadata></svg>