<svg id="ca-ontario-qew" xmlns="http://www.w3.org/2000/svg" width="20" height="30" viewBox="0 0 20 30" xmlns:m="https://www.mapbox.com"><rect id="container" width="20" height="30" fill="none"/><path id="stroke" d="M4.10557 5.32918C3.428 5.66796 3 6.36049 3 7.11803V7.35994C3 7.54578 3.0259 7.7307 3.07695 7.90939L3.95998 11H3C1.89543 11 1 11.8954 1 13V18.5013C1 22.4532 3.32734 26.0344 6.93863 27.6394L7.15708 27.7365C8.96704 28.5409 11.033 28.5409 12.843 27.7365L13.0615 27.6394C16.6727 26.0344 19.0001 22.4532 19.0001 18.5013V13C19.0001 11.8954 18.1046 11 17.0001 11H16.04L16.923 7.90939C16.9741 7.73071 17 7.54578 17 7.35995V7.11803C17 6.36049 16.572 5.66796 15.8944 5.32918L13.0553 3.90961C13.0214 3.89267 13 3.85804 13 3.82016V3C13 1.89543 12.1046 1 11 1H9C7.89543 1 7 1.89543 7 3V3.82016C7 3.85804 6.9786 3.89267 6.94472 3.90961L4.10557 5.32918Z" fill="none" stroke="#FFE666" stroke-width="2"/><path id="body" d="M4.10557 5.32918C3.428 5.66796 3 6.36049 3 7.11803V7.35994C3 7.54578 3.0259 7.7307 3.07695 7.90939L3.95998 11H3C1.89543 11 1 11.8954 1 13V18.5013C1 22.4531 3.32734 26.0344 6.93863 27.6394L7.15708 27.7365C8.96703 28.5409 11.033 28.5409 12.843 27.7365L13.0615 27.6394C16.6727 26.0344 19.0001 22.4531 19.0001 18.5013V13C19.0001 11.8954 18.1047 11 17.0001 11H16.04L16.923 7.90939C16.9741 7.73071 17 7.54578 17 7.35995V7.11803C17 6.36049 16.572 5.66796 15.8944 5.32918L13.0553 3.90961C13.0214 3.89267 13 3.85804 13 3.82016V3C13 1.89543 12.1046 1 11 1H9C7.89543 1 7 1.89543 7 3V3.82016C7 3.85804 6.9786 3.89267 6.94472 3.90961L4.10557 5.32918Z" fill="#475DCD"/><path id="banner" d="M9.74998 7.48543V7.99012C9.21862 7.94916 8.71117 7.78895 8.38085 7.6627C8.12617 7.56537 7.85803 7.5 7.58538 7.5C6.97642 7.5 6.41531 7.81496 6.09654 8.32468L6.04669 8.1253C5.8403 7.29973 6.46471 6.5 7.31569 6.5C7.66317 6.5 8.00288 6.60285 8.292 6.7956L8.80661 7.13868C9.09025 7.32777 9.41373 7.44609 9.74998 7.48543Z M11.6191 7.6627C11.2888 7.78895 10.7813 7.94915 10.25 7.99012V7.48543C10.5862 7.44609 10.9097 7.32777 11.1934 7.13868L11.708 6.7956C11.9971 6.60285 12.3368 6.5 12.6843 6.5C13.5353 6.5 14.1597 7.29973 13.9533 8.1253L13.9034 8.3247C13.5847 7.81497 13.0235 7.5 12.4146 7.5C12.1419 7.5 11.8738 7.56537 11.6191 7.6627Z M6.39037 9.5H13.6096L13.5448 9.7593C13.515 9.87828 13.5 10.0005 13.5 10.1231V10.5H6.49998V10.1231C6.49998 10.0005 6.48494 9.87828 6.4552 9.7593L6.39037 9.5ZM6.99998 10C6.99998 10.1381 7.11191 10.25 7.24998 10.25H7.74998C7.88805 10.25 7.99998 10.1381 7.99998 10C7.99998 9.86193 7.88805 9.75 7.74998 9.75H7.24998C7.11191 9.75 6.99998 9.86193 6.99998 10ZM12.25 9.75C12.1119 9.75 12 9.86193 12 10C12 10.1381 12.1119 10.25 12.25 10.25H12.75C12.8881 10.25 13 10.1381 13 10C13 9.86193 12.8881 9.75 12.75 9.75H12.25ZM9.49998 10.25H10.5V9.75H9.49998V10.25Z M6.49998 11V11.5H13.5V11H6.49998Z M12.1118 8.5C12.05 8.5 12 8.55006 12 8.6118V8.86024C12 8.90719 12.0588 8.92825 12.0886 8.89195L12.1727 8.78953C12.2127 8.74077 12.2873 8.74077 12.3273 8.78953L12.4613 8.95289C12.4813 8.97727 12.5186 8.97727 12.5386 8.95289L12.6727 8.78953C12.7127 8.74077 12.7873 8.74077 12.8273 8.78953L12.9113 8.89195C12.9411 8.92825 13 8.90719 13 8.86024V8.6118C13 8.55006 12.9499 8.5 12.8882 8.5C12.8035 8.5 12.726 8.45215 12.6882 8.37639L12.5447 8.08944C12.5263 8.05259 12.4737 8.05259 12.4553 8.08944L12.3118 8.37639C12.2739 8.45215 12.1965 8.5 12.1118 8.5Z M6.99997 8.6118C6.99997 8.55006 7.05003 8.5 7.11178 8.5C7.19647 8.5 7.2739 8.45215 7.31178 8.37639L7.45525 8.08944C7.47368 8.05259 7.52627 8.05259 7.54469 8.08944L7.68817 8.37639C7.72605 8.45215 7.80347 8.5 7.88817 8.5C7.94992 8.5 7.99997 8.55006 7.99997 8.6118V8.86024C7.99997 8.90719 7.9411 8.92825 7.91132 8.89195L7.82728 8.78953C7.78727 8.74077 7.71267 8.74077 7.67267 8.78953L7.53863 8.95289C7.51862 8.97727 7.48132 8.97727 7.46132 8.95289L7.32728 8.78953C7.28727 8.74077 7.21267 8.74077 7.17267 8.78953L7.08863 8.89195C7.05884 8.92825 6.99997 8.90719 6.99997 8.86024V8.6118Z M5.26003 14.8249C5.5101 14.8205 5.72246 15.0247 5.86062 15.3753C5.99355 15.7059 6.05015 16.0879 6.08978 16.4822L6.13548 17.0288C6.14782 17.3023 6.16007 17.5756 6.162 17.8624L6.17169 19.1709C6.16408 19.6167 6.14361 20.0682 6.08155 20.4839C6.06763 20.4554 6.05373 20.4253 6.03969 20.3949C6.00902 20.3284 5.97745 20.26 5.94234 20.2015C5.71467 19.8172 5.41939 19.5486 5.09009 19.7223C4.85063 19.8522 4.66314 20.2486 4.64931 20.6608C4.64606 20.7393 4.64804 20.821 4.65422 20.8952C4.56214 20.6408 4.5238 20.3493 4.48556 20.0587L4.47631 19.9886C4.4573 19.8017 4.44007 19.6123 4.43335 19.4163L4.40607 18.4348C4.39587 18.0641 4.39034 17.6608 4.39778 17.3081L4.42838 16.7488C4.47214 16.2144 4.52055 15.6833 4.72166 15.2567C4.85415 15.0057 5.01637 14.85 5.20948 14.8286C5.22648 14.8264 5.24336 14.8252 5.26003 14.8249Z M5.31753 19.9158C5.35593 19.9173 5.3948 19.9254 5.43367 19.9406C5.54422 19.9898 5.65473 20.1163 5.71662 20.2868C5.8306 20.5849 5.84897 20.9532 5.83608 21.3307L5.7986 21.3791C5.63767 21.594 5.43844 21.6861 5.22102 21.6668C5.11118 21.6479 4.98024 21.5056 4.89708 21.3745C4.73868 21.1254 4.77073 20.5534 4.89357 20.2653C4.99437 20.0296 5.15112 19.9093 5.31753 19.9158Z M4.03848 7.63467C4.01295 7.54532 4 7.45286 4 7.35995V7.11803C4 6.73926 4.214 6.393 4.55279 6.22361L7.72361 4.6382C7.893 4.5535 8 4.38037 8 4.19098V3C8 2.44772 8.44772 2 9 2H11C11.5523 2 12 2.44772 12 3V4.19098C12 4.38037 12.107 4.5535 12.2764 4.6382L15.4472 6.22361C15.786 6.393 16 6.73926 16 7.11803V7.35995C16 7.45286 15.9871 7.54533 15.9615 7.63467L15.077 10.7307C15.0259 10.9094 15 11.0943 15 11.2801V12H17.0001C17.5524 12 18.0001 12.4477 18.0001 13V18.4377C18.0001 21.8466 16.0741 24.963 13.025 26.4875L12.6833 26.6584C10.9942 27.5029 9.00593 27.5029 7.31677 26.6584L6.97509 26.4875C3.92603 24.963 2 21.8466 2 18.4377V13C2 12.4477 2.44772 12 3 12H5V11.2801C5 11.0943 4.9741 10.9094 4.92305 10.7307L4.03848 7.63467ZM10.2236 3.55269L10.5 3H9.49998L9.77633 3.55269C9.67977 3.60106 9.60104 3.67978 9.55267 3.77634L8.99998 3.5V4.5L9.55267 4.22366C9.60104 4.32022 9.67977 4.39894 9.77633 4.44731L9.49998 5H9.74998V5.5315C9.31867 5.64252 8.99998 6.03404 8.99998 6.5C8.99998 6.56043 9.00534 6.61961 9.01561 6.67709L8.56935 6.37958C8.19809 6.13207 7.76188 6 7.31569 6C6.13942 6 5.27634 7.10542 5.56162 8.24657L5.97012 9.88057C5.98995 9.95989 5.99998 10.0413 5.99998 10.1231V11.5C5.99998 11.7761 6.22384 12 6.49998 12H13.5C13.7761 12 14 11.7761 14 11.5V10.1231C14 10.0413 14.01 9.95989 14.0298 9.88057L14.4383 8.24657C14.7236 7.10542 13.8605 6 12.6843 6C12.2381 6 11.8019 6.13207 11.4306 6.37958L10.9844 6.67709C10.9946 6.61961 11 6.56043 11 6.5C11 6.03404 10.6813 5.64252 10.25 5.5315V5H10.5L10.2236 4.44731C10.3202 4.39894 10.3989 4.32022 10.4473 4.22366L11 4.5V3.5L10.4473 3.77634C10.3989 3.67978 10.3202 3.60106 10.2236 3.55269ZM5.26182 14.5C5.13366 14.4998 5.00623 14.5267 4.88886 14.5822C4.69039 14.6707 4.51172 14.8344 4.34545 15.0494C4.00634 15.5176 3.76643 16.1012 3.64166 16.7376C3.44788 17.6126 3.45063 18.7756 3.66397 19.6337C3.79701 20.1813 4.00298 20.7001 4.28604 21.1235L4.31637 21.1648C4.39287 21.2692 4.47192 21.377 4.55191 21.4591C4.64268 21.5521 4.74289 21.6288 4.84105 21.6905C5.13706 21.8987 5.52033 21.8292 5.81976 21.6848H5.83812C5.83881 21.6966 5.84006 21.7083 5.8413 21.7199C5.84372 21.7425 5.84611 21.7649 5.84436 21.7878L5.90352 22.3489C5.92672 22.5127 6.02364 22.7368 6.12847 22.8375C6.27402 22.9981 6.57779 23 6.57779 23C6.7175 22.9972 6.80102 22.9327 6.80102 22.9327L6.94763 22.7926C6.97123 22.7698 6.99074 22.7331 7.00991 22.6971C7.02171 22.675 7.03341 22.653 7.04586 22.6347C7.17129 22.3828 7.22317 22.0768 7.24831 21.7609C7.25012 21.6817 7.25392 21.602 7.25772 21.5222C7.26257 21.4206 7.26742 21.3188 7.26819 21.2177C7.24828 21.2173 7.2282 21.2161 7.20815 21.2148C7.1671 21.2123 7.12614 21.2098 7.08678 21.2142C7.079 21.2793 7.07705 21.3491 7.07509 21.4192C7.07121 21.5583 7.06729 21.6986 7.01787 21.8059C6.968 21.9154 6.89111 21.9849 6.8037 21.9648C6.70488 21.9726 6.63531 21.8103 6.59233 21.6905L6.35941 21.1152L6.34551 21.0854C6.44631 20.9299 6.5269 20.746 6.59921 20.5647C6.85416 19.9686 7.00695 19.3042 7.05198 18.566C7.0997 17.3604 6.91419 16.2705 6.42385 15.4123C6.25411 15.129 6.07069 14.878 5.8654 14.7211C5.69104 14.5762 5.47542 14.5004 5.26182 14.5ZM7.58649 21.8521L11.046 21.8521V19.137L10.8916 19.1211C10.885 19.1953 10.8795 19.2703 10.8741 19.345C10.8566 19.5834 10.8392 19.8214 10.787 20.0389L10.7858 20.0358L10.7844 20.0379L10.7878 20.0435L10.7885 20.0414C10.7695 20.1434 10.7364 20.236 10.7033 20.3285C10.6908 20.3634 10.6783 20.3984 10.6665 20.4338C10.4862 20.8865 10.2169 21.3109 9.92343 21.4982C9.81893 21.5731 9.69073 21.6132 9.57311 21.6168C9.41963 21.6212 9.25618 21.6252 9.12749 21.5119C9.03029 21.4345 8.9629 21.2622 8.95876 21.0873V18.184L9.07796 18.1783C9.27688 18.1783 9.45052 18.2917 9.58776 18.5321C9.77676 18.8716 9.85843 19.285 9.86911 19.7489C9.92136 19.7534 9.98304 19.7534 10.0347 19.7489V16.5109H9.8866L9.87723 16.6921C9.85707 17.0278 9.78145 17.3398 9.62252 17.5712C9.57038 17.6461 9.51606 17.7109 9.45706 17.7676C9.31442 17.9048 9.12972 17.932 8.95876 17.9151V15.5425L8.95853 15.4872C8.95781 15.371 8.95715 15.2627 8.98611 15.1648C9.03836 14.9854 9.14759 14.8651 9.25819 14.838C9.76407 14.6644 10.2189 14.9968 10.5365 15.6651C10.7194 16.0816 10.8138 16.5603 10.8836 17.0572L11.0364 17.0188V14.5H7.57778V14.7608C7.62029 14.7678 7.66386 14.7672 7.70715 14.7666C7.78331 14.7655 7.85866 14.7645 7.92609 14.8051C8.03195 14.8673 8.10904 15.0525 8.12517 15.2328V21.0137C8.12794 21.1544 8.10108 21.2757 8.0533 21.3813C7.96424 21.5937 7.81208 21.5931 7.66661 21.5924C7.63952 21.5923 7.61267 21.5922 7.58649 21.5935V21.8521ZM15.6191 14.5V14.7452C15.6838 14.7486 15.7488 14.7558 15.8084 14.7795C15.9477 14.8362 16.0878 15.0587 16.1105 15.305C16.1355 15.4839 16.1038 15.6451 16.0722 15.8056C16.058 15.878 16.0438 15.9504 16.0348 16.0242L15.4661 19.2839L14.746 15.3406C14.7158 15.2146 14.7098 15.0479 14.7575 14.9321C14.8175 14.7607 14.9272 14.7568 15.0347 14.7531C15.0532 14.7524 15.0716 14.7518 15.0896 14.7503V14.5H13.428V14.7503C13.4407 14.7523 13.4536 14.7539 13.4665 14.7555C13.5041 14.7602 13.5421 14.765 13.5769 14.7802C13.6901 14.8334 13.8108 14.9854 13.847 15.1852L14.0545 16.2835L13.5239 19.2539L12.8065 15.2703C12.7896 15.1206 12.821 14.9923 12.8787 14.889C12.9398 14.7738 13.0292 14.7643 13.1173 14.7549C13.1308 14.7535 13.1441 14.7521 13.1574 14.7503V14.5H11.5074V14.7495C11.5348 14.7479 11.5597 14.7537 11.5851 14.7596C11.5954 14.762 11.6058 14.7645 11.6165 14.7664C11.7444 14.7983 11.8656 14.9865 11.8951 15.1988L13.1423 21.8521H13.3102L14.1638 16.9312L15.0737 21.8521H15.2253L16.331 15.711C16.3724 15.5046 16.4195 15.306 16.5078 15.1369C16.6439 14.8975 16.8144 14.7999 17 14.7637V14.5H15.6191Z" fill="#FFE666"/><m:metadata><m:parameters><m:parameter m:name="color-1" m:type="color" m:value="#475DCD"/><m:parameter m:name="color-2" m:type="color" m:value="#FFE666"/></m:parameters></m:metadata></svg>