<svg id="ca-ontario-2" xmlns="http://www.w3.org/2000/svg" width="20" height="37" viewBox="0 0 20 37" xmlns:m="https://www.mapbox.com"><rect id="container" width="20" height="37" fill="none"/><path id="stroke" d="M4.10557 5.32918C3.428 5.66796 3 6.36049 3 7.11803V7.35994C3 7.54578 3.0259 7.7307 3.07695 7.90939L3.95998 11H3C1.89543 11 1 11.8954 1 13L1 18.2444C1 21.8609 2.95267 25.1957 6.10661 26.9654L9.02136 28.6009C9.62924 28.9419 10.3708 28.9419 10.9787 28.6009L13.8935 26.9654C17.0474 25.1957 19.0001 21.8609 19.0001 18.2444V13C19.0001 11.8954 18.1046 11 17.0001 11H16.04L16.923 7.90939C16.9741 7.73071 17 7.54578 17 7.35995V7.11803C17 6.36049 16.572 5.66796 15.8944 5.32918L13.0553 3.90961C13.0214 3.89267 13 3.85804 13 3.82016V3C13 1.89543 12.1046 1 11 1H9C7.89543 1 7 1.89543 7 3V3.82016C7 3.85804 6.9786 3.89267 6.94472 3.90961L4.10557 5.32918Z" fill="none" stroke="#fff" stroke-width="2"/><path id="body" d="M4.10557 5.32918C3.428 5.66796 3 6.36049 3 7.11803V7.35994C3 7.54578 3.0259 7.7307 3.07695 7.90939L3.95998 11H3C1.89543 11 1 11.8954 1 13L1 18.2444C1 21.8609 2.95267 25.1957 6.10661 26.9654L9.02136 28.6009C9.62924 28.9419 10.3708 28.9419 10.9787 28.6009L13.8935 26.9654C17.0474 25.1957 19.0001 21.8609 19.0001 18.2444V13C19.0001 11.8954 18.1046 11 17.0001 11H16.04L16.923 7.90939C16.9741 7.73071 17 7.54578 17 7.35995V7.11803C17 6.36049 16.572 5.66796 15.8944 5.32918L13.0553 3.90961C13.0214 3.89267 13 3.85804 13 3.82016V3C13 1.89543 12.1046 1 11 1H9C7.89543 1 7 1.89543 7 3V3.82016C7 3.85804 6.9786 3.89267 6.94472 3.90961L4.10557 5.32918Z" fill="#1B1D27"/><path id="banner" d="M9.75007 7.48543V7.99012C9.21871 7.94916 8.71126 7.78895 8.38094 7.6627C8.12626 7.56537 7.85812 7.5 7.58547 7.5C6.97651 7.5 6.41539 7.81496 6.09663 8.32468L6.04678 8.1253C5.84039 7.29973 6.4648 6.5 7.31578 6.5C7.66326 6.5 8.00296 6.60285 8.29208 6.7956L8.80669 7.13868C9.09034 7.32777 9.41382 7.44609 9.75007 7.48543Z M11.6192 7.6627C11.2889 7.78895 10.7814 7.94915 10.2501 7.99012V7.48543C10.5863 7.44609 10.9098 7.32777 11.1934 7.13868L11.7081 6.7956C11.9972 6.60285 12.3369 6.5 12.6844 6.5C13.5353 6.5 14.1597 7.29973 13.9534 8.1253L13.9035 8.3247C13.5847 7.81497 13.0236 7.5 12.4147 7.5C12.142 7.5 11.8739 7.56537 11.6192 7.6627Z M6.39046 9.5L6.45528 9.7593C6.48503 9.87828 6.50007 10.0005 6.50007 10.1231V10.5H13.5001V10.1231C13.5001 10.0005 13.5151 9.87828 13.5449 9.7593L13.6097 9.5H6.39046ZM12.2501 9.75H12.7501C12.8881 9.75 13.0001 9.86193 13.0001 10C13.0001 10.1381 12.8881 10.25 12.7501 10.25H12.2501C12.112 10.25 12.0001 10.1381 12.0001 10C12.0001 9.86193 12.112 9.75 12.2501 9.75ZM7.00007 10C7.00007 9.86193 7.112 9.75 7.25007 9.75H7.75007C7.88814 9.75 8.00007 9.86193 8.00007 10C8.00007 10.1381 7.88814 10.25 7.75007 10.25H7.25007C7.112 10.25 7.00007 10.1381 7.00007 10ZM10.5001 10.25H9.50007V9.75H10.5001V10.25Z M6.50007 11V11.5H13.5001V11H6.50007Z M12.1119 8.5C12.0501 8.5 12.0001 8.55006 12.0001 8.6118V8.86024C12.0001 8.90719 12.0589 8.92825 12.0887 8.89195L12.1728 8.78953C12.2128 8.74077 12.2874 8.74077 12.3274 8.78953L12.4614 8.95289C12.4814 8.97727 12.5187 8.97727 12.5387 8.95289L12.6728 8.78953C12.7128 8.74077 12.7874 8.74077 12.8274 8.78953L12.9114 8.89195C12.9412 8.92825 13.0001 8.90719 13.0001 8.86024V8.6118C13.0001 8.55006 12.95 8.5 12.8883 8.5C12.8036 8.5 12.7261 8.45215 12.6883 8.37639L12.5448 8.08944C12.5264 8.05259 12.4738 8.05259 12.4553 8.08944L12.3119 8.37639C12.274 8.45215 12.1966 8.5 12.1119 8.5Z M7.00006 8.6118C7.00006 8.55006 7.05012 8.5 7.11186 8.5C7.19656 8.5 7.27399 8.45215 7.31186 8.37639L7.45534 8.08944C7.47377 8.05259 7.52636 8.05259 7.54478 8.08944L7.68826 8.37639C7.72613 8.45215 7.80356 8.5 7.88826 8.5C7.95001 8.5 8.00006 8.55006 8.00006 8.6118V8.86024C8.00006 8.90719 7.94119 8.92825 7.91141 8.89195L7.82737 8.78953C7.78736 8.74077 7.71276 8.74077 7.67275 8.78953L7.53871 8.95289C7.51871 8.97727 7.48141 8.97727 7.46141 8.95289L7.32737 8.78953C7.28736 8.74077 7.21276 8.74077 7.17275 8.78953L7.08871 8.89195C7.05893 8.92825 7.00006 8.90719 7.00006 8.86024V8.6118Z M4.03848 7.63467C4.01295 7.54532 4 7.45286 4 7.35995V7.11803C4 6.73926 4.214 6.393 4.55279 6.22361L7.72361 4.6382C7.893 4.5535 8 4.38037 8 4.19098V3C8 2.44772 8.44772 2 9 2H11C11.5523 2 12 2.44772 12 3V4.19098C12 4.38037 12.107 4.5535 12.2764 4.6382L15.4472 6.22361C15.786 6.393 16 6.73926 16 7.11803V7.35995C16 7.45286 15.9871 7.54532 15.9615 7.63467L15.077 10.7307C15.0259 10.9094 15 11.0943 15 11.2801V12H17.0001C17.5524 12 18.0001 12.4477 18.0001 13V18.2364C18.0001 21.4878 16.2463 24.4865 13.4124 26.0805L10.4903 27.7242C10.1859 27.8955 9.81419 27.8955 9.50978 27.7242L6.58767 26.0805C3.75376 24.4865 2 21.4878 2 18.2364V13C2 12.4477 2.44772 12 3 12H5V11.2801C5 11.0943 4.9741 10.9094 4.92305 10.7307L4.03848 7.63467ZM10.2237 3.55269L10.5001 3H9.50007L9.77641 3.55269C9.67985 3.60106 9.60113 3.67978 9.55276 3.77634L9.00007 3.5V4.5L9.55276 4.22366C9.60113 4.32022 9.67985 4.39894 9.77641 4.44731L9.50007 5H9.75007V5.5315C9.31876 5.64252 9.00007 6.03404 9.00007 6.5C9.00007 6.56043 9.00543 6.61961 9.0157 6.67709L8.56943 6.37958C8.19818 6.13207 7.76197 6 7.31578 6C6.13951 6 5.27642 7.10542 5.56171 8.24657L5.97021 9.88057C5.99004 9.95989 6.00007 10.0413 6.00007 10.1231V11.5C6.00007 11.7761 6.22393 12 6.50007 12H13.5001C13.7762 12 14.0001 11.7761 14.0001 11.5V10.1231C14.0001 10.0413 14.0101 9.95989 14.0299 9.88057L14.4384 8.24657C14.7237 7.10542 13.8606 6 12.6844 6C12.2382 6 11.802 6.13207 11.4307 6.37958L10.9844 6.67709C10.9947 6.61961 11.0001 6.56043 11.0001 6.5C11.0001 6.03404 10.6814 5.64252 10.2501 5.5315V5H10.5001L10.2237 4.44731C10.3203 4.39894 10.399 4.32022 10.4474 4.22366L11.0001 4.5V3.5L10.4474 3.77634C10.399 3.67978 10.3203 3.60106 10.2237 3.55269Z" fill="#fff"/><m:metadata><m:parameters><m:parameter m:name="color-1" m:type="color" m:value="#1B1D27"/><m:parameter m:name="color-2" m:type="color" m:value="#FFFFFF"/></m:parameters></m:metadata></svg>