<svg id="ca-ontario-country-2" xmlns="http://www.w3.org/2000/svg" width="22" height="17" viewBox="0 0 22 17" xmlns:m="https://www.mapbox.com"><rect id="container" width="22" height="17" fill="none"/><path id="stroke" d="M1.47848 3.39223C1.23097 2.15465 2.17755 1 3.43964 1H18.5604C19.8225 1 20.7691 2.15465 20.5216 3.39223L18.3216 14.3922C18.1346 15.3271 17.3138 16 16.3604 16H5.63964C4.68628 16 3.86545 15.3271 3.67848 14.3922L1.47848 3.39223Z" fill="none" stroke="#fff" stroke-width="2"/><path id="body" d="M1.47848 3.39223C1.23097 2.15465 2.17755 1 3.43964 1H18.5604C19.8225 1 20.7691 2.15465 20.5216 3.39223L18.3216 14.3922C18.1346 15.3271 17.3138 16 16.3604 16H5.63964C4.68628 16 3.86545 15.3271 3.67848 14.3922L1.47848 3.39223Z" fill="#1B1D27"/><path id="banner" d="M3.43955 2C2.8085 2 2.33521 2.57732 2.45897 3.19612L4.65897 14.1961C4.75245 14.6635 5.16287 15 5.63955 15H16.3603C16.837 15 17.2474 14.6635 17.3409 14.1961L19.5409 3.19612C19.6647 2.57732 19.1914 2 18.5603 2H3.43955Z" fill="#fff"/><m:metadata><m:parameters><m:parameter m:name="color-1" m:type="color" m:value="#1B1D27"/><m:parameter m:name="color-2" m:type="color" m:value="#FFFFFF"/></m:parameters></m:metadata></svg>