<svg id="ca-princeedward-2" xmlns="http://www.w3.org/2000/svg" width="20" height="30" viewBox="0 0 20 30" xmlns:m="https://www.mapbox.com"><rect id="container" width="20" height="30" fill="none"/><path id="stroke" d="M17 1H3C1.89543 1 1 1.89543 1 3V15C1 19.9706 5.02944 24 10 24V24C14.9706 24 19 19.9706 19 15V3C19 1.89543 18.1046 1 17 1Z" fill="none" stroke="#fff" stroke-width="2"/><path id="body" d="M17 1H3C1.89543 1 1 1.89543 1 3V15C1 19.9706 5.02944 24 10 24C14.9706 24 19 19.9706 19 15V3C19 1.89543 18.1046 1 17 1Z" fill="#19A45C"/><path id="banner" d="M11.8661 2.76776C11.9482 2.60366 12.1159 2.5 12.2994 2.5C12.4278 2.5 12.551 2.44897 12.6419 2.35813L12.75 2.25C12.9101 2.08993 13.1272 2 13.3536 2H13.6464C13.8728 2 14.0899 2.08993 14.25 2.25L14.3581 2.35813C14.449 2.44897 14.5722 2.5 14.7006 2.5C14.8841 2.5 15.0518 2.60366 15.1339 2.76776L15.8944 4.28885C15.9639 4.42771 16 4.58082 16 4.73607V5.19722C16 5.39465 15.9416 5.58766 15.8321 5.75192L15.2969 6.5547C15.1114 6.8329 14.7992 7 14.4648 7H14.25C14.1119 7 14 7.11193 14 7.25V7.75C14 7.88807 14.1119 8 14.25 8H17C17.5523 8 18 8.44772 18 9V15C18 19.4183 14.4183 23 10 23C5.58172 23 2 19.4183 2 15V9C2 8.44771 2.44772 8 3 8H5.25C5.38807 8 5.5 7.88807 5.5 7.75V7.21512C5.5 7.08844 5.40356 6.98495 5.28416 6.94264C5.04423 6.85762 4.84126 6.68252 4.72361 6.44721L4.57257 6.14515C4.52451 6.04901 4.46125 5.96125 4.38525 5.88525L4.29289 5.79289C4.10536 5.60536 4 5.351 4 5.08579V4.91421C4 4.649 4.10536 4.39464 4.29289 4.20711L4.38525 4.11475C4.46125 4.03875 4.52451 3.95099 4.57257 3.85485L4.72361 3.55279C4.893 3.214 5.23926 3 5.61803 3H6.05904C6.34138 3 6.61216 3.11216 6.81181 3.31181C6.91574 3.41574 7.08426 3.41574 7.18819 3.31181C7.38784 3.11216 7.65862 3 7.94096 3H8.38197C8.76074 3 9.107 3.214 9.27639 3.55279L9.42743 3.85485C9.47549 3.95099 9.53875 4.03875 9.61475 4.11475L9.70711 4.20711C9.89464 4.39464 10 4.649 10 4.91421V5.08579C10 5.351 9.89464 5.60536 9.70711 5.79289L9.61475 5.88525C9.53875 5.96125 9.47549 6.04901 9.42743 6.14515L9.27639 6.44721C9.15874 6.68252 8.95577 6.85762 8.71584 6.94264C8.59644 6.98495 8.5 7.08844 8.5 7.21512V7.75C8.5 7.88807 8.61193 8 8.75 8H12.75C12.8881 8 13 7.88807 13 7.75V7.25C13 7.11193 12.8881 7 12.75 7H12.5352C12.2008 7 11.8886 6.8329 11.7031 6.5547L11.1679 5.75192C11.0584 5.58766 11 5.39465 11 5.19722V4.73607C11 4.58082 11.0361 4.42771 11.1056 4.28885L11.8661 2.76776ZM7.25 8C7.38807 8 7.5 7.88807 7.5 7.75V7.10355C7.5 7.03725 7.4749 6.97191 7.42172 6.9323C7.17216 6.74642 6.82784 6.74642 6.57828 6.9323C6.5251 6.97191 6.5 7.03725 6.5 7.10355V7.75C6.5 7.88807 6.61193 8 6.75 8H7.25Z" fill="#fff"/><m:metadata><m:parameters><m:parameter m:name="color-1" m:type="color" m:value="#19A45C"/><m:parameter m:name="color-2" m:type="color" m:value="#FFFFFF"/></m:parameters></m:metadata></svg>