<svg id="ca-princeedward-3" xmlns="http://www.w3.org/2000/svg" width="24" height="31" viewBox="0 0 24 31" xmlns:m="https://www.mapbox.com"><rect id="container" width="24" height="31" fill="none"/><path id="stroke" d="M21 1H3C1.89543 1 1 1.89543 1 3V15C1 21.5 6 25 12 25C18 25 23 21.5 23 15V3C23 1.89543 22.1046 1 21 1Z" fill="none" stroke="#fff" stroke-width="2"/><path id="body" d="M21 1H3C1.89543 1 1 1.89543 1 3V15C1 21.5 6 25 12 25C18 25 23 21.5 23 15V3C23 1.89543 22.1046 1 21 1Z" fill="#19A45C"/><path id="banner" d="M13.8661 2.76776C13.9482 2.60366 14.1159 2.5 14.2994 2.5C14.4278 2.5 14.551 2.44897 14.6419 2.35813L14.75 2.25C14.9101 2.08993 15.1272 2 15.3536 2H15.6464C15.8728 2 16.0899 2.08993 16.25 2.25L16.3581 2.35813C16.449 2.44897 16.5722 2.5 16.7006 2.5C16.8841 2.5 17.0518 2.60366 17.1339 2.76776L17.8944 4.28885C17.9639 4.42771 18 4.58082 18 4.73607V5.19722C18 5.39465 17.9416 5.58766 17.8321 5.75192L17.2969 6.5547C17.1114 6.8329 16.7992 7 16.4648 7H16.25C16.1119 7 16 7.11193 16 7.25V7.75C16 7.88807 16.1119 8 16.25 8H21C21.5523 8 22 8.44772 22 9V15C22 21 17.5 24 12 24C6.5 24 2 21 2 15V9C2 8.44771 2.44772 8 3 8H7.25C7.38807 8 7.5 7.88807 7.5 7.75V7.21512C7.5 7.08844 7.40356 6.98495 7.28416 6.94264C7.04423 6.85762 6.84126 6.68252 6.72361 6.44721L6.57257 6.14515C6.52451 6.04901 6.46125 5.96125 6.38525 5.88525L6.29289 5.79289C6.10536 5.60536 6 5.351 6 5.08579V4.91421C6 4.649 6.10536 4.39464 6.29289 4.20711L6.38525 4.11475C6.46125 4.03875 6.52451 3.95099 6.57257 3.85485L6.72361 3.55279C6.893 3.214 7.23926 3 7.61803 3H8.05904C8.34138 3 8.61216 3.11216 8.81181 3.31181C8.91574 3.41574 9.08426 3.41574 9.18819 3.31181C9.38784 3.11216 9.65862 3 9.94096 3H10.382C10.7607 3 11.107 3.214 11.2764 3.55279L11.4274 3.85485C11.4755 3.95099 11.5387 4.03875 11.6147 4.11475L11.7071 4.20711C11.8946 4.39464 12 4.649 12 4.91421V5.08579C12 5.351 11.8946 5.60536 11.7071 5.79289L11.6147 5.88525C11.5387 5.96125 11.4755 6.04901 11.4274 6.14515L11.2764 6.44721C11.1587 6.68252 10.9558 6.85762 10.7158 6.94264C10.5964 6.98495 10.5 7.08844 10.5 7.21512V7.75C10.5 7.88807 10.6119 8 10.75 8H14.75C14.8881 8 15 7.88807 15 7.75V7.25C15 7.11193 14.8881 7 14.75 7H14.5352C14.2008 7 13.8886 6.8329 13.7031 6.5547L13.1679 5.75192C13.0584 5.58766 13 5.39465 13 5.19722V4.73607C13 4.58082 13.0361 4.42771 13.1056 4.28885L13.8661 2.76776ZM9.25 8C9.38807 8 9.5 7.88807 9.5 7.75V7.10355C9.5 7.03725 9.4749 6.97191 9.42172 6.9323C9.17216 6.74642 8.82784 6.74642 8.57828 6.9323C8.5251 6.97191 8.5 7.03725 8.5 7.10355V7.75C8.5 7.88807 8.61193 8 8.75 8H9.25Z" fill="#fff"/><m:metadata><m:parameters><m:parameter m:name="color-1" m:type="color" m:value="#19A45C"/><m:parameter m:name="color-2" m:type="color" m:value="#FFFFFF"/></m:parameters></m:metadata></svg>