<svg id="ca-quebec-2" xmlns="http://www.w3.org/2000/svg" width="19" height="29" viewBox="0 0 19 29" xmlns:m="https://www.mapbox.com"><rect id="container" width="19" height="29" fill="none"/><path id="stroke" d="M1 2C1 1.44772 1.44772 1 2 1H17C17.5523 1 18 1.44772 18 2V15C18 20.4163 11.0735 22.573 9.72572 22.9414C9.57644 22.9822 9.42356 22.9822 9.27428 22.9414C7.9265 22.573 1 20.4163 1 15V2Z" fill="none" stroke="#fff" stroke-width="2"/><path id="body" d="M1 8H18V15C18 20.4163 11.0735 22.573 9.72572 22.9414C9.57644 22.9822 9.42356 22.9822 9.27428 22.9414C7.9265 22.573 1 20.4163 1 15V8Z" fill="#475DCD"/><path id="banner" d="M1 2C1 1.44772 1.44772 1 2 1H17C17.5523 1 18 1.44772 18 2V7H1V2Z" fill="#F13B3B"/><path id="bridge" d="M2.1 2.00002C2.04477 2.00002 2 2.0448 2 2.10002V2.40002C2 2.45525 2.04477 2.50002 2.1 2.50002L3.90002 2.50002C3.95525 2.50002 4.00002 2.54479 4.00002 2.60002V2.9C4.00002 2.95523 3.95525 3 3.90002 3H2.10028C2.04508 3 2.00032 3.04473 2.00028 3.09993L2.00007 3.39993C2.00003 3.45519 2.04481 3.5 2.10007 3.5H2.90002C2.95525 3.5 3.00002 3.54477 3.00002 3.6L3 4.87192C3 4.93698 3.06114 4.98471 3.12426 4.96894L4.94906 4.51273C4.98095 4.50476 5.00689 4.48162 5.01844 4.45083L5.35069 3.56489C5.36533 3.52586 5.40264 3.5 5.44432 3.5H14.4972C14.5419 3.5 14.5812 3.52964 14.5934 3.5726L14.9929 4.97504C14.9976 4.99141 15.0063 5.00632 15.0184 5.01835L15.4707 5.47071C15.4895 5.48946 15.5149 5.5 15.5414 5.5H16.4C16.4552 5.5 16.5 5.45523 16.5 5.4V3.6C16.5 3.54477 16.5448 3.5 16.6 3.5H16.9C16.9553 3.5 17 3.45523 17 3.4V3.1C17 3.04477 16.9553 3 16.9 3H14.6C14.5448 3 14.5 2.95523 14.5 2.9V2.6C14.5 2.54477 14.5448 2.5 14.6 2.5L16.9 2.5C16.9553 2.5 17 2.45523 17 2.4V2.1C17 2.04477 16.9553 2 16.9 2L2.1 2.00002ZM4.60002 3C4.5448 3 4.50002 2.95523 4.50002 2.9V2.60002C4.50002 2.54479 4.5448 2.50002 4.60002 2.50002L8.90002 2.50001C8.95525 2.50001 9.00002 2.54478 9.00002 2.60001V2.9C9.00002 2.95523 8.95525 3 8.90002 3H4.60002ZM9.60002 2.50001L13.9 2.5C13.9553 2.5 14 2.54477 14 2.6V2.9C14 2.95523 13.9553 3 13.9 3H9.60003C9.5448 3 9.50002 2.95523 9.50002 2.9V2.60001C9.50002 2.54478 9.5448 2.50001 9.60002 2.50001Z M11.4707 4.02929C11.4895 4.01054 11.5149 4 11.5414 4H11.9C11.9553 4 12 4.04477 12 4.1V5.9C12 5.95523 11.9553 6 11.9 6H9.74145C9.65236 6 9.60774 5.89229 9.67074 5.82929L11.4707 4.02929Z M13.0293 4.02929C13.0106 4.01054 12.9851 4 12.9586 4H12.6C12.5448 4 12.5 4.04477 12.5 4.1V5.9C12.5 5.95523 12.5448 6 12.6 6H14.7586C14.8477 6 14.8923 5.89229 14.8293 5.82929L13.0293 4.02929Z M10.4881 4.00299C10.496 4.001 10.5042 4 10.5123 4H10.9153C10.9364 4 10.9431 4.02845 10.9242 4.03789L7.02114 5.98944C7.00725 5.99639 6.99194 6 6.97642 6H2.90618C2.84722 6 2.83685 5.91579 2.89405 5.90149L10.4881 4.00299Z M1 7.1C1 7.04477 1.04477 7 1.1 7H17.9C17.9552 7 18 7.04477 18 7.1V7.9C18 7.95523 17.9552 8 17.9 8H1.1C1.04477 8 1 7.95523 1 7.9V7.1Z" fill="#fff"/><m:metadata><m:parameters><m:parameter m:name="color-1" m:type="color" m:value="#475DCD"/><m:parameter m:name="color-2" m:type="color" m:value="#F13B3B"/><m:parameter m:name="color-3" m:type="color" m:value="#FFFFFF"/></m:parameters></m:metadata></svg>