<svg id="ca-quebec-3" xmlns="http://www.w3.org/2000/svg" width="23" height="30" viewBox="0 0 23 30" xmlns:m="https://www.mapbox.com"><rect id="container" width="23" height="30" fill="none"/><path id="stroke" d="M1 2C1 1.44771 1.44772 1 2 1H21C21.5523 1 22 1.44772 22 2V15.5C22 20.9758 13.2546 23.5364 11.7264 23.9421C11.5751 23.9822 11.4249 23.9822 11.2736 23.9421C9.74542 23.5364 1 20.9758 1 15.5V2Z" fill="none" stroke="#fff" stroke-width="2"/><path id="body" d="M1 8H22V15.5C22 20.9758 13.2546 23.5364 11.7264 23.9421C11.5751 23.9822 11.4249 23.9822 11.2736 23.9421C9.74542 23.5364 1 20.9758 1 15.5V8Z" fill="#475DCD"/><path id="banner" d="M1 2C1 1.44772 1.44772 1 2 1H21C21.5523 1 22 1.44772 22 2V7H1V2Z" fill="#F13B3B"/><path id="bridge" d="M2 2.10002C2 2.0448 2.04477 2.00002 2.1 2.00002L20.9 2C20.9553 2 21 2.04477 21 2.1V2.4C21 2.45523 20.9553 2.5 20.9 2.5L17.6 2.5C17.5448 2.5 17.5 2.54477 17.5 2.6V2.9C17.5 2.95523 17.5448 3 17.6 3H20.9C20.9553 3 21 3.04477 21 3.1V3.4C21 3.45523 20.9553 3.5 20.9 3.5H20.6C20.5448 3.5 20.5 3.54477 20.5 3.6V5.4C20.5 5.45523 20.4552 5.5 20.4 5.5H18.5414C18.5149 5.5 18.4895 5.48946 18.4707 5.47071L18.0184 5.01835C18.0063 5.00632 17.9976 4.99141 17.9929 4.97504L17.5934 3.5726C17.5812 3.52964 17.5419 3.5 17.4972 3.5H5.44432C5.40264 3.5 5.36533 3.52586 5.35069 3.56489L5.01844 4.45084C5.00689 4.48162 4.98096 4.50476 4.94906 4.51273L3.12426 4.96894C3.06114 4.98471 3 4.93698 3 4.87192L3.00002 3.6C3.00002 3.54477 2.95525 3.5 2.90002 3.5H2.10007C2.04481 3.5 2.00003 3.45518 2.00007 3.39993L2.00028 3.09993C2.00032 3.04473 2.04508 3 2.10028 3H4.90002C4.95525 3 5.00002 2.95523 5.00002 2.9V2.60002C5.00002 2.54479 4.95525 2.50002 4.90002 2.50002L2.1 2.50002C2.04477 2.50002 2 2.45525 2 2.40002V2.10002ZM5.50002 2.9C5.50002 2.95523 5.5448 3 5.60002 3H10.9C10.9553 3 11 2.95523 11 2.9V2.60001C11 2.54478 10.9553 2.50001 10.9 2.50001L5.60002 2.50002C5.5448 2.50002 5.50002 2.54479 5.50002 2.60002V2.9ZM16.9 2.5L11.6 2.50001C11.5448 2.50001 11.5 2.54478 11.5 2.60001V2.9C11.5 2.95523 11.5448 3 11.6 3H16.9C16.9553 3 17 2.95523 17 2.9V2.6C17 2.54477 16.9553 2.5 16.9 2.5Z M1.1 7C1.04477 7 1 7.04477 1 7.1V7.9C1 7.95523 1.04477 8 1.1 8H21.9C21.9552 8 22 7.95523 22 7.9V7.1C22 7.04477 21.9552 7 21.9 7H1.1Z M11.0124 4C11.0042 4 10.9961 4.001 10.9881 4.00299L3.39411 5.90149C3.3369 5.91579 3.34727 6 3.40623 6H8.47647C8.492 6 8.50731 5.99639 8.52119 5.98944L12.4243 4.03789C12.4432 4.02845 12.4365 4 12.4154 4H11.0124Z M12.9708 4.02929C12.9895 4.01054 13.015 4 13.0415 4H13.9C13.9552 4 14 4.04477 14 4.1V5.9C14 5.95523 13.9552 6 13.9 6H11.2415C11.1524 6 11.1078 5.89229 11.1708 5.82929L12.9708 4.02929Z M15.5293 4.02929C15.5105 4.01054 15.4851 4 15.4586 4H14.6C14.5448 4 14.5 4.04477 14.5 4.1V5.9C14.5 5.95523 14.5448 6 14.6 6H17.2586C17.3477 6 17.3923 5.89229 17.3293 5.82929L15.5293 4.02929Z" fill="#fff"/><m:metadata><m:parameters><m:parameter m:name="color-1" m:type="color" m:value="#475DCD"/><m:parameter m:name="color-2" m:type="color" m:value="#F13B3B"/><m:parameter m:name="color-3" m:type="color" m:value="#FFFFFF"/></m:parameters></m:metadata></svg>