<svg id="ca-quebec-alt-3" xmlns="http://www.w3.org/2000/svg" width="23" height="29" viewBox="0 0 23 29" xmlns:m="https://www.mapbox.com"><rect id="container" width="23" height="29" fill="none"/><path id="stroke" d="M8.92963 21H3C1.89543 21 1 20.1046 1 19V2C1 1.44772 1.44772 1 2 1H21C21.5523 1 22 1.44772 22 2V19C22 20.1046 21.1046 21 20 21H14.0704C13.4017 21 12.7772 21.3342 12.4063 21.8906L12 22.5H11L10.5937 21.8906C10.2228 21.3342 9.59834 21 8.92963 21Z" fill="none" stroke="#fff" stroke-width="2"/><path id="body" d="M1 2C1 1.44772 1.44772 1 2 1H21C21.5523 1 22 1.44772 22 2V19C22 20.1046 21.1046 21 20 21H14.0704C13.4017 21 12.7772 21.3342 12.4063 21.8906L12 22.5H11L10.5937 21.8906C10.2228 21.3342 9.59834 21 8.92963 21H3C1.89543 21 1 20.1046 1 19V2Z" fill="#19A45C"/><path id="banner" d="M5.68933 2.00735C5.69592 2.00268 5.70389 2.00268 5.71047 2.00735C5.79065 2.06423 6.29986 2.44725 6.29986 3.00001V3.45001C6.29986 3.47762 6.32224 3.50001 6.34986 3.50001H6.6499C7.06412 3.50001 7.3999 3.8358 7.3999 4.25001C7.3999 4.4291 7.33713 4.59353 7.23239 4.7225C7.22058 4.73704 7.19736 4.72751 7.19678 4.70879C7.18848 4.43723 6.99221 4.20002 6.69995 4.20002H6.34986C6.32224 4.20002 6.29986 4.22241 6.29986 4.25002V4.6762C6.29986 4.68935 6.31052 4.70001 6.32367 4.70001H6.64995C6.7328 4.70001 6.79995 4.76717 6.79995 4.85001C6.79995 4.93285 6.7328 5.00001 6.64995 5.00001H5.94281C5.91914 5.00001 5.89975 5.01939 5.90157 5.04299C5.92294 5.31981 6.15062 5.38199 6.25183 5.39596C6.26948 5.3984 6.27832 5.42155 6.26572 5.43415L5.7141 5.98587C5.70629 5.99368 5.69362 5.99368 5.68581 5.98587L5.13401 5.43415C5.1214 5.42155 5.13024 5.3984 5.1479 5.39596C5.24915 5.382 5.47695 5.31982 5.49833 5.04299C5.50016 5.01939 5.48076 5.00001 5.4571 5.00001H4.74998C4.66713 5.00001 4.59998 4.93285 4.59998 4.85001C4.59998 4.76717 4.66713 4.70001 4.74998 4.70001H5.07605C5.0892 4.70001 5.09986 4.68935 5.09986 4.67621V4.25002C5.09986 4.22241 5.07747 4.20002 5.04986 4.20002H4.69995C4.42315 4.20002 4.19986 4.43409 4.20008 4.7028C4.2001 4.72218 4.17578 4.73289 4.16369 4.71775C4.06124 4.5895 4 4.42691 4 4.25001C4 3.8358 4.33579 3.50001 4.75 3.50001H5.04986C5.07747 3.50001 5.09986 3.47762 5.09986 3.45001V3.00001C5.09986 2.44724 5.60915 2.06423 5.68933 2.00735Z M22 7.00001V8.00001H1V7.00001H22Z M11.5105 2.00735C11.5039 2.00268 11.496 2.00268 11.4894 2.00735C11.4092 2.06423 10.8999 2.44724 10.8999 3.00001V3.45001C10.8999 3.47762 10.8775 3.50001 10.8499 3.50001H10.55C10.1358 3.50001 9.80005 3.8358 9.80005 4.25001C9.80005 4.42691 9.86129 4.5895 9.96374 4.71775C9.97583 4.73289 10.0001 4.72218 10.0001 4.7028C9.99991 4.43409 10.2232 4.20002 10.5 4.20002H10.8499C10.8775 4.20002 10.8999 4.22241 10.8999 4.25002V4.67621C10.8999 4.68935 10.8892 4.70001 10.8761 4.70001H10.55C10.4672 4.70001 10.4 4.76717 10.4 4.85001C10.4 4.93285 10.4672 5.00001 10.55 5.00001H11.2571C11.2808 5.00001 11.3002 5.01939 11.2984 5.04299C11.277 5.31982 11.0492 5.382 10.9479 5.39596C10.9303 5.3984 10.9215 5.42155 10.9341 5.43415L11.4859 5.98587C11.4937 5.99368 11.5063 5.99368 11.5141 5.98587L12.0658 5.43415C12.0784 5.42155 12.0695 5.3984 12.0519 5.39596C11.9507 5.38199 11.723 5.31981 11.7016 5.04299C11.6998 5.01939 11.7192 5.00001 11.7429 5.00001H12.45C12.5328 5.00001 12.6 4.93285 12.6 4.85001C12.6 4.76717 12.5328 4.70001 12.45 4.70001H12.1237C12.1106 4.70001 12.0999 4.68935 12.0999 4.6762V4.25002C12.0999 4.22241 12.1223 4.20002 12.1499 4.20002H12.5C12.7923 4.20002 12.9885 4.43723 12.9968 4.70879C12.9974 4.72751 13.0206 4.73704 13.0324 4.7225C13.1372 4.59353 13.2 4.4291 13.2 4.25001C13.2 3.8358 12.8642 3.50001 12.45 3.50001H12.1499C12.1223 3.50001 12.0999 3.47762 12.0999 3.45001V3.00001C12.0999 2.44725 11.5907 2.06423 11.5105 2.00735Z M17.2894 2.00735C17.296 2.00268 17.304 2.00268 17.3106 2.00735C17.3908 2.06423 17.9 2.44725 17.9 3.00001V3.45001C17.9 3.47762 17.9223 3.50001 17.95 3.50001H18.25C18.6642 3.50001 19 3.8358 19 4.25001C19 4.4291 18.9372 4.59353 18.8325 4.7225C18.8207 4.73704 18.7975 4.72751 18.7969 4.70879C18.7886 4.43723 18.5923 4.20002 18.3 4.20002H17.95C17.9223 4.20002 17.9 4.22241 17.9 4.25002V4.6762C17.9 4.68935 17.9106 4.70001 17.9238 4.70001H18.2501C18.3329 4.70001 18.4001 4.76717 18.4001 4.85001C18.4001 4.93285 18.3329 5.00001 18.2501 5.00001H17.5429C17.5192 5.00001 17.4998 5.01939 17.5017 5.04299C17.523 5.31981 17.7507 5.38199 17.8519 5.39596C17.8696 5.3984 17.8784 5.42155 17.8658 5.43415L17.3142 5.98587C17.3064 5.99368 17.2937 5.99368 17.2859 5.98587L16.7341 5.43415C16.7215 5.42155 16.7303 5.3984 16.748 5.39596C16.8492 5.382 17.077 5.31982 17.0984 5.04299C17.1003 5.01939 17.0809 5.00001 17.0572 5.00001H16.3501C16.2672 5.00001 16.2001 4.93285 16.2001 4.85001C16.2001 4.76717 16.2672 4.70001 16.3501 4.70001H16.6762C16.6893 4.70001 16.7 4.68935 16.7 4.67621V4.25002C16.7 4.22241 16.6776 4.20002 16.65 4.20002H16.3C16.0232 4.20002 15.8 4.43409 15.8002 4.7028C15.8002 4.72218 15.7759 4.73289 15.7638 4.71775C15.6613 4.5895 15.6001 4.42691 15.6001 4.25001C15.6001 3.8358 15.9359 3.50001 16.3501 3.50001H16.65C16.6776 3.50001 16.7 3.47762 16.7 3.45001V3.00001C16.7 2.44724 17.2092 2.06423 17.2894 2.00735Z" fill="#fff"/><m:metadata><m:parameters><m:parameter m:name="color-1" m:type="color" m:value="#19A45C"/><m:parameter m:name="color-2" m:type="color" m:value="#FFFFFF"/></m:parameters></m:metadata></svg>