<svg id="ca-saskatchewan-country-3" xmlns="http://www.w3.org/2000/svg" width="25" height="31" viewBox="0 0 25 31" xmlns:m="https://www.mapbox.com"><rect id="container" width="25" height="31" fill="none"/><path id="stroke" d="M22 1H3C1.89543 1 1 1.89543 1 3V23C1 24.1046 1.89543 25 3 25H22C23.1046 25 24 24.1046 24 23V3C24 1.89543 23.1046 1 22 1Z" fill="none" stroke="#475DCD" stroke-width="2"/><path id="body" d="M22 1H3C1.89543 1 1 1.89543 1 3V23C1 24.1046 1.89543 25 3 25H22C23.1046 25 24 24.1046 24 23V3C24 1.89543 23.1046 1 22 1Z" fill="#fff"/><path id="banner" d="M3 2C2.44772 2 2 2.44772 2 3V8H23V3C23 2.44772 22.5523 2 22 2H3ZM6.74338 3C7.82552 3 8.4117 3.87764 8.48546 4.60517C8.49252 4.67485 8.42307 4.72374 8.35745 4.69923L8.28065 4.67055C7.82633 4.50087 7.35292 4.87049 7.40734 5.3524C7.41622 5.43109 7.35466 5.5 7.27547 5.5H6.20646C6.12686 5.5 6.06489 5.43089 6.07354 5.35176C6.12621 4.86992 5.65197 4.50202 5.19834 4.67283L5.12862 4.69908C5.06323 4.7237 4.99375 4.67527 5.00045 4.60572C5.07052 3.87807 5.66119 3 6.74338 3ZM6.13718 6H7.34645C7.42278 6 7.48694 6.05732 7.4955 6.13317L7.57455 6.83317C7.58459 6.92211 7.515 7 7.42549 7H6.06067C5.97138 7 5.90186 6.92247 5.91156 6.8337L5.98807 6.1337C5.99639 6.05762 6.06065 6 6.13718 6ZM18.2549 3C19.337 3 19.9232 3.87764 19.9969 4.60517C20.004 4.67485 19.9346 4.72374 19.8689 4.69923L19.7921 4.67055C19.3378 4.50087 18.8644 4.87049 18.9188 5.3524C18.9277 5.43109 18.8661 5.5 18.787 5.5H17.7179C17.6383 5.5 17.5764 5.43089 17.585 5.35176C17.6377 4.86992 17.1634 4.50202 16.7098 4.67283L16.6401 4.69908C16.5747 4.7237 16.5052 4.67527 16.5119 4.60572C16.582 3.87807 17.1727 3 18.2549 3ZM17.6487 6H18.8579C18.9343 6 18.9984 6.05732 19.007 6.13317L19.086 6.83317C19.0961 6.92211 19.0265 7 18.937 7H17.5722C17.4829 7 17.4133 6.92247 17.423 6.8337L17.4996 6.1337C17.5079 6.05762 17.5721 6 17.6487 6ZM14.2425 4.60517C14.2496 4.67485 14.1801 4.72374 14.1145 4.69923L14.0377 4.67055C13.5834 4.50087 13.11 4.87049 13.1644 5.3524C13.1733 5.43109 13.1117 5.5 13.0325 5.5H11.9635C11.8839 5.5 11.822 5.43089 11.8306 5.35176C11.8833 4.86992 11.409 4.50202 10.9554 4.67283L10.8857 4.69908C10.8203 4.7237 10.7508 4.67527 10.7575 4.60572C10.8276 3.87807 11.4183 3 12.5005 3C13.5826 3 14.1688 3.87764 14.2425 4.60517ZM13.1035 6C13.1799 6 13.244 6.05732 13.2526 6.13317L13.3316 6.83317C13.3417 6.92211 13.2721 7 13.1826 7H11.8178C11.7285 7 11.6589 6.92247 11.6686 6.8337L11.7452 6.1337C11.7535 6.05762 11.8177 6 11.8943 6H13.1035Z M21.4519 21.1375L12.8808 23.8432C12.6369 23.9436 12.3631 23.9436 12.1193 23.8432L3.54813 21.1375C2.61137 20.7517 2 19.8388 2 18.8258V9H23V18.8258C23 19.8388 22.3886 20.7517 21.4519 21.1375ZM12.29 23.3728L12.3096 23.3809C12.4316 23.4311 12.5684 23.4311 12.6904 23.3809L12.71 23.3728L21.28 20.6674C22.0189 20.3545 22.5 19.6295 22.5 18.8258V9.5H2.5V18.8258C2.5 19.6295 2.98106 20.3545 3.72 20.6674L12.29 23.3728Z" fill="#475DCD"/><m:metadata><m:parameters><m:parameter m:name="color-1" m:type="color" m:value="#475DCD"/><m:parameter m:name="color-2" m:type="color" m:value="#FFFFFF"/></m:parameters></m:metadata></svg>