<svg id="ca-saskatchewan-2" xmlns="http://www.w3.org/2000/svg" width="21" height="30" viewBox="0 0 21 30" xmlns:m="https://www.mapbox.com"><rect id="container" width="21" height="30" fill="none"/><path id="stroke" d="M18 1H3C1.89543 1 1 1.89543 1 3V22C1 23.1046 1.89543 24 3 24H18C19.1046 24 20 23.1046 20 22V3C20 1.89543 19.1046 1 18 1Z" fill="none" stroke="#475DCD" stroke-width="2"/><path id="body" d="M18 1H3C1.89543 1 1 1.89543 1 3V22C1 23.1046 1.89543 24 3 24H18C19.1046 24 20 23.1046 20 22V3C20 1.89543 19.1046 1 18 1Z" fill="#fff"/><path id="banner" d="M2 3C2 2.44772 2.44772 2 3 2H18C18.5523 2 19 2.44772 19 3V8H2V3ZM7.48546 4.60517C7.4117 3.87764 6.82552 3 5.74338 3C4.66119 3 4.07052 3.87807 4.00045 4.60572C3.99375 4.67527 4.06323 4.7237 4.12862 4.69908L4.19834 4.67283C4.65197 4.50202 5.12621 4.86992 5.07354 5.35176C5.06489 5.43089 5.12686 5.5 5.20646 5.5H6.27547C6.35466 5.5 6.41622 5.43109 6.40734 5.3524C6.35292 4.87049 6.82633 4.50087 7.28065 4.67055L7.35745 4.69923C7.42307 4.72374 7.49252 4.67485 7.48546 4.60517ZM6.34645 6H5.13718C5.06065 6 4.99639 6.05762 4.98807 6.1337L4.91156 6.8337C4.90186 6.92247 4.97138 7 5.06067 7H6.42549C6.515 7 6.58459 6.92211 6.57455 6.83317L6.4955 6.13317C6.48694 6.05732 6.42278 6 6.34645 6ZM16.9969 4.60517C16.9232 3.87764 16.337 3 15.2549 3C14.1727 3 13.582 3.87807 13.5119 4.60572C13.5052 4.67527 13.5747 4.7237 13.6401 4.69908L13.7098 4.67283C14.1634 4.50202 14.6377 4.86992 14.585 5.35176C14.5764 5.43089 14.6383 5.5 14.7179 5.5H15.787C15.8661 5.5 15.9277 5.43109 15.9188 5.3524C15.8644 4.87049 16.3378 4.50087 16.7921 4.67055L16.8689 4.69923C16.9346 4.72374 17.004 4.67485 16.9969 4.60517ZM15.8579 6H14.6487C14.5721 6 14.5079 6.05762 14.4996 6.1337L14.423 6.8337C14.4133 6.92247 14.4829 7 14.5722 7H15.937C16.0265 7 16.0961 6.92211 16.086 6.83317L16.007 6.13317C15.9984 6.05732 15.9343 6 15.8579 6ZM12.1145 4.69923C12.1801 4.72374 12.2496 4.67485 12.2425 4.60517C12.1688 3.87764 11.5826 3 10.5005 3C9.41827 3 8.8276 3.87807 8.75753 4.60572C8.75083 4.67527 8.82031 4.7237 8.8857 4.69908L8.95542 4.67283C9.40905 4.50202 9.88329 4.86992 9.83062 5.35176C9.82197 5.43089 9.88394 5.5 9.96354 5.5H11.0325C11.1117 5.5 11.1733 5.43109 11.1644 5.3524C11.11 4.87049 11.5834 4.50087 12.0377 4.67055L12.1145 4.69923ZM11.2526 6.13317C11.244 6.05732 11.1799 6 11.1035 6H9.89427C9.81773 6 9.75347 6.05762 9.74515 6.1337L9.66864 6.8337C9.65894 6.92247 9.72846 7 9.81775 7H11.1826C11.2721 7 11.3417 6.92211 11.3316 6.83317L11.2526 6.13317Z M2 9H19V17.8258C19 18.8388 18.3886 19.7517 17.4519 20.1375L10.8808 22.8432C10.6369 22.9436 10.3631 22.9436 10.1193 22.8432L3.54813 20.1375C2.61137 19.7517 2 18.8388 2 17.8258V9Z" fill="#475DCD"/><m:metadata><m:parameters><m:parameter m:name="color-1" m:type="color" m:value="#475DCD"/><m:parameter m:name="color-2" m:type="color" m:value="#FFFFFF"/></m:parameters></m:metadata></svg>