<svg id="ca-saskatchewan-3" xmlns="http://www.w3.org/2000/svg" width="25" height="31" viewBox="0 0 25 31" xmlns:m="https://www.mapbox.com"><rect id="container" width="25" height="31" fill="none"/><path id="stroke" d="M22 1H3C1.89543 1 1 1.89543 1 3V23C1 24.1046 1.89543 25 3 25H22C23.1046 25 24 24.1046 24 23V3C24 1.89543 23.1046 1 22 1Z" fill="none" stroke="#475DCD" stroke-width="2"/><path id="body" d="M22 1H3C1.89543 1 1 1.89543 1 3V23C1 24.1046 1.89543 25 3 25H22C23.1046 25 24 24.1046 24 23V3C24 1.89543 23.1046 1 22 1Z" fill="#fff"/><path id="banner" d="M2 3C2 2.44772 2.44772 2 3 2H22C22.5523 2 23 2.44772 23 3V8H2V3ZM8.48546 4.60517C8.4117 3.87764 7.82552 3 6.74338 3C5.66119 3 5.07052 3.87807 5.00045 4.60572C4.99375 4.67527 5.06323 4.7237 5.12862 4.69908L5.19834 4.67283C5.65197 4.50202 6.12621 4.86992 6.07354 5.35176C6.06489 5.43089 6.12686 5.5 6.20646 5.5H7.27547C7.35466 5.5 7.41622 5.43109 7.40734 5.3524C7.35292 4.87049 7.82633 4.50087 8.28065 4.67055L8.35745 4.69923C8.42307 4.72374 8.49252 4.67485 8.48546 4.60517ZM7.34645 6H6.13718C6.06065 6 5.99639 6.05762 5.98807 6.1337L5.91156 6.8337C5.90186 6.92247 5.97138 7 6.06067 7H7.42549C7.515 7 7.58459 6.92211 7.57455 6.83317L7.4955 6.13317C7.48694 6.05732 7.42278 6 7.34645 6ZM19.9969 4.60517C19.9232 3.87764 19.337 3 18.2549 3C17.1727 3 16.582 3.87807 16.5119 4.60572C16.5052 4.67527 16.5747 4.7237 16.6401 4.69908L16.7098 4.67283C17.1634 4.50202 17.6377 4.86992 17.585 5.35176C17.5764 5.43089 17.6383 5.5 17.7179 5.5H18.787C18.8661 5.5 18.9277 5.43109 18.9188 5.3524C18.8644 4.87049 19.3378 4.50087 19.7921 4.67055L19.8689 4.69923C19.9346 4.72374 20.004 4.67485 19.9969 4.60517ZM18.8579 6H17.6487C17.5721 6 17.5079 6.05762 17.4996 6.1337L17.423 6.8337C17.4133 6.92247 17.4829 7 17.5722 7H18.937C19.0265 7 19.0961 6.92211 19.086 6.83317L19.007 6.13317C18.9984 6.05732 18.9343 6 18.8579 6ZM14.1145 4.69923C14.1801 4.72374 14.2496 4.67485 14.2425 4.60517C14.1688 3.87764 13.5826 3 12.5005 3C11.4183 3 10.8276 3.87807 10.7575 4.60572C10.7508 4.67527 10.8203 4.7237 10.8857 4.69908L10.9554 4.67283C11.409 4.50202 11.8833 4.86992 11.8306 5.35176C11.822 5.43089 11.8839 5.5 11.9635 5.5H13.0325C13.1117 5.5 13.1733 5.43109 13.1644 5.3524C13.11 4.87049 13.5834 4.50087 14.0377 4.67055L14.1145 4.69923ZM13.2526 6.13317C13.244 6.05732 13.1799 6 13.1035 6H11.8943C11.8177 6 11.7535 6.05762 11.7452 6.1337L11.6686 6.8337C11.6589 6.92247 11.7285 7 11.8178 7H13.1826C13.2721 7 13.3417 6.92211 13.3316 6.83317L13.2526 6.13317Z M2 9H23V18.8258C23 19.8388 22.3886 20.7517 21.4519 21.1375L12.8808 23.8432C12.6369 23.9436 12.3631 23.9436 12.1193 23.8432L3.54813 21.1375C2.61137 20.7517 2 19.8388 2 18.8258V9Z" fill="#475DCD"/><m:metadata><m:parameters><m:parameter m:name="color-1" m:type="color" m:value="#475DCD"/><m:parameter m:name="color-2" m:type="color" m:value="#FFFFFF"/></m:parameters></m:metadata></svg>