<svg id="ca-saskatchewan-alt-3" xmlns="http://www.w3.org/2000/svg" width="25" height="50" viewBox="0 0 25 50" xmlns:m="https://www.mapbox.com"><rect id="container" width="25" height="50" fill="none"/><path id="stroke" d="M22 1H3C1.89543 1 1 1.89543 1 3V30C1 31.1046 1.89543 32 3 32H22C23.1046 32 24 31.1046 24 30V3C24 1.89543 23.1046 1 22 1Z" fill="none" stroke="#19A45C" stroke-width="2"/><path id="body" d="M22 1H3C1.89543 1 1 1.89543 1 3V30C1 31.1046 1.89543 32 3 32H22C23.1046 32 24 31.1046 24 30V3C24 1.89543 23.1046 1 22 1Z" fill="#fff"/><path id="banner" d="M14.5218 11.6488C14.5073 11.5909 14.5 11.5313 14.5 11.4716C14.5 10.9121 15.0119 10.4925 15.5605 10.6022L15.8785 10.6658C15.9118 10.6725 15.9463 10.6678 15.9766 10.6527L16.2562 10.5129C16.4844 10.3988 16.664 10.2064 16.7622 9.9708L16.9461 9.52936C17.0268 9.3356 17.1366 9.15525 17.2716 8.99453L17.3217 8.93487C17.5733 8.63532 17.6165 8.21251 17.4306 7.86829C17.3676 7.75148 17.3165 7.62854 17.2784 7.50138L17.098 6.89994C17.0713 6.81098 17.0229 6.73004 16.9573 6.66437L16.8232 6.53033C16.6163 6.32337 16.5 6.04268 16.5 5.75C16.5 5.72254 16.4891 5.6962 16.4697 5.67678L16.2872 5.4943C16.232 5.43908 16.1682 5.39312 16.0984 5.3582L15.534 5.07604C15.3153 4.96668 15.1157 4.82277 14.9428 4.64986C14.8028 4.50989 14.6321 4.40443 14.4443 4.34183L13.953 4.17803C13.5992 4.06011 13.2288 4 12.8559 4H11.8536C11.7598 4 11.6699 4.03725 11.6036 4.10355L11.5788 4.12835C11.3408 4.36631 11.018 4.5 10.6815 4.5C10.6398 4.5 10.5986 4.50972 10.5613 4.52839L9.35606 5.13099C8.98523 5.3164 8.64672 5.56039 8.35355 5.85355L8.07876 6.12835C8.02833 6.17878 8 6.24717 8 6.31849C8 6.51548 7.95414 6.70976 7.86604 6.88596L7.69721 7.22361C7.56752 7.48299 7.5 7.76901 7.5 8.05902V8.38893C7.5 8.73992 7.55659 9.08862 7.66758 9.4216L7.89317 10.0984C7.922 10.1849 7.97059 10.2635 8.03507 10.328C8.13053 10.4234 8.25548 10.4826 8.3885 10.4967L9.13167 10.1251C9.53061 9.92568 10 10.2158 10 10.6618V11.5C10 12.203 9.8068 13.0653 9.59984 13.7969C9.38972 14.5397 9.15139 15.195 9.03596 15.5001C9.01175 15.564 9 15.6281 9 15.6902C9 15.9227 9.16411 16.1229 9.39211 16.1685L10.8286 16.4558C10.9755 16.4852 11.125 16.5 11.2748 16.5H12.7293C12.8819 16.5 13.0343 16.4874 13.1848 16.4623L15.0566 16.1503C15.3125 16.1077 15.5 15.8863 15.5 15.6269C15.5 15.5835 15.4947 15.5403 15.4842 15.4982L14.5218 11.6488L15.0069 11.5276L15.9692 15.3769C15.9897 15.4587 16 15.5426 16 15.6269C16 16.1307 15.6357 16.5607 15.1388 16.6435L13.267 16.9555C13.0893 16.9851 12.9095 17 12.7293 17H11.2748C11.092 17 10.9098 16.982 10.7306 16.9461L9.29405 16.6588C8.83234 16.5665 8.5 16.1611 8.5 15.6902C8.5 15.5646 8.52385 15.4406 8.56832 15.3231C8.79381 14.7272 9.5 12.7605 9.5 11.5V10.6618C9.5 10.5875 9.42177 10.5391 9.35528 10.5724L8.51233 10.9938C8.50422 10.9979 8.49528 11 8.48621 11H8.45041C8.16202 11 7.88544 10.8854 7.68151 10.6815C7.56214 10.5621 7.47221 10.4166 7.41883 10.2565L7.19324 9.57971C7.06525 9.19575 7 8.79366 7 8.38893V8.05902C7 7.69139 7.08559 7.32881 7.25 7L7.41883 6.66235C7.47221 6.55558 7.5 6.43786 7.5 6.31849C7.5 6.11456 7.58101 5.91899 7.7252 5.7748L8 5.5C8.33117 5.16883 8.71356 4.89322 9.13246 4.68377L10.3377 4.08117C10.4444 4.02779 10.5621 4 10.6815 4C10.8854 4 11.081 3.91899 11.2252 3.7748L11.25 3.75C11.4101 3.58993 11.6272 3.5 11.8536 3.5H12.8559C13.2825 3.5 13.7063 3.56878 14.1111 3.70369L14.6025 3.86749C14.8639 3.95463 15.1014 4.10145 15.2963 4.29631C15.4312 4.43122 15.587 4.5435 15.7576 4.62882L16.322 4.91098C16.4399 4.96994 16.5475 5.04752 16.6407 5.14075L16.8232 5.32322C16.9364 5.43641 17 5.58993 17 5.75C17 5.91007 17.0636 6.06359 17.1768 6.17678L17.3108 6.31082C17.435 6.435 17.5264 6.58805 17.5769 6.75626L17.7573 7.35771C17.7857 7.45232 17.8237 7.5438 17.8706 7.63072C18.1539 8.15539 18.0881 8.79988 17.7046 9.25646L17.6545 9.31612C17.5521 9.438 17.4689 9.57475 17.4076 9.72167L17.2237 10.1631C17.0794 10.5094 16.8154 10.7923 16.4798 10.9601L16.2002 11.0999C16.0705 11.1648 15.9228 11.1846 15.7805 11.1561L15.4624 11.0925C15.2232 11.0446 15 11.2276 15 11.4716C15 11.4905 15.0023 11.5093 15.0069 11.5276L14.5218 11.6488Z M14 11.4716C14 11.5722 14.0123 11.6725 14.0367 11.7701L14.9991 15.6194C14.9997 15.6219 15 15.6244 15 15.6269C15 15.6419 14.9892 15.6547 14.9744 15.6571L13.1026 15.9691C12.9792 15.9897 12.8544 16 12.7293 16H11.2748C11.1579 16 11.0413 15.9885 10.9267 15.9655L9.50608 15.6814C9.50409 15.681 9.50291 15.6789 9.50359 15.677C9.62172 15.3649 9.86545 14.6948 10.081 13.933C10.2834 13.2173 10.4865 12.3345 10.4994 11.5752C12.0713 12.0588 12.9179 12.0374 13.5316 11.7498C13.7093 11.6665 13.8617 11.5631 14.0001 11.4541L14 11.4716Z M14.7819 10.2234C14.7211 10.253 14.6626 10.287 14.6069 10.3249C14.352 10.4843 14.1531 10.6606 13.9754 10.818L13.9717 10.8213C13.7455 11.0217 13.5602 11.1842 13.3194 11.297C12.8638 11.5106 12.1394 11.5738 10.5 11.0514V10.6618C10.5 9.84409 9.63946 9.31223 8.90806 9.67793L8.62776 9.81808C8.49172 9.8861 8.32698 9.8179 8.27882 9.67363L8.14192 9.26348C8.04792 8.98149 8 8.68618 8 8.38893V8.05902C8 7.84664 8.04945 7.63717 8.14443 7.44721L8.31325 7.10956C8.40706 6.92194 8.46652 6.7196 8.48937 6.51211C8.4961 6.45098 8.5213 6.39292 8.56478 6.34944L8.70711 6.20711C8.96227 5.95194 9.25691 5.73958 9.57967 5.5782L10.6888 5.02362C10.7211 5.00747 10.7566 4.99878 10.7926 4.99651C11.179 4.9722 11.5467 4.82174 11.8392 4.56855C11.8884 4.52598 11.9503 4.5 12.0154 4.5H12.8559C13.175 4.5 13.4921 4.55145 13.7948 4.65237L14.2862 4.81617C14.4004 4.85422 14.5041 4.91833 14.5892 5.00342C14.8001 5.21433 15.0437 5.38986 15.3104 5.52325L15.8748 5.80541C15.8965 5.8163 15.9164 5.83063 15.9336 5.84785L15.9472 5.86141C15.9875 5.90168 16.0121 5.95463 16.0213 6.01082C16.0755 6.3394 16.2311 6.64535 16.4697 6.88388L16.6037 7.01792C16.6109 7.02508 16.6161 7.03391 16.6191 7.04361L16.7995 7.64506C16.8474 7.80476 16.9115 7.95916 16.9907 8.10587C17.0791 8.26962 17.0586 8.47077 16.9389 8.61327L16.8887 8.67293C16.7211 8.87251 16.5848 9.09645 16.4846 9.33705L16.3006 9.77849C16.2486 9.90329 16.1535 10.0052 16.0326 10.0657L15.9364 10.1138C15.8867 10.1386 15.8301 10.1462 15.7756 10.1353L15.6585 10.1119C15.3559 10.0514 15.0604 10.0938 14.8047 10.2126L14.8042 10.2116L14.7819 10.2234Z M3 2C2.44772 2 2 2.44772 2 3V18.5H23V3C23 2.44772 22.5523 2 22 2H3ZM22 2.5C22.2761 2.5 22.5 2.72386 22.5 3V18H2.5V3C2.5 2.72386 2.72386 2.5 3 2.5H22Z M2 19V30C2 30.5523 2.44772 31 3 31H22C22.5523 31 23 30.5523 23 30V19H2ZM22.5 19.5V30C22.5 30.2761 22.2761 30.5 22 30.5H3C2.72386 30.5 2.5 30.2761 2.5 30V19.5H22.5Z" fill="#19A45C"/><m:metadata><m:parameters><m:parameter m:name="color-1" m:type="color" m:value="#19A45C"/><m:parameter m:name="color-2" m:type="color" m:value="#FFFFFF"/></m:parameters></m:metadata></svg>