<svg id="ca-transcanada-2" xmlns="http://www.w3.org/2000/svg" width="22" height="24" viewBox="0 0 22 24" xmlns:m="https://www.mapbox.com"><rect id="container" width="22" height="24" fill="none"/><path id="stroke" d="M19 1H3C1.89543 1 1 1.89543 1 3V19C1 20.1046 1.89543 21 3 21H19C20.1046 21 21 20.1046 21 19V3C21 1.89543 20.1046 1 19 1Z" fill="none" stroke="#fff" stroke-width="2"/><path id="body" d="M19 1H3C1.89543 1 1 1.89543 1 3V19C1 20.1046 1.89543 21 3 21H19C20.1046 21 21 20.1046 21 19V3C21 1.89543 20.1046 1 19 1Z" fill="#19A45C"/><path id="leaf" d="M3.78942 17L4.75085 17C4.88329 17 5.01032 17.0527 5.10397 17.1464L5.69993 17.7431C6.17219 18.216 6.84924 18.4212 7.50416 18.2901L7.73578 18.2437C8.51502 18.0877 9.21833 17.5956 9.81339 17.0683C10.0196 16.8855 10.252 16.7181 10.4949 16.6131V19.75C10.4949 19.8881 10.6066 20 10.7446 20H11.2439C11.3818 20 11.4936 19.8881 11.4936 19.75V16.6131C11.7365 16.7182 11.9688 16.8856 12.1749 17.0683C12.77 17.5956 13.4849 18.0877 14.2641 18.2437L14.4958 18.2901C15.1507 18.4212 15.8277 18.216 16.3 17.7431L16.8959 17.1464C16.9896 17.0527 17.1166 17 17.2491 17L18.2105 17C18.3093 17 18.3481 16.8717 18.2659 16.8168L17.0699 16.0185C17.0519 16.0064 17.0306 16 17.0089 16C16.8928 16 16.8559 15.8433 16.9597 15.7913L17.8316 15.3548C18.2945 15.1231 18.6818 14.764 18.9481 14.3197L19.983 12.5926C20.013 12.5427 19.9941 12.4778 19.9421 12.4517L19.3072 12.1339C19.1433 12.0518 19.0398 11.8841 19.0398 11.7006C19.0398 11.5722 19.0907 11.449 19.1815 11.3581L19.3929 11.1464C19.4865 11.0527 19.5391 10.9255 19.5391 10.7929V9.58114C19.5391 9.5274 19.5478 9.47401 19.5648 9.42303L19.9947 8.13162C20.0163 8.06687 19.9681 8 19.9 8H19.1208C19.0671 8 19.0138 8.00867 18.9629 8.02566L17.9206 8.37351C17.7644 8.42563 17.6159 8.27688 17.6679 8.12053L18.0031 7.11384C18.0187 7.06694 17.9741 7.02231 17.9273 7.03795L16.6197 7.47434C16.5688 7.49134 16.5155 7.5 16.4618 7.5H15.5773C15.4265 7.5 15.3314 7.33704 15.379 7.19376C15.5462 6.68985 15.3199 6.44558 15.068 6.17365C14.7595 5.84065 14.4126 5.46617 14.703 4.52259C14.7279 4.44156 14.7234 4.35203 14.6851 4.27639C14.6078 4.12351 14.4209 4.05982 14.2612 4.12153C13.9503 4.24168 13.3535 4.41618 12.7073 4.4776C12.4464 4.50241 12.2342 4.29491 12.1757 4.03906C12.0574 3.52085 11.818 3.1808 11.5799 2.8426C11.4167 2.61074 11.2541 2.37975 11.1315 2.09283C11.1078 2.03748 11.0543 2.00001 10.9942 2C10.934 2.00001 10.8805 2.03748 10.8568 2.09283C10.7342 2.37975 10.5716 2.61074 10.4084 2.84259C10.1703 3.18079 9.93094 3.52085 9.81259 4.03906C9.75415 4.29491 9.54195 4.50241 9.28099 4.4776C8.63476 4.41618 8.04965 4.24168 7.73871 4.12153C7.57902 4.05982 7.39214 4.12351 7.31479 4.27639C7.27651 4.35203 7.272 4.44156 7.29694 4.52259C7.58729 5.46617 7.24038 5.84065 6.93189 6.17365C6.67999 6.44558 6.4537 6.68985 6.62095 7.19376C6.66851 7.33704 6.57337 7.5 6.42257 7.5H5.53813C5.48445 7.5 5.43113 7.49134 5.38021 7.47434L4.07263 7.03795C4.02578 7.02231 3.98121 7.06694 3.99683 7.11384L4.33198 8.12053C4.38403 8.27688 4.23547 8.42563 4.07931 8.37351L3.03704 8.02566C2.98612 8.00867 2.93279 8 2.87912 8H2.09995C2.03178 8 1.98364 8.06687 2.0052 8.13162L2.43514 9.42303C2.45211 9.47401 2.46077 9.5274 2.46077 9.58114V10.7929C2.46077 10.9255 2.51338 11.0527 2.60704 11.1464L2.81846 11.3581C2.90919 11.449 2.96016 11.5722 2.96016 11.7006C2.96016 11.8841 2.85662 12.0518 2.69273 12.1339L2.05785 12.4517C2.00581 12.4778 1.98694 12.5427 2.01687 12.5926L3.05185 14.3197C3.31811 14.764 3.70541 15.1231 4.1683 15.3548L5.04022 15.7913C5.14406 15.8433 5.10712 16 4.99102 16C4.96929 16 4.94806 16.0064 4.92998 16.0185L3.73401 16.8168C3.65179 16.8717 3.6906 17 3.78942 17Z" fill="#fff"/><m:metadata><m:parameters><m:parameter m:name="color-1" m:type="color" m:value="#19A45C"/><m:parameter m:name="color-2" m:type="color" m:value="#FFFFFF"/></m:parameters></m:metadata></svg>