<svg id="ca-transcanada-3" xmlns="http://www.w3.org/2000/svg" width="26" height="24" viewBox="0 0 26 24" xmlns:m="https://www.mapbox.com"><rect id="container" width="26" height="24" fill="none"/><path id="stroke" d="M23 1H3C1.89543 1 1 1.89543 1 3V19C1 20.1046 1.89543 21 3 21H23C24.1046 21 25 20.1046 25 19V3C25 1.89543 24.1046 1 23 1Z" fill="none" stroke="#fff" stroke-width="2"/><path id="body" d="M23 1H3C1.89543 1 1 1.89543 1 3V19C1 20.1046 1.89543 21 3 21H23C24.1046 21 25 20.1046 25 19V3C25 1.89543 24.1046 1 23 1Z" fill="#19A45C"/><path id="leaf" d="M4.22559 17.5L5.52267 17.5C5.61585 17.5 5.70615 17.5322 5.77827 17.5912C6.85013 18.4682 8.29677 18.7344 9.61062 18.2965L9.80191 18.2327C10.2587 18.0805 10.6603 17.8005 11.0194 17.4798C11.3936 17.1455 11.9304 16.7437 12.495 16.5777V19.75C12.495 19.888 12.6068 20 12.7447 20H13.244C13.3819 20 13.4937 19.888 13.4937 19.75V16.5743C14.0625 16.7383 14.6041 17.1432 14.9808 17.4798C15.3399 17.8005 15.7415 18.0805 16.1983 18.2327L16.3896 18.2965C17.7034 18.7344 19.15 18.4682 20.2219 17.5912C20.294 17.5322 20.3843 17.5 20.4775 17.5L21.7746 17.5C21.8782 17.5 21.9134 17.3618 21.8225 17.3122L20.359 16.514C20.3422 16.5048 20.3234 16.5 20.3042 16.5C20.1787 16.5 20.1448 16.3272 20.2609 16.2797L21.3347 15.8404C21.8752 15.6193 22.331 15.2312 22.6355 14.7329L23.9388 12.6002C23.971 12.5477 23.9484 12.4788 23.8914 12.4555L23.0491 12.111C22.8851 12.0439 22.7779 11.8842 22.7779 11.7069C22.7779 11.5759 22.8366 11.4519 22.938 11.369L23.2056 11.15C23.3217 11.0551 23.389 10.913 23.389 10.7631V9.09794C23.389 9.03326 23.4015 8.9692 23.4259 8.9093L23.944 7.63773C23.9708 7.57196 23.9224 7.5 23.8514 7.5H23.0447C23.015 7.5 22.9854 7.50265 22.9562 7.50791L20.6224 7.92798C20.4591 7.95739 20.333 7.78645 20.4095 7.63908L20.9389 6.61809C20.9626 6.57221 20.9212 6.51973 20.871 6.53226L19.0598 6.98507C19.0201 6.99499 18.9794 7 18.9385 7H17.5758C17.4578 7 17.3662 6.89717 17.3713 6.77924C17.3954 6.22059 17.2748 5.98125 17.1566 5.74671C17.0141 5.46398 16.8751 5.18821 16.9973 4.36847C16.9991 4.35662 17.0001 4.34398 17.0001 4.33199C17.0001 4.16907 16.8398 4.05277 16.6837 4.0993C16.2913 4.21621 15.596 4.40327 14.9576 4.47281C14.6996 4.5009 14.4895 4.29894 14.4221 4.04839C14.2805 3.52194 13.9915 3.17893 13.7032 2.83678C13.5133 2.6114 13.3238 2.38639 13.1768 2.10957C13.1419 2.04372 13.0746 2.00001 13.0001 2C12.9255 2.00001 12.8583 2.04372 12.8233 2.10957C12.6764 2.38639 12.4868 2.6114 12.2969 2.83678C12.0087 3.17893 11.7197 3.52194 11.5781 4.04839C11.5107 4.29894 11.3005 4.5009 11.0426 4.47281C10.4041 4.40327 9.70887 4.21621 9.3165 4.0993C9.16036 4.05277 9.00009 4.16907 9.00009 4.33199C9.00009 4.34398 9.0011 4.35662 9.00287 4.36847C9.12503 5.18821 8.98606 5.46398 8.84359 5.74671C8.72539 5.98125 8.60479 6.22059 8.62886 6.77924C8.63394 6.89717 8.54238 7 8.42435 7H7.06164C7.02076 7 6.98003 6.99499 6.94037 6.98507L5.12914 6.53226C5.079 6.51973 5.03753 6.57221 5.06132 6.61809L5.59072 7.63908C5.66714 7.78645 5.54112 7.95739 5.37774 7.92798L3.04402 7.50791C3.01479 7.50265 2.98515 7.5 2.95545 7.5H2.14881C2.07779 7.5 2.02941 7.57196 2.0562 7.63773L2.57425 8.9093C2.59865 8.9692 2.6112 9.03326 2.6112 9.09794V10.7631C2.6112 10.913 2.67851 11.0551 2.79458 11.15L3.06219 11.369C3.16353 11.4519 3.22231 11.5759 3.22231 11.7069C3.22231 11.8842 3.11511 12.0439 2.95103 12.111L2.1088 12.4555C2.05179 12.4788 2.02922 12.5477 2.06134 12.6002L3.36466 14.7329C3.66919 15.2312 4.12493 15.6193 4.66545 15.8404L5.73926 16.2797C5.85541 16.3272 5.82143 16.5 5.69593 16.5C5.67679 16.5 5.65795 16.5048 5.64114 16.514L4.1777 17.3122C4.08675 17.3618 4.12199 17.5 4.22559 17.5Z" fill="#fff"/><m:metadata><m:parameters><m:parameter m:name="color-1" m:type="color" m:value="#19A45C"/><m:parameter m:name="color-2" m:type="color" m:value="#FFFFFF"/></m:parameters></m:metadata></svg>