<svg width="20" height="20" viewBox="0 0 20 20" xmlns="http://www.w3.org/2000/svg" id="campsite" xmlns:m="https://www.mapbox.com"><path d="M19.4 10C19.4 15.1918 15.1917 19.4 9.99998 19.4C4.80821 19.4 0.599976 15.1918 0.599976 10C0.599976 4.80823 4.80821 0.6 9.99998 0.6C15.1917 0.6 19.4 4.80823 19.4 10Z" fill="#A7A7A7" stroke="#DCDCDC" stroke-linejoin="round" stroke-width="1.2"/><path d="M14 10V11C14 11.5523 13.5523 12 13 12H2C1.44772 12 1 11.5523 1 11V10C1 9.44772 1.44772 9.00001 2 9.00001H2.25L7.03206 1.25762C7.24699 0.90965 7.75302 0.909651 7.96794 1.25762L12.75 9.00001H13C13.5523 9.00001 14 9.44772 14 10ZM10.5 9.00001L7.5 4.00001L4.5 9.00001H10.5Z" transform="matrix(.8 0 0 .8 4 4)" style="stroke-linejoin:round;stroke-miterlimit:4;" stroke="#fff" stroke-width="3"/><path d="M14 10V11C14 11.5523 13.5523 12 13 12H2C1.44772 12 1 11.5523 1 11V10C1 9.44772 1.44772 9.00001 2 9.00001H2.25L7.03206 1.25762C7.24699 0.90965 7.75302 0.909651 7.96794 1.25762L12.75 9.00001H13C13.5523 9.00001 14 9.44772 14 10ZM10.5 9.00001L7.5 4.00001L4.5 9.00001H10.5Z" transform="matrix(.8 0 0 .8 4 4)"/><m:metadata><m:parameters><m:parameter m:name="background-stroke" m:type="color" m:value="#DCDCDC"/><m:parameter m:name="icon" m:type="color" m:value="#000000"/><m:parameter m:name="background" m:type="color" m:value="#A7A7A7"/><m:parameter m:name="icon-stroke" m:type="color" m:value="#ffffff"/></m:parameters></m:metadata></svg>