<svg version="1.1" id="casino" xmlns="http://www.w3.org/2000/svg" width="20" height="20" viewBox="0 0 20 20" xmlns:m="https://www.mapbox.com"><path d="M19.4 10C19.4 15.1918 15.1917 19.4 9.99998 19.4C4.80821 19.4 0.599976 15.1918 0.599976 10C0.599976 4.80823 4.80821 0.6 9.99998 0.6C15.1917 0.6 19.4 4.80823 19.4 10Z" fill="#A7A7A7" stroke="#DCDCDC" stroke-linejoin="round" stroke-width="1.2"/><path d="M8.5,10c0.4561,0.6072,1.1821,1,2,1c1.3807,0,2.5-1.1193,2.5-2.5c0-0.5642-0.1938-1.0789-0.509-1.4973L12.5,7l-5-6l-5,6	l0.009,0.0027C2.1938,7.4211,2,7.9358,2,8.5C2,9.8807,3.1193,11,4.5,11c0.8179,0,1.5439-0.3928,2-1	C6.5997,9.8672,6.7902,9.6135,7,9.3337V11.5C7,13,4.5,13,4.5,13C4.2239,13,4,13.2238,4,13.5C4,13.7761,4.2239,14,4.5,14H7h1h2.5	c0.2761,0,0.5-0.2239,0.5-0.5c0-0.2762-0.2239-0.5-0.5-0.5c0,0-2.5,0-2.5-1.5V9.3337C8.2098,9.6135,8.4003,9.8672,8.5,10z" transform="matrix(.8 0 0 .8 4 4)" style="stroke-linejoin:round;stroke-miterlimit:4;" stroke="#fff" stroke-width="3"/><path d="M8.5,10c0.4561,0.6072,1.1821,1,2,1c1.3807,0,2.5-1.1193,2.5-2.5c0-0.5642-0.1938-1.0789-0.509-1.4973L12.5,7l-5-6l-5,6	l0.009,0.0027C2.1938,7.4211,2,7.9358,2,8.5C2,9.8807,3.1193,11,4.5,11c0.8179,0,1.5439-0.3928,2-1	C6.5997,9.8672,6.7902,9.6135,7,9.3337V11.5C7,13,4.5,13,4.5,13C4.2239,13,4,13.2238,4,13.5C4,13.7761,4.2239,14,4.5,14H7h1h2.5	c0.2761,0,0.5-0.2239,0.5-0.5c0-0.2762-0.2239-0.5-0.5-0.5c0,0-2.5,0-2.5-1.5V9.3337C8.2098,9.6135,8.4003,9.8672,8.5,10z" transform="matrix(.8 0 0 .8 4 4)"/><m:metadata><m:parameters><m:parameter m:name="background-stroke" m:type="color" m:value="#DCDCDC"/><m:parameter m:name="icon" m:type="color" m:value="#000000"/><m:parameter m:name="background" m:type="color" m:value="#A7A7A7"/><m:parameter m:name="icon-stroke" m:type="color" m:value="#ffffff"/></m:parameters></m:metadata></svg>