<svg version="1.1" id="castle" xmlns="http://www.w3.org/2000/svg" width="20" height="20" viewBox="0 0 20 20" xmlns:m="https://www.mapbox.com"><path d="M19.4 10C19.4 15.1918 15.1917 19.4 9.99998 19.4C4.80821 19.4 0.599976 15.1918 0.599976 10C0.599976 4.80823 4.80821 0.6 9.99998 0.6C15.1917 0.6 19.4 4.80823 19.4 10Z" fill="#A7A7A7" stroke="#DCDCDC" stroke-linejoin="round" stroke-width="1.2"/><path d="M11,4H4C3.4477,4,3,3.5523,3,3V0.5C3,0.2239,3.2239,0,3.5,0S4,0.2239,4,0.5V2h1V1c0-0.5523,0.4477-1,1-1s1,0.4477,1,1v1h1V1	c0-0.5523,0.4477-1,1-1s1,0.4477,1,1v1h1V0.5C11,0.2239,11.2239,0,11.5,0S12,0.2239,12,0.5V3C12,3.5523,11.5523,4,11,4z M14,14.5	c0,0.2761-0.2239,0.5-0.5,0.5h-12C1.2239,15,1,14.7761,1,14.5S1.2239,14,1.5,14H2c0.5523,0,1-0.4477,1-1c0,0,1-6,1-7	c0-0.5523,0.4477-1,1-1h5c0.5523,0,1,0.4477,1,1c0,1,1,7,1,7c0,0.5523,0.4477,1,1,1h0.5c0.2723-0.0001,0.4946,0.2178,0.5,0.49V14.5z M9,10.5C9,9.6716,8.3284,9,7.5,9S6,9.6716,6,10.5V14h3V10.5z" transform="matrix(.8 0 0 .8 4 4)" style="stroke-linejoin:round;stroke-miterlimit:4;" stroke="#fff" stroke-width="3"/><path d="M11,4H4C3.4477,4,3,3.5523,3,3V0.5C3,0.2239,3.2239,0,3.5,0S4,0.2239,4,0.5V2h1V1c0-0.5523,0.4477-1,1-1s1,0.4477,1,1v1h1V1	c0-0.5523,0.4477-1,1-1s1,0.4477,1,1v1h1V0.5C11,0.2239,11.2239,0,11.5,0S12,0.2239,12,0.5V3C12,3.5523,11.5523,4,11,4z M14,14.5	c0,0.2761-0.2239,0.5-0.5,0.5h-12C1.2239,15,1,14.7761,1,14.5S1.2239,14,1.5,14H2c0.5523,0,1-0.4477,1-1c0,0,1-6,1-7	c0-0.5523,0.4477-1,1-1h5c0.5523,0,1,0.4477,1,1c0,1,1,7,1,7c0,0.5523,0.4477,1,1,1h0.5c0.2723-0.0001,0.4946,0.2178,0.5,0.49V14.5z M9,10.5C9,9.6716,8.3284,9,7.5,9S6,9.6716,6,10.5V14h3V10.5z" transform="matrix(.8 0 0 .8 4 4)"/><m:metadata><m:parameters><m:parameter m:name="background-stroke" m:type="color" m:value="#DCDCDC"/><m:parameter m:name="icon" m:type="color" m:value="#000000"/><m:parameter m:name="background" m:type="color" m:value="#A7A7A7"/><m:parameter m:name="icon-stroke" m:type="color" m:value="#ffffff"/></m:parameters></m:metadata></svg>