<svg version="1.1" id="cemetery" xmlns="http://www.w3.org/2000/svg" width="20" height="20" viewBox="0 0 20 20" xmlns:m="https://www.mapbox.com"><path d="M19.4 10C19.4 15.1918 15.1917 19.4 9.99998 19.4C4.80821 19.4 0.599976 15.1918 0.599976 10C0.599976 4.80823 4.80821 0.6 9.99998 0.6C15.1917 0.6 19.4 4.80823 19.4 10Z" fill="#A7A7A7" stroke="#DCDCDC" stroke-linejoin="round" stroke-width="1.2"/><path d="M11.46,12h-0.68L12,3.55c0.0175-0.2867-0.2008-0.5332-0.4874-0.5507C11.4884,2.9979,11.4641,2.9981,11.44,3h-1.18	c0-0.92-1.23-2-2.75-2S4.77,2.08,4.77,3H3.54C3.253,2.9885,3.0111,3.2117,2.9995,3.4987C2.9988,3.5158,2.999,3.5329,3,3.55L4.2,12	H3.55C3.2609,11.9886,3.0162,12.2112,3,12.5V14h9v-1.51C11.9839,12.2067,11.7435,11.9886,11.46,12z M4.5,5h6v1h-6V5z" transform="matrix(.8 0 0 .8 4 4)" style="stroke-linejoin:round;stroke-miterlimit:4;" stroke="#fff" stroke-width="3"/><path d="M11.46,12h-0.68L12,3.55c0.0175-0.2867-0.2008-0.5332-0.4874-0.5507C11.4884,2.9979,11.4641,2.9981,11.44,3h-1.18	c0-0.92-1.23-2-2.75-2S4.77,2.08,4.77,3H3.54C3.253,2.9885,3.0111,3.2117,2.9995,3.4987C2.9988,3.5158,2.999,3.5329,3,3.55L4.2,12	H3.55C3.2609,11.9886,3.0162,12.2112,3,12.5V14h9v-1.51C11.9839,12.2067,11.7435,11.9886,11.46,12z M4.5,5h6v1h-6V5z" transform="matrix(.8 0 0 .8 4 4)"/><m:metadata><m:parameters><m:parameter m:name="background-stroke" m:type="color" m:value="#DCDCDC"/><m:parameter m:name="icon" m:type="color" m:value="#000000"/><m:parameter m:name="background" m:type="color" m:value="#A7A7A7"/><m:parameter m:name="icon-stroke" m:type="color" m:value="#ffffff"/></m:parameters></m:metadata></svg>