<svg xmlns="http://www.w3.org/2000/svg" id="cn-nths-expy-3" width="26" height="23" viewBox="0 0 26 23" xmlns:m="https://www.mapbox.com"><g><path d="M0,0 H26 V23 H0 Z" fill="none"/><path d="M3,1 H23 C23,1 25,1 25,3 V17 C25,17 25,19 23,19 H3 C3,19 1,19 1,17 V3 C1,3 1,1 3,1" fill="none" stroke="hsl(0, 0%, 100%)" stroke-linejoin="round" stroke-miterlimit="4px" stroke-width="2"/><path d="M3,1 H23 C23,1 25,1 25,3 V17 C25,17 25,19 23,19 H3 C3,19 1,19 1,17 V3 C1,3 1,1 3,1" fill="hsl(140, 74%, 37%)"/><path d="M23,1H3A2,2,0,0,0,1,3V4H25V3A2,2,0,0,0,23,1Z" fill="hsl(0, 87%, 59%)"/><path d="M0,8.5 H26 V14.5 H0 Z" fill="none" id="mapbox-text-placeholder"/></g><m:metadata><m:parameters><m:parameter m:name="color-1" m:type="color" m:value="#18A447"/><m:parameter m:name="color-2" m:type="color" m:value="#F13B3B"/><m:parameter m:name="color-3" m:type="color" m:value="#FFFFFF"/></m:parameters></m:metadata></svg>