<svg width="61" height="60" viewBox="0 0 61 60" fill="none" xmlns="http://www.w3.org/2000/svg" xmlns:m="https://www.mapbox.com"><path d="M6.5 5.1C6.5 4.54305 6.72125 4.0089 7.11508 3.61508C7.5089 3.22125 8.04305 3 8.6 3H52.4C52.957 3 53.4911 3.22125 53.8849 3.61508C54.2788 4.0089 54.5 4.54305 54.5 5.1V6.9C54.5 7.45695 54.2788 7.9911 53.8849 8.38492C53.4911 8.77875 52.957 9 52.4 9H8.6C8.04305 9 7.5089 8.77875 7.11508 8.38492C6.72125 7.9911 6.5 7.45695 6.5 6.9V5.1ZM6.5 17.1C6.5 16.543 6.72125 16.0089 7.11508 15.6151C7.5089 15.2212 8.04305 15 8.6 15H52.4C52.957 15 53.4911 15.2212 53.8849 15.6151C54.2788 16.0089 54.5 16.543 54.5 17.1V18.9C54.5 19.457 54.2788 19.9911 53.8849 20.3849C53.4911 20.7788 52.957 21 52.4 21H8.6C8.32422 21 8.05115 20.9457 7.79636 20.8401C7.54158 20.7346 7.31008 20.5799 7.11508 20.3849C6.92007 20.1899 6.76539 19.9584 6.65985 19.7036C6.55432 19.4489 6.5 19.1758 6.5 18.9V17.1ZM54.5 29.1C54.5 28.543 54.2788 28.0089 53.8849 27.6151C53.4911 27.2212 52.957 27 52.4 27H8.6C8.04305 27 7.5089 27.2212 7.11508 27.6151C6.72125 28.0089 6.5 28.543 6.5 29.1V30.9C6.5 31.457 6.72125 31.9911 7.11508 32.3849C7.5089 32.7788 8.04305 33 8.6 33H52.4C52.957 33 53.4911 32.7788 53.8849 32.3849C54.2788 31.9911 54.5 31.457 54.5 30.9V29.1ZM6.5 41.1C6.5 40.543 6.72125 40.0089 7.11508 39.6151C7.5089 39.2212 8.04305 39 8.6 39H52.4C52.957 39 53.4911 39.2212 53.8849 39.6151C54.2788 40.0089 54.5 40.543 54.5 41.1V42.9C54.5 43.457 54.2788 43.9911 53.8849 44.3849C53.4911 44.7788 52.957 45 52.4 45H8.6C8.04305 45 7.5089 44.7788 7.11508 44.3849C6.72125 43.9911 6.5 43.457 6.5 42.9V41.1ZM54.5 53.1C54.5 52.543 54.2788 52.0089 53.8849 51.6151C53.4911 51.2212 52.957 51 52.4 51H8.6C8.04305 51 7.5089 51.2212 7.11508 51.6151C6.72125 52.0089 6.5 52.543 6.5 53.1V54.9C6.5 55.457 6.72125 55.9911 7.11508 56.3849C7.5089 56.7788 8.04305 57 8.6 57H52.4C52.957 57 53.4911 56.7788 53.8849 56.3849C54.2788 55.9911 54.5 55.457 54.5 54.9V53.1Z" fill="#fff"/><m:metadata><m:parameters><m:parameter m:name="color" m:type="color" m:value="#FFFFFF"/></m:parameters></m:metadata></svg>