<svg width="61" height="60" viewBox="0 0 61 60" fill="none" xmlns="http://www.w3.org/2000/svg" xmlns:m="https://www.mapbox.com"><g clip-path="url(#clip0_1026_8039)"><path d="M0.5 3.5C0.5 2.57174 0.868749 1.6815 1.52513 1.02513C2.1815 0.368749 3.07174 0 4 0H57C57.9283 0 58.8185 0.368749 59.4749 1.02513C60.1312 1.6815 60.5 2.57174 60.5 3.5V8.5C60.5 9.42826 60.1312 10.3185 59.4749 10.9749C58.8185 11.6313 57.9283 12 57 12H4C3.07174 12 2.1815 11.6313 1.52513 10.9749C0.868749 10.3185 0.5 9.42826 0.5 8.5V3.5ZM0.5 51.5C0.5 50.5717 0.868749 49.6815 1.52513 49.0251C2.1815 48.3688 3.07174 48 4 48H57C57.9283 48 58.8185 48.3688 59.4749 49.0251C60.1312 49.6815 60.5 50.5717 60.5 51.5V56.5C60.5 57.4283 60.1312 58.3185 59.4749 58.9749C58.8185 59.6312 57.9283 60 57 60H4C3.07174 60 2.1815 59.6312 1.52513 58.9749C0.868749 58.3185 0.5 57.4283 0.5 56.5V51.5ZM60.5 27.5C60.5 26.5717 60.1312 25.6815 59.4749 25.0251C58.8185 24.3687 57.9283 24 57 24H4C3.07174 24 2.1815 24.3687 1.52513 25.0251C0.868749 25.6815 0.5 26.5717 0.5 27.5V32.5C0.5 33.4283 0.868749 34.3185 1.52513 34.9749C2.1815 35.6312 3.07174 36 4 36H57C57.9283 36 58.8185 35.6312 59.4749 34.9749C60.1312 34.3185 60.5 33.4283 60.5 32.5V27.5Z" fill="#fff"/></g><defs><clipPath id="clip0_1026_8039"><rect width="60" height="60" fill="#fff" transform="translate(0.5)"/></clipPath></defs><m:metadata><m:parameters><m:parameter m:name="color" m:type="color" m:value="#FFFFFF"/></m:parameters></m:metadata></svg>