<svg version="1.1" id="dentist" xmlns="http://www.w3.org/2000/svg" width="20" height="20" viewBox="0 0 20 20" xmlns:m="https://www.mapbox.com"><path d="M19.4 10C19.4 15.1918 15.1917 19.4 9.99998 19.4C4.80821 19.4 0.599976 15.1918 0.599976 10C0.599976 4.80823 4.80821 0.6 9.99998 0.6C15.1917 0.6 19.4 4.80823 19.4 10Z" fill="#A7A7A7" stroke="#DCDCDC" stroke-linejoin="round" stroke-width="1.2"/><path d="M4.36,14c-1,0-0.56-2.67-0.86-5c-0.1-0.76-1-1.49-1.12-2.06C2,5,1.39,1.44,3.66,1S6,3,7.54,3s1.57-2.36,3.85-2	s1.59,3.9,1.29,5.9c-0.1,0.45-1.1,1.48-1.18,2.06c-0.33,2.4,0.32,5-0.8,5c-0.93,0-1.32-2.72-2-4.5C8.43,8.63,8.06,8,7.54,8	C6,8,5.75,14,4.36,14z" transform="matrix(.8 0 0 .8 4 4)" style="stroke-linejoin:round;stroke-miterlimit:4;" stroke="#fff" stroke-width="3"/><path d="M4.36,14c-1,0-0.56-2.67-0.86-5c-0.1-0.76-1-1.49-1.12-2.06C2,5,1.39,1.44,3.66,1S6,3,7.54,3s1.57-2.36,3.85-2	s1.59,3.9,1.29,5.9c-0.1,0.45-1.1,1.48-1.18,2.06c-0.33,2.4,0.32,5-0.8,5c-0.93,0-1.32-2.72-2-4.5C8.43,8.63,8.06,8,7.54,8	C6,8,5.75,14,4.36,14z" transform="matrix(.8 0 0 .8 4 4)"/><m:metadata><m:parameters><m:parameter m:name="background-stroke" m:type="color" m:value="#DCDCDC"/><m:parameter m:name="icon" m:type="color" m:value="#000000"/><m:parameter m:name="background" m:type="color" m:value="#A7A7A7"/><m:parameter m:name="icon-stroke" m:type="color" m:value="#ffffff"/></m:parameters></m:metadata></svg>