<svg xmlns="http://www.w3.org/2000/svg" id="dot-11" width="11" height="11" viewBox="0 0 11 11" xmlns:m="https://www.mapbox.com"><g><path d="M1.3,5.5A4.2,4.2,0,1,0,5.5,1.3,4.2,4.2,0,0,0,1.3,5.5" fill="hsl(20, 17%, 100%)" opacity="0.25"/><path d="M1.8,5.5a3.7,3.7,0,0,0,7.4.0021V5.5a3.7,3.7,0,0,0-7.4-.0009V5.5" fill="hsl(20, 17%, 100%)" opacity="0.5"/><path d="M2.3,5.5a3.2,3.2,0,0,0,6.4.0022V5.5a3.2,3.2,0,0,0-6.4-.0013V5.5" fill="hsl(20, 17%, 100%)" opacity="0.75"/><path d="M2.8,5.5a2.7,2.7,0,0,0,5.4.0018V5.5a2.7,2.7,0,0,0-5.4-.0009V5.5" fill="hsl(20, 17%, 100%)"/><path d="M3.3,5.5a2.2,2.2,0,0,0,4.4.0014V5.5a2.2,2.2,0,0,0-4.4,0" fill="hsl(220, 30%, 0%)"/></g><m:metadata><m:parameters><m:parameter m:name="color-primary" m:type="color" m:value="#000000"/><m:parameter m:name="color-secondary" m:type="color" m:value="#FEFFFF"/></m:parameters></m:metadata></svg>