<svg height="16" viewBox="0 0 20 20" width="16" xmlns="http://www.w3.org/2000/svg" id="entrance" xmlns:m="https://www.mapbox.com"><path d="M5.5,1H14.5c2.485,0,4.5,2.015,4.5,4.5V14.5c0,2.485-2.015,4.5-4.5,4.5H5.5c-2.485,0-4.5-2.015-4.5-4.5V5.5C1,3.015,3.015,1,5.5,1Z" fill="#5373D4" stroke="#C4DCF2" stroke-linejoin="round" stroke-width="1.2"/><path d="m8 6.5v-1c0-.26522-.10536-.51957-.29289-.70711-.18754-.18753-.44189-.29289-.70711-.29289s-.51957.10536-.70711.29289c-.18753.18754-.29289.44189-.29289.70711v3zm-2-3.5c0-.19778.05865-.39112.16853-.55557s.26606-.29262.44879-.36831c.18272-.07569.38379-.09549.57777-.0569.19398.03858.37216.13382.51202.27367.13985.13986.23509.31804.27368.51202.03858.19398.01878.39505-.05691.57777-.07569.18273-.20386.33891-.36831.44879s-.35779.16853-.55557.16853c-.26522 0-.51957-.10536-.70711-.29289-.18753-.18754-.29289-.44189-.29289-.70711zm9 3c0 .26522-.1054.51957-.2929.70711-.1875.18753-.4419.29289-.7071.29289h-1.58c-.1316-.00076-.2621.02446-.3839.07423-.1218.04976-.2327.12309-.3261.21577l-5.42 5.42c-.18626.1847-.43766.2889-.7.29h-2.59c-.26522 0-.51957-.1054-.70711-.2929-.18753-.1875-.29289-.4419-.29289-.7071s.10536-.5196.29289-.7071c.18754-.1875.44189-.2929.70711-.2929h1.59c.26234-.0011.51374-.1053.7-.29l5.42-5.42c.0934-.09268.2043-.16601.3261-.21577.1218-.04977.2523-.07499.3839-.07423h2.58c.2652 0 .5196.10536.7071.29289.1875.18754.2929.44189.2929.70711z" transform="matrix(.8 0 0 .8 4 4)" fill="#FFF"/><m:metadata><m:parameters><m:parameter m:name="background-stroke" m:type="color" m:value="#C4DCF2"/><m:parameter m:name="icon" m:type="color" m:value="#FFFFFF"/><m:parameter m:name="background" m:type="color" m:value="#5373D4"/></m:parameters></m:metadata></svg>