<svg id="fitness-centre" xmlns="http://www.w3.org/2000/svg" width="20" height="20" viewBox="0 0 20 20" xmlns:m="https://www.mapbox.com"><path d="M19.4 10C19.4 15.1918 15.1917 19.4 9.99998 19.4C4.80821 19.4 0.599976 15.1918 0.599976 10C0.599976 4.80823 4.80821 0.6 9.99998 0.6C15.1917 0.6 19.4 4.80823 19.4 10Z" fill="#A7A7A7" stroke="#DCDCDC" stroke-linejoin="round" stroke-width="1.2"/><path id="daec40ff-71f5-4432-9d75-dcba7b9c1b89" d="M14.5,7V8h-1v2h-1v1H11V8H4v3H2.5V10h-1V8H.5V7h1V5h1V4H4V7h7V4h1.5V5h1V7Z" transform="matrix(.8 0 0 .8 4 4)" fill="#000" style="stroke-linejoin:round;stroke-miterlimit:4;" stroke="#fff" stroke-width="3"/><path id="daec40ff-71f5-4432-9d75-dcba7b9c1b89" d="M14.5,7V8h-1v2h-1v1H11V8H4v3H2.5V10h-1V8H.5V7h1V5h1V4H4V7h7V4h1.5V5h1V7Z" transform="matrix(.8 0 0 .8 4 4)" fill="#000"/><m:metadata><m:parameters><m:parameter m:name="background-stroke" m:type="color" m:value="#DCDCDC"/><m:parameter m:name="icon" m:type="color" m:value="#000000"/><m:parameter m:name="background" m:type="color" m:value="#A7A7A7"/><m:parameter m:name="icon-stroke" m:type="color" m:value="#ffffff"/></m:parameters></m:metadata></svg>