<svg height="20" viewBox="0 0 20 20" width="20" xmlns="http://www.w3.org/2000/svg" id="fuel" xmlns:m="https://www.mapbox.com"><path d="M19.4 10C19.4 15.1918 15.1917 19.4 9.99998 19.4C4.80821 19.4 0.599976 15.1918 0.599976 10C0.599976 4.80823 4.80821 0.6 9.99998 0.6C15.1917 0.6 19.4 4.80823 19.4 10Z" fill="#A7A7A7" stroke="#DCDCDC" stroke-linejoin="round" stroke-width="1.2"/><path d="m14 6v5.5c0 .2761-.2239.5-.5.5s-.5-.2239-.5-.5v-2c0-.8284-.6716-1.5-1.5-1.5h-1.5v-6c0-.5523-.4477-1-1-1h-6c-.5523 0-1 .4477-1 1v11c0 .5523.4477 1 1 1h6c.5523 0 1-.4477 1-1v-4h1.5c.2761 0 .5.2239.5.5v2c0 .8284.6716 1.5 1.5 1.5s1.5-.6716 1.5-1.5v-6.5c0-.5523-.4477-1-1-1v-1.51c-.0054-.2722-.2277-.4901-.5-.49-.2816.0047-.5062.2367-.5015.5184.0002.0105.0007.0211.0015.0316v2.45c0 .5523.4477 1 1 1s1-.4477 1-1-.4477-1-1-1zm-5 .5c0 .2761-.2239.5-.5.5h-5c-.2761 0-.5-.2239-.5-.5v-3c0-.2761.2239-.5.5-.5h5c.2761 0 .5.2239.5.5z" transform="matrix(.8 0 0 .8 4 4)" style="stroke-linejoin:round;stroke-miterlimit:4;" stroke="#fff" stroke-width="3"/><path d="m14 6v5.5c0 .2761-.2239.5-.5.5s-.5-.2239-.5-.5v-2c0-.8284-.6716-1.5-1.5-1.5h-1.5v-6c0-.5523-.4477-1-1-1h-6c-.5523 0-1 .4477-1 1v11c0 .5523.4477 1 1 1h6c.5523 0 1-.4477 1-1v-4h1.5c.2761 0 .5.2239.5.5v2c0 .8284.6716 1.5 1.5 1.5s1.5-.6716 1.5-1.5v-6.5c0-.5523-.4477-1-1-1v-1.51c-.0054-.2722-.2277-.4901-.5-.49-.2816.0047-.5062.2367-.5015.5184.0002.0105.0007.0211.0015.0316v2.45c0 .5523.4477 1 1 1s1-.4477 1-1-.4477-1-1-1zm-5 .5c0 .2761-.2239.5-.5.5h-5c-.2761 0-.5-.2239-.5-.5v-3c0-.2761.2239-.5.5-.5h5c.2761 0 .5.2239.5.5z" transform="matrix(.8 0 0 .8 4 4)"/><m:metadata><m:parameters><m:parameter m:name="background-stroke" m:type="color" m:value="#DCDCDC"/><m:parameter m:name="icon" m:type="color" m:value="#000000"/><m:parameter m:name="background" m:type="color" m:value="#A7A7A7"/><m:parameter m:name="icon-stroke" m:type="color" m:value="#ffffff"/></m:parameters></m:metadata></svg>