<svg xmlns="http://www.w3.org/2000/svg" width="20" height="20" viewBox="0 0 20 20" id="globe" xmlns:m="https://www.mapbox.com"><path d="M19.4 10C19.4 15.1918 15.1917 19.4 9.99998 19.4C4.80821 19.4 0.599976 15.1918 0.599976 10C0.599976 4.80823 4.80821 0.6 9.99998 0.6C15.1917 0.6 19.4 4.80823 19.4 10Z" fill="#A7A7A7" stroke="#DCDCDC" stroke-linejoin="round" stroke-width="1.2"/><path d="M11.981,9.481,11.26,8.76A4.979,4.979,0,1,1,4.24,1.74l-.721-.721A5.991,5.991,0,0,0,7,11.475V13H6.5a.5.5,0,0,0,0,1h2a.5.5,0,0,0,0-1H8V11.473A5.983,5.983,0,0,0,11.981,9.481ZM7.5,9A3.5,3.5,0,1,0,4,5.5,3.5,3.5,0,0,0,7.5,9Zm1-5,.364-.592a2.5,2.5,0,0,1,.823.9L9.5,5h-1ZM6.656,3.156,7.5,4V5L8,6H9.94a2.494,2.494,0,0,1-1.5,1.814L8,7H6.5L5.05,5A2.5,2.5,0,0,1,6.656,3.156Z" transform="matrix(.8 0 0 .8 4 4)" style="stroke-linejoin:round;stroke-miterlimit:4;" stroke="#fff" stroke-width="3"/><path d="M11.981,9.481,11.26,8.76A4.979,4.979,0,1,1,4.24,1.74l-.721-.721A5.991,5.991,0,0,0,7,11.475V13H6.5a.5.5,0,0,0,0,1h2a.5.5,0,0,0,0-1H8V11.473A5.983,5.983,0,0,0,11.981,9.481ZM7.5,9A3.5,3.5,0,1,0,4,5.5,3.5,3.5,0,0,0,7.5,9Zm1-5,.364-.592a2.5,2.5,0,0,1,.823.9L9.5,5h-1ZM6.656,3.156,7.5,4V5L8,6H9.94a2.494,2.494,0,0,1-1.5,1.814L8,7H6.5L5.05,5A2.5,2.5,0,0,1,6.656,3.156Z" transform="matrix(.8 0 0 .8 4 4)"/><m:metadata><m:parameters><m:parameter m:name="background-stroke" m:type="color" m:value="#DCDCDC"/><m:parameter m:name="icon" m:type="color" m:value="#000000"/><m:parameter m:name="background" m:type="color" m:value="#A7A7A7"/><m:parameter m:name="icon-stroke" m:type="color" m:value="#ffffff"/></m:parameters></m:metadata></svg>