<svg version="1.1" id="golf" xmlns="http://www.w3.org/2000/svg" width="20" height="20" viewBox="0 0 20 20" xmlns:m="https://www.mapbox.com"><path d="M19.4 10C19.4 15.1918 15.1917 19.4 9.99998 19.4C4.80821 19.4 0.599976 15.1918 0.599976 10C0.599976 4.80823 4.80821 0.6 9.99998 0.6C15.1917 0.6 19.4 4.80823 19.4 10Z" fill="#A7A7A7" stroke="#DCDCDC" stroke-linejoin="round" stroke-width="1.2"/><path id="path11758" d="M3.3999,1.1c0,0.1,0,0.2,0,0.2c0,0.4,0.3,0.7,0.7,0.7c0.3,0,0.5-0.2,0.6-0.5l0,0L4.9,1l5.6,2.3L6.6,6C6.2,6.3,6.2,6.7,6.3,7.1	l0.9,2.1l-1.3,3.9C5.7,13.6,6.1,14,6.5,14c0.3,0,0.5-0.1,0.6-0.5l1.4-4l0.1,0.3v3.5c0,0,0,0.7,0.7,0.7s0.7-0.7,0.7-0.7V10	c0-0.2,0-0.3-0.1-0.5L8.5,6.1l2.7-1.9c0.2-0.2,0.4-0.3,0.4-0.6s-0.2-0.5-0.4-0.6L4,0.1c-0.0878,0-0.118,0.0179-0.2001,0.1	L3.3999,1.1z M5.5,3C4.7,3,4,3.7,4,4.5S4.7,6,5.5,6S7,5.3,7,4.5S6.2999,3,5.5,3z" transform="matrix(.8 0 0 .8 4 4)" fill="#000" style="stroke-linejoin:round;stroke-miterlimit:4;" stroke="#fff" stroke-width="3"/><path id="path11758" d="M3.3999,1.1c0,0.1,0,0.2,0,0.2c0,0.4,0.3,0.7,0.7,0.7c0.3,0,0.5-0.2,0.6-0.5l0,0L4.9,1l5.6,2.3L6.6,6C6.2,6.3,6.2,6.7,6.3,7.1	l0.9,2.1l-1.3,3.9C5.7,13.6,6.1,14,6.5,14c0.3,0,0.5-0.1,0.6-0.5l1.4-4l0.1,0.3v3.5c0,0,0,0.7,0.7,0.7s0.7-0.7,0.7-0.7V10	c0-0.2,0-0.3-0.1-0.5L8.5,6.1l2.7-1.9c0.2-0.2,0.4-0.3,0.4-0.6s-0.2-0.5-0.4-0.6L4,0.1c-0.0878,0-0.118,0.0179-0.2001,0.1	L3.3999,1.1z M5.5,3C4.7,3,4,3.7,4,4.5S4.7,6,5.5,6S7,5.3,7,4.5S6.2999,3,5.5,3z" transform="matrix(.8 0 0 .8 4 4)" fill="#000"/><m:metadata><m:parameters><m:parameter m:name="background-stroke" m:type="color" m:value="#DCDCDC"/><m:parameter m:name="icon" m:type="color" m:value="#000000"/><m:parameter m:name="background" m:type="color" m:value="#A7A7A7"/><m:parameter m:name="icon-stroke" m:type="color" m:value="#ffffff"/></m:parameters></m:metadata></svg>