<svg version="1.1" id="historic" xmlns="http://www.w3.org/2000/svg" width="20" height="20" viewBox="0 0 20 20" xmlns:m="https://www.mapbox.com"><path d="M19.4 10C19.4 15.1918 15.1917 19.4 9.99998 19.4C4.80821 19.4 0.599976 15.1918 0.599976 10C0.599976 4.80823 4.80821 0.6 9.99998 0.6C15.1917 0.6 19.4 4.80823 19.4 10Z" fill="#A7A7A7" stroke="#DCDCDC" stroke-linejoin="round" stroke-width="1.2"/><path d="m7.5 1c-1 0-1 1-2 1h-3.5c-.54467 0-1 .45533-1 1v7c0 .5447.45533 1 1 1h5v2.5s0 .5.5.5.5-.5.5-.5v-2.5h5c.5447 0 1-.4553 1-1v-7c0-.54467-.4553-1-1-1h-3.5c-1 0-1-1-2-1zm-4.5 4v-1h9v1zm0 1h4v1h-4zm0 2h7v1h-7z" transform="matrix(.8 0 0 .8 4 4)" style="stroke-linejoin:round;stroke-miterlimit:4;" stroke="#fff" stroke-width="3"/><path d="m7.5 1c-1 0-1 1-2 1h-3.5c-.54467 0-1 .45533-1 1v7c0 .5447.45533 1 1 1h5v2.5s0 .5.5.5.5-.5.5-.5v-2.5h5c.5447 0 1-.4553 1-1v-7c0-.54467-.4553-1-1-1h-3.5c-1 0-1-1-2-1zm-4.5 4v-1h9v1zm0 1h4v1h-4zm0 2h7v1h-7z" transform="matrix(.8 0 0 .8 4 4)"/><m:metadata><m:parameters><m:parameter m:name="background-stroke" m:type="color" m:value="#DCDCDC"/><m:parameter m:name="icon" m:type="color" m:value="#000000"/><m:parameter m:name="background" m:type="color" m:value="#A7A7A7"/><m:parameter m:name="icon-stroke" m:type="color" m:value="#ffffff"/></m:parameters></m:metadata></svg>