<svg xmlns="http://www.w3.org/2000/svg" width="20" height="20" viewBox="0 0 20 20" id="ice-cream" xmlns:m="https://www.mapbox.com"><path d="M19.4 10C19.4 15.1918 15.1917 19.4 9.99998 19.4C4.80821 19.4 0.599976 15.1918 0.599976 10C0.599976 4.80823 4.80821 0.6 9.99998 0.6C15.1917 0.6 19.4 4.80823 19.4 10Z" fill="#A7A7A7" stroke="#DCDCDC" stroke-linejoin="round" stroke-width="1.2"/><path d="M5.44,8.17a3.473,3.473,0,0,0,2-.63A3.5,3.5,0,0,0,9,8.14h.44L8,13.7a.5.5,0,0,1-.92,0Zm6-3.473a2,2,0,0,1-4,0h0a2,2,0,1,1-2-2h.12a2,2,0,1,1,3.75,0h.13A2,2,0,0,1,11.439,4.7Z" transform="matrix(.8 0 0 .8 4 4)" style="stroke-linejoin:round;stroke-miterlimit:4;" stroke="#fff" stroke-width="3"/><path d="M5.44,8.17a3.473,3.473,0,0,0,2-.63A3.5,3.5,0,0,0,9,8.14h.44L8,13.7a.5.5,0,0,1-.92,0Zm6-3.473a2,2,0,0,1-4,0h0a2,2,0,1,1-2-2h.12a2,2,0,1,1,3.75,0h.13A2,2,0,0,1,11.439,4.7Z" transform="matrix(.8 0 0 .8 4 4)"/><m:metadata><m:parameters><m:parameter m:name="background-stroke" m:type="color" m:value="#DCDCDC"/><m:parameter m:name="icon" m:type="color" m:value="#000000"/><m:parameter m:name="background" m:type="color" m:value="#A7A7A7"/><m:parameter m:name="icon-stroke" m:type="color" m:value="#ffffff"/></m:parameters></m:metadata></svg>