<svg version="1.1" id="industry" xmlns="http://www.w3.org/2000/svg" width="20" height="20" viewBox="0 0 20 20" xmlns:m="https://www.mapbox.com"><path d="M19.4 10C19.4 15.1918 15.1917 19.4 9.99998 19.4C4.80821 19.4 0.599976 15.1918 0.599976 10C0.599976 4.80823 4.80821 0.6 9.99998 0.6C15.1917 0.6 19.4 4.80823 19.4 10Z" fill="#A7A7A7" stroke="#DCDCDC" stroke-linejoin="round" stroke-width="1.2"/><path d="M14,1v12H1V8.72c0.0016-0.1419,0.0634-0.2764,0.17-0.37l3-3.22c0.2074-0.1823,0.5234-0.1618,0.7056,0.0456	C4.9568,5.268,5.0011,5.387,5,5.51v3l3.16-3.37c0.2025-0.1878,0.5188-0.1759,0.7066,0.0266C8.9532,5.2599,9.0009,5.3827,9,5.51V11h3	V1H14z" transform="matrix(.8 0 0 .8 4 4)" style="stroke-linejoin:round;stroke-miterlimit:4;" stroke="#fff" stroke-width="3"/><path d="M14,1v12H1V8.72c0.0016-0.1419,0.0634-0.2764,0.17-0.37l3-3.22c0.2074-0.1823,0.5234-0.1618,0.7056,0.0456	C4.9568,5.268,5.0011,5.387,5,5.51v3l3.16-3.37c0.2025-0.1878,0.5188-0.1759,0.7066,0.0266C8.9532,5.2599,9.0009,5.3827,9,5.51V11h3	V1H14z" transform="matrix(.8 0 0 .8 4 4)"/><m:metadata><m:parameters><m:parameter m:name="background-stroke" m:type="color" m:value="#DCDCDC"/><m:parameter m:name="icon" m:type="color" m:value="#000000"/><m:parameter m:name="background" m:type="color" m:value="#A7A7A7"/><m:parameter m:name="icon-stroke" m:type="color" m:value="#ffffff"/></m:parameters></m:metadata></svg>