<svg version="1.1" id="lighthouse" xmlns="http://www.w3.org/2000/svg" width="20" height="20" viewBox="0 0 20 20" xmlns:m="https://www.mapbox.com"><path d="M19.4 10C19.4 15.1918 15.1917 19.4 9.99998 19.4C4.80821 19.4 0.599976 15.1918 0.599976 10C0.599976 4.80823 4.80821 0.6 9.99998 0.6C15.1917 0.6 19.4 4.80823 19.4 10Z" fill="#A7A7A7" stroke="#DCDCDC" stroke-linejoin="round" stroke-width="1.2"/><path d="M4.5,6L0,7V6.5l4.5-1V6z M4.5,3.5L0,2.5V3l4.5,1V3.5z M10.5,3.5V4L15,3V2.5L10.5,3.5z M10.5,6L15,7V6.5l-4.5-1V6z M8,7V2	h2.5c0.2761,0.0552,0.5448-0.1239,0.6-0.4c0.0552-0.2761-0.1239-0.5448-0.4-0.6l-3-1C7.5696-0.0586,7.4204-0.0586,7.29,0l-3,1	c-0.2761,0.0552-0.4552,0.3239-0.4,0.6S4.2139,2.0552,4.49,2H7v5H5l-2,7h9l-2-7H8z" transform="matrix(.8 0 0 .8 4 4)" style="stroke-linejoin:round;stroke-miterlimit:4;" stroke="#fff" stroke-width="3"/><path d="M4.5,6L0,7V6.5l4.5-1V6z M4.5,3.5L0,2.5V3l4.5,1V3.5z M10.5,3.5V4L15,3V2.5L10.5,3.5z M10.5,6L15,7V6.5l-4.5-1V6z M8,7V2	h2.5c0.2761,0.0552,0.5448-0.1239,0.6-0.4c0.0552-0.2761-0.1239-0.5448-0.4-0.6l-3-1C7.5696-0.0586,7.4204-0.0586,7.29,0l-3,1	c-0.2761,0.0552-0.4552,0.3239-0.4,0.6S4.2139,2.0552,4.49,2H7v5H5l-2,7h9l-2-7H8z" transform="matrix(.8 0 0 .8 4 4)"/><m:metadata><m:parameters><m:parameter m:name="background-stroke" m:type="color" m:value="#DCDCDC"/><m:parameter m:name="icon" m:type="color" m:value="#000000"/><m:parameter m:name="background" m:type="color" m:value="#A7A7A7"/><m:parameter m:name="icon-stroke" m:type="color" m:value="#ffffff"/></m:parameters></m:metadata></svg>