<svg version="1.1" id="lodging" xmlns="http://www.w3.org/2000/svg" width="20" height="20" viewBox="0 0 20 20" xmlns:m="https://www.mapbox.com"><path d="M19.4 10C19.4 15.1918 15.1917 19.4 9.99998 19.4C4.80821 19.4 0.599976 15.1918 0.599976 10C0.599976 4.80823 4.80821 0.6 9.99998 0.6C15.1917 0.6 19.4 4.80823 19.4 10Z" fill="#A7A7A7" stroke="#DCDCDC" stroke-linejoin="round" stroke-width="1.2"/><path id="rect6507" d="M0.5,2.5C0.2,2.5,0,2.7,0,3v7.5v2C0,12.8,0.2,13,0.5,13S1,12.8,1,12.5V11h13v1.5	c0,0.3,0.2,0.5,0.5,0.5s0.5-0.2,0.5-0.5v-2c0-0.3-0.2-0.5-0.5-0.5H1V3C1,2.7,0.8,2.5,0.5,2.5z M3.5,3C2.7,3,2,3.7,2,4.5l0,0	C2,5.3,2.7,6,3.5,6l0,0C4.3,6,5,5.3,5,4.5l0,0C5,3.7,4.3,3,3.5,3L3.5,3z M7,4C5.5,4,5.5,5.5,5.5,5.5V7h-3C2.2,7,2,7.2,2,7.5v1	C2,8.8,2.2,9,2.5,9H6h9V6.5C15,4,12.5,4,12.5,4H7z" transform="matrix(.8 0 0 .8 4 4)" fill="#000" style="stroke-linejoin:round;stroke-miterlimit:4;" stroke="#fff" stroke-width="3"/><path id="rect6507" d="M0.5,2.5C0.2,2.5,0,2.7,0,3v7.5v2C0,12.8,0.2,13,0.5,13S1,12.8,1,12.5V11h13v1.5	c0,0.3,0.2,0.5,0.5,0.5s0.5-0.2,0.5-0.5v-2c0-0.3-0.2-0.5-0.5-0.5H1V3C1,2.7,0.8,2.5,0.5,2.5z M3.5,3C2.7,3,2,3.7,2,4.5l0,0	C2,5.3,2.7,6,3.5,6l0,0C4.3,6,5,5.3,5,4.5l0,0C5,3.7,4.3,3,3.5,3L3.5,3z M7,4C5.5,4,5.5,5.5,5.5,5.5V7h-3C2.2,7,2,7.2,2,7.5v1	C2,8.8,2.2,9,2.5,9H6h9V6.5C15,4,12.5,4,12.5,4H7z" transform="matrix(.8 0 0 .8 4 4)" fill="#000"/><m:metadata><m:parameters><m:parameter m:name="background-stroke" m:type="color" m:value="#DCDCDC"/><m:parameter m:name="icon" m:type="color" m:value="#000000"/><m:parameter m:name="background" m:type="color" m:value="#A7A7A7"/><m:parameter m:name="icon-stroke" m:type="color" m:value="#ffffff"/></m:parameters></m:metadata></svg>