<svg width="12" height="20" viewBox="0 0 12 20" fill="none" xmlns="http://www.w3.org/2000/svg" xmlns:m="https://www.mapbox.com"><path d="M6.00122 8.001C6.39678 8.001 6.78346 8.1183 7.11236 8.338C7.44126 8.5578 7.6976 8.8702 7.84898 9.2356C8.00035 9.6011 8.03996 10.0032 7.96279 10.3912C7.88562 10.7791 7.69514 11.1355 7.41543 11.4152C7.13573 11.6949 6.77936 11.8854 6.3914 11.9625C6.00344 12.0397 5.60131 12.0001 5.23585 11.8487C4.8704 11.6974 4.55804 11.441 4.33828 11.1121C4.11852 10.7832 4.00122 10.3965 4.00122 10.001C4.00122 9.4705 4.21193 8.9618 4.58701 8.5868C4.96208 8.2117 5.47079 8.001 6.00122 8.001Z" fill="#00f" stroke="#ff0" stroke-width="2" stroke-linejoin="round"/><path d="M6.00122 8.001C6.39678 8.001 6.78346 8.1183 7.11236 8.338C7.44126 8.5578 7.6976 8.8702 7.84898 9.2356C8.00035 9.6011 8.03996 10.0032 7.96279 10.3912C7.88562 10.7791 7.69514 11.1355 7.41543 11.4152C7.13573 11.6949 6.77936 11.8854 6.3914 11.9625C6.00344 12.0397 5.60131 12.0001 5.23585 11.8487C4.8704 11.6974 4.55804 11.441 4.33828 11.1121C4.11852 10.7832 4.00122 10.3965 4.00122 10.001C4.00122 9.4705 4.21193 8.9618 4.58701 8.5868C4.96208 8.2117 5.47079 8.001 6.00122 8.001Z" fill="#00f"/><path d="M6.00122 8.001C6.39678 8.001 6.78346 8.1183 7.11236 8.338C7.44126 8.5578 7.6976 8.8702 7.84898 9.2356C8.00035 9.6011 8.03996 10.0032 7.96279 10.3912C7.88562 10.7791 7.69514 11.1355 7.41543 11.4152C7.13573 11.6949 6.77936 11.8854 6.3914 11.9625C6.00344 12.0397 5.60131 12.0001 5.23585 11.8487C4.8704 11.6974 4.55804 11.441 4.33828 11.1121C4.11852 10.7832 4.00122 10.3965 4.00122 10.001C4.00122 9.4705 4.21193 8.9618 4.58701 8.5868C4.96208 8.2117 5.47079 8.001 6.00122 8.001Z" fill="#7594A3" stroke="#FFF" stroke-width="2" stroke-linejoin="round"/><path d="M6.00122 8.001C6.39678 8.001 6.78346 8.1183 7.11236 8.338C7.44126 8.5578 7.6976 8.8702 7.84898 9.2356C8.00035 9.6011 8.03996 10.0032 7.96279 10.3912C7.88562 10.7791 7.69514 11.1355 7.41543 11.4152C7.13573 11.6949 6.77936 11.8854 6.3914 11.9625C6.00344 12.0397 5.60131 12.0001 5.23585 11.8487C4.8704 11.6974 4.55804 11.441 4.33828 11.1121C4.11852 10.7832 4.00122 10.3965 4.00122 10.001C4.00122 9.4705 4.21193 8.9618 4.58701 8.5868C4.96208 8.2117 5.47079 8.001 6.00122 8.001Z" fill="#7594A3"/><m:metadata><m:parameters><m:parameter m:name="background" m:type="color" m:value="#0000FF"/><m:parameter m:name="icon" m:type="color" m:value="#7594A3"/><m:parameter m:name="background-stroke" m:type="color" m:value="#FFFF00"/><m:parameter m:name="icon-stroke" m:type="color" m:value="#FFFFFF"/></m:parameters></m:metadata></svg>