<svg id="mobile-phone" xmlns="http://www.w3.org/2000/svg" width="20" height="20" viewBox="0 0 20 20" xmlns:m="https://www.mapbox.com"><path d="M19.4 10C19.4 15.1918 15.1917 19.4 9.99998 19.4C4.80821 19.4 0.599976 15.1918 0.599976 10C0.599976 4.80823 4.80821 0.6 9.99998 0.6C15.1917 0.6 19.4 4.80823 19.4 10Z" fill="#A7A7A7" stroke="#DCDCDC" stroke-linejoin="round" stroke-width="1.2"/><path d="M10,2h0V1.5a.5.5,0,0,0-1,0V2H5A1,1,0,0,0,4,3V13a1,1,0,0,0,1,1h5a1,1,0,0,0,1-1V3A1,1,0,0,0,10,2ZM6,13H5V12H6Zm0-2H5V10H6ZM6,9H5V8H6Zm2,4H7V12H8Zm0-2H7V10H8ZM8,9H7V8H8Zm2,4H9V12h1Zm0-2H9V10h1Zm0-2H9V8h1Zm0-2.5a.5.5,0,0,1-.5.5h-4A.5.5,0,0,1,5,6.5v-3A.5.5,0,0,1,5.5,3h4a.5.5,0,0,1,.5.5Z" transform="matrix(.8 0 0 .8 4 4)" style="stroke-linejoin:round;stroke-miterlimit:4;" stroke="#fff" stroke-width="3"/><path d="M10,2h0V1.5a.5.5,0,0,0-1,0V2H5A1,1,0,0,0,4,3V13a1,1,0,0,0,1,1h5a1,1,0,0,0,1-1V3A1,1,0,0,0,10,2ZM6,13H5V12H6Zm0-2H5V10H6ZM6,9H5V8H6Zm2,4H7V12H8Zm0-2H7V10H8ZM8,9H7V8H8Zm2,4H9V12h1Zm0-2H9V10h1Zm0-2H9V8h1Zm0-2.5a.5.5,0,0,1-.5.5h-4A.5.5,0,0,1,5,6.5v-3A.5.5,0,0,1,5.5,3h4a.5.5,0,0,1,.5.5Z" transform="matrix(.8 0 0 .8 4 4)"/><m:metadata><m:parameters><m:parameter m:name="background-stroke" m:type="color" m:value="#DCDCDC"/><m:parameter m:name="icon" m:type="color" m:value="#000000"/><m:parameter m:name="background" m:type="color" m:value="#A7A7A7"/><m:parameter m:name="icon-stroke" m:type="color" m:value="#ffffff"/></m:parameters></m:metadata></svg>