<svg height="20" viewBox="0 0 20 20" width="20" xmlns="http://www.w3.org/2000/svg" id="music" xmlns:m="https://www.mapbox.com"><path d="M19.4 10C19.4 15.1918 15.1917 19.4 9.99998 19.4C4.80821 19.4 0.599976 15.1918 0.599976 10C0.599976 4.80823 4.80821 0.6 9.99998 0.6C15.1917 0.6 19.4 4.80823 19.4 10Z" fill="#A7A7A7" stroke="#DCDCDC" stroke-linejoin="round" stroke-width="1.2"/><path d="m12.5 0c-.0804.0008-.1594.0213999-.23.0599999l-8.77 2.4400001c-.2761 0-.5.2239-.5.5v6.28c-.3029-.1798-.6478-.2763-1-.28-1.1046 0-2 .8954-2 2s.8954 2 2 2 2-.8954 2-2v-4.64l8-2.22v3.64c-.3029-.1798-.6478-.2763-1-.28-1.1046 0-2 .8954-2 2s.8954 2 2 2 2-.8954 2-2v-9c0-.2761-.2239-.5-.5-.5zm-.5 3.14-8 2.22v-2l8-2.22z" transform="matrix(.8 0 0 .8 4 4)" style="stroke-linejoin:round;stroke-miterlimit:4;" stroke="#fff" stroke-width="3"/><path d="m12.5 0c-.0804.0008-.1594.0213999-.23.0599999l-8.77 2.4400001c-.2761 0-.5.2239-.5.5v6.28c-.3029-.1798-.6478-.2763-1-.28-1.1046 0-2 .8954-2 2s.8954 2 2 2 2-.8954 2-2v-4.64l8-2.22v3.64c-.3029-.1798-.6478-.2763-1-.28-1.1046 0-2 .8954-2 2s.8954 2 2 2 2-.8954 2-2v-9c0-.2761-.2239-.5-.5-.5zm-.5 3.14-8 2.22v-2l8-2.22z" transform="matrix(.8 0 0 .8 4 4)"/><m:metadata><m:parameters><m:parameter m:name="background-stroke" m:type="color" m:value="#DCDCDC"/><m:parameter m:name="icon" m:type="color" m:value="#000000"/><m:parameter m:name="background" m:type="color" m:value="#A7A7A7"/><m:parameter m:name="icon-stroke" m:type="color" m:value="#ffffff"/></m:parameters></m:metadata></svg>