<svg width="20" height="20" viewBox="0 0 20 20" xmlns="http://www.w3.org/2000/svg" id="parking" xmlns:m="https://www.mapbox.com"><path d="M19.4 10C19.4 15.1918 15.1917 19.4 9.99998 19.4C4.80821 19.4 0.599976 15.1918 0.599976 10C0.599976 4.80823 4.80821 0.6 9.99998 0.6C15.1917 0.6 19.4 4.80823 19.4 10Z" fill="#A7A7A7" stroke="#DCDCDC" stroke-linejoin="round" stroke-width="1.2"/><path d="M4 2V13H6V9H8.5C10.433 9 12 7.433 12 5.5C12 3.567 10.433 2 8.5 2H4ZM6 7V4H8.5C9.32843 4 10 4.67157 10 5.5C10 6.32843 9.32843 7 8.5 7H6Z" transform="matrix(.8 0 0 .8 4 4)" style="stroke-linejoin:round;stroke-miterlimit:4;" stroke="#fff" stroke-width="3"/><path d="M4 2V13H6V9H8.5C10.433 9 12 7.433 12 5.5C12 3.567 10.433 2 8.5 2H4ZM6 7V4H8.5C9.32843 4 10 4.67157 10 5.5C10 6.32843 9.32843 7 8.5 7H6Z" transform="matrix(.8 0 0 .8 4 4)"/><m:metadata><m:parameters><m:parameter m:name="background-stroke" m:type="color" m:value="#DCDCDC"/><m:parameter m:name="icon" m:type="color" m:value="#000000"/><m:parameter m:name="background" m:type="color" m:value="#A7A7A7"/><m:parameter m:name="icon-stroke" m:type="color" m:value="#ffffff"/></m:parameters></m:metadata></svg>