<svg version="1.1" id="place-of-worship" xmlns="http://www.w3.org/2000/svg" width="20" height="20" viewBox="0 0 20 20" xmlns:m="https://www.mapbox.com"><path d="M19.4 10C19.4 15.1918 15.1917 19.4 9.99998 19.4C4.80821 19.4 0.599976 15.1918 0.599976 10C0.599976 4.80823 4.80821 0.6 9.99998 0.6C15.1917 0.6 19.4 4.80823 19.4 10Z" fill="#A7A7A7" stroke="#DCDCDC" stroke-linejoin="round" stroke-width="1.2"/><path id="path9064" d="M7.5,0l-2,2v2h4V2	L7.5,0z M5.5,4.5L4,6h7L9.5,4.5H5.5z M2,6.5c-0.5523,0-1,0.4477-1,1V13h2V7.5C3,6.9477,2.5523,6.5,2,6.5z M4,6.5V13h7V6.5H4z M13,6.5c-0.5523,0-1,0.4477-1,1V13h2V7.5C14,6.9477,13.5523,6.5,13,6.5z" transform="matrix(.8 0 0 .8 4 4)" fill="#000" style="stroke-linejoin:round;stroke-miterlimit:4;" stroke="#fff" stroke-width="3"/><path id="path9064" d="M7.5,0l-2,2v2h4V2	L7.5,0z M5.5,4.5L4,6h7L9.5,4.5H5.5z M2,6.5c-0.5523,0-1,0.4477-1,1V13h2V7.5C3,6.9477,2.5523,6.5,2,6.5z M4,6.5V13h7V6.5H4z M13,6.5c-0.5523,0-1,0.4477-1,1V13h2V7.5C14,6.9477,13.5523,6.5,13,6.5z" transform="matrix(.8 0 0 .8 4 4)" fill="#000"/><m:metadata><m:parameters><m:parameter m:name="background-stroke" m:type="color" m:value="#DCDCDC"/><m:parameter m:name="icon" m:type="color" m:value="#000000"/><m:parameter m:name="background" m:type="color" m:value="#A7A7A7"/><m:parameter m:name="icon-stroke" m:type="color" m:value="#ffffff"/></m:parameters></m:metadata></svg>