<svg version="1.1" id="rail-light" xmlns="http://www.w3.org/2000/svg" width="16" height="16" viewBox="0 0 20 20" xmlns:m="https://www.mapbox.com"><path d="M5.5,1H14.5c2.485,0,4.5,2.015,4.5,4.5V14.5c0,2.485-2.015,4.5-4.5,4.5H5.5c-2.485,0-4.5-2.015-4.5-4.5V5.5C1,3.015,3.015,1,5.5,1Z" fill="#5373D4" stroke="#C4DCF2" stroke-linejoin="round" stroke-width="1.2"/><path id="path14245" d="M5.5,0C5,0,5,0.5,5,0.5v1C5,1.777,5.223,2,5.5,2S6,1.777,6,1.5V1h1v2H6c0,0-2,0-2,2v3c0,3,3,3,3,3h1	c0,0,3,0,3-3V5c0-2-2-2-2-2H8V1h1v0.5C9,1.777,9.223,2,9.5,2S10,1.777,10,1.5v-1C10,0,9.5,0,9.5,0H5.5z M7.5,4l2.0449,0.7734L10,6.5	C10.1316,7,9.5,7,9.5,7h-4c0,0-0.6316,0-0.5-0.5l0.4551-1.7266L7.5,4z M7.5,8C7.7761,8,8,8.2239,8,8.5S7.7761,9,7.5,9	S7,8.7761,7,8.5S7.2239,8,7.5,8z M4.125,12L3,15h1.5l0.375-1h5.25l0.375,1H12l-1.125-3h-1.5l0.375,1h-4.5l0.375-1H4.125z" transform="matrix(.8 0 0 .8 4 4)" fill="#FFF"/><m:metadata><m:parameters><m:parameter m:name="background-stroke" m:type="color" m:value="#C4DCF2"/><m:parameter m:name="icon" m:type="color" m:value="#FFFFFF"/><m:parameter m:name="background" m:type="color" m:value="#5373D4"/></m:parameters></m:metadata></svg>