<svg version="1.1" id="religious-christian" xmlns="http://www.w3.org/2000/svg" width="20" height="20" viewBox="0 0 20 20" xmlns:m="https://www.mapbox.com"><path d="M19.4 10C19.4 15.1918 15.1917 19.4 9.99998 19.4C4.80821 19.4 0.599976 15.1918 0.599976 10C0.599976 4.80823 4.80821 0.6 9.99998 0.6C15.1917 0.6 19.4 4.80823 19.4 10Z" fill="#A7A7A7" stroke="#DCDCDC" stroke-linejoin="round" stroke-width="1.2"/><path id="rect3338" d="M6,0.9552V4H3v3h3v8h3V7h3V4H9V1	c0-1-0.9776-1-0.9776-1H6.9887C6.9887,0,6,0,6,0.9552z" transform="matrix(.8 0 0 .8 4 4)" fill="#000" style="stroke-linejoin:round;stroke-miterlimit:4;" stroke="#fff" stroke-width="3"/><path id="rect3338" d="M6,0.9552V4H3v3h3v8h3V7h3V4H9V1	c0-1-0.9776-1-0.9776-1H6.9887C6.9887,0,6,0,6,0.9552z" transform="matrix(.8 0 0 .8 4 4)" fill="#000"/><m:metadata><m:parameters><m:parameter m:name="background-stroke" m:type="color" m:value="#DCDCDC"/><m:parameter m:name="icon" m:type="color" m:value="#000000"/><m:parameter m:name="background" m:type="color" m:value="#A7A7A7"/><m:parameter m:name="icon-stroke" m:type="color" m:value="#ffffff"/></m:parameters></m:metadata></svg>