<svg id="restaurant-noodle" xmlns="http://www.w3.org/2000/svg" width="20" height="20" viewBox="0 0 20 20" xmlns:m="https://www.mapbox.com"><path d="M19.4 10C19.4 15.1918 15.1917 19.4 9.99998 19.4C4.80821 19.4 0.599976 15.1918 0.599976 10C0.599976 4.80823 4.80821 0.6 9.99998 0.6C15.1917 0.6 19.4 4.80823 19.4 10Z" fill="#A7A7A7" stroke="#DCDCDC" stroke-linejoin="round" stroke-width="1.2"/><path d="M4.457,11.9892,1,8V7H14V8l-3.4961,3.9891ZM3.9882,2.5a.5.5,0,0,0-1,0v.5671l-1.7969.3675a.25.25,0,1,0,.094.4911l1.7029-.2776v.5662l-1.75.0357a.25.25,0,0,0,0,.5l1.75.0357V5.998h1Zm9.5,1.5-7.5.2625V2.9951l7.594-1.0737a.5.5,0,0,0-.1881-.9822L5.9792,2.4555a.4963.4963,0,0,0-.991.0445v.2276l-.493.1009V3.18l.493-.08V4.2974l-.493.01v.4608L13.4882,5a.5.5,0,0,0,0-1ZM10,13H5v.5757h5Z" transform="matrix(.8 0 0 .8 4 4)" style="stroke-linejoin:round;stroke-miterlimit:4;" stroke="#fff" stroke-width="3"/><path d="M4.457,11.9892,1,8V7H14V8l-3.4961,3.9891ZM3.9882,2.5a.5.5,0,0,0-1,0v.5671l-1.7969.3675a.25.25,0,1,0,.094.4911l1.7029-.2776v.5662l-1.75.0357a.25.25,0,0,0,0,.5l1.75.0357V5.998h1Zm9.5,1.5-7.5.2625V2.9951l7.594-1.0737a.5.5,0,0,0-.1881-.9822L5.9792,2.4555a.4963.4963,0,0,0-.991.0445v.2276l-.493.1009V3.18l.493-.08V4.2974l-.493.01v.4608L13.4882,5a.5.5,0,0,0,0-1ZM10,13H5v.5757h5Z" transform="matrix(.8 0 0 .8 4 4)"/><m:metadata><m:parameters><m:parameter m:name="background-stroke" m:type="color" m:value="#DCDCDC"/><m:parameter m:name="icon" m:type="color" m:value="#000000"/><m:parameter m:name="background" m:type="color" m:value="#A7A7A7"/><m:parameter m:name="icon-stroke" m:type="color" m:value="#ffffff"/></m:parameters></m:metadata></svg>