<svg version="1.1" id="restaurant" xmlns="http://www.w3.org/2000/svg" width="20" height="20" viewBox="0 0 20 20" xmlns:m="https://www.mapbox.com"><path d="M19.4 10C19.4 15.1918 15.1917 19.4 9.99998 19.4C4.80821 19.4 0.599976 15.1918 0.599976 10C0.599976 4.80823 4.80821 0.6 9.99998 0.6C15.1917 0.6 19.4 4.80823 19.4 10Z" fill="#A7A7A7" stroke="#DCDCDC" stroke-linejoin="round" stroke-width="1.2"/><path id="path11774" d="M3.5,0l-1,5.5c-0.1464,0.805,1.7815,1.181,1.75,2L4,14c-0.0384,0.9993,1,1,1,1s1.0384-0.0007,1-1L5.75,7.5	c-0.0314-0.8176,1.7334-1.1808,1.75-2L6.5,0H6l0.25,4L5.5,4.5L5.25,0h-0.5L4.5,4.5L3.75,4L4,0H3.5z M12,0	c-0.7364,0-1.9642,0.6549-2.4551,1.6367C9.1358,2.3731,9,4.0182,9,5v2.5c0,0.8182,1.0909,1,1.5,1L10,14c-0.0905,0.9959,1,1,1,1	s1,0,1-1V0z" transform="matrix(.8 0 0 .8 4 4)" fill="#000" style="stroke-linejoin:round;stroke-miterlimit:4;" stroke="#fff" stroke-width="3"/><path id="path11774" d="M3.5,0l-1,5.5c-0.1464,0.805,1.7815,1.181,1.75,2L4,14c-0.0384,0.9993,1,1,1,1s1.0384-0.0007,1-1L5.75,7.5	c-0.0314-0.8176,1.7334-1.1808,1.75-2L6.5,0H6l0.25,4L5.5,4.5L5.25,0h-0.5L4.5,4.5L3.75,4L4,0H3.5z M12,0	c-0.7364,0-1.9642,0.6549-2.4551,1.6367C9.1358,2.3731,9,4.0182,9,5v2.5c0,0.8182,1.0909,1,1.5,1L10,14c-0.0905,0.9959,1,1,1,1	s1,0,1-1V0z" transform="matrix(.8 0 0 .8 4 4)" fill="#000"/><m:metadata><m:parameters><m:parameter m:name="background-stroke" m:type="color" m:value="#DCDCDC"/><m:parameter m:name="icon" m:type="color" m:value="#000000"/><m:parameter m:name="background" m:type="color" m:value="#A7A7A7"/><m:parameter m:name="icon-stroke" m:type="color" m:value="#ffffff"/></m:parameters></m:metadata></svg>