<svg xmlns="http://www.w3.org/2000/svg" id="ro-communal-3" width="26" height="20" viewBox="0 0 26 20" xmlns:m="https://www.mapbox.com"><g><path d="M0,0 H26 V20 H0 Z" fill="none"/><path d="M1,3V13a2.951,2.951,0,0,0,2,3c1.632.744,10,3,10,3s8.368-2.256,10-3a2.951,2.951,0,0,0,2-3V3Z" fill="none" stroke="hsl(230, 18%, 13%)" stroke-linejoin="round" stroke-miterlimit="4px" stroke-width="2"/><path d="M1,3V13a2.951,2.951,0,0,0,2,3c1.632.744,10,3,10,3s8.368-2.256,10-3a2.951,2.951,0,0,0,2-3V3Z" fill="hsl(50, 100%, 70%)"/><path d="M0,7 H26 V13 H0 Z" fill="none" id="mapbox-text-placeholder"/></g><m:metadata><m:parameters><m:parameter m:name="color-1" m:type="color" m:value="#1B1D27"/><m:parameter m:name="color-2" m:type="color" m:value="#FFE565"/></m:parameters></m:metadata></svg>