<svg width="29" height="29" viewBox="0 0 29 29" fill="none" xmlns="http://www.w3.org/2000/svg" xmlns:m="https://www.mapbox.com"><path d="M27 14.5C27 7.59644 21.4036 2 14.5 2C7.59644 2 2 7.59644 2 14.5C2 21.4036 7.59644 27 14.5 27C21.4036 27 27 21.4036 27 14.5Z" fill="#fff" stroke="#fff" stroke-width="4" stroke-linejoin="round"/><path d="M27 14.5C27 7.59644 21.4036 2 14.5 2C7.59644 2 2 7.59644 2 14.5C2 21.4036 7.59644 27 14.5 27C21.4036 27 27 21.4036 27 14.5Z" fill="#E8304F"/><path d="M19.6 15.7L18.5 13.5C18.4055 13.3464 18.2731 13.2197 18.1155 13.1321C17.9579 13.0445 17.7803 12.999 17.6 13H11.4C11.2197 12.999 11.0421 13.0445 10.8845 13.1321C10.7269 13.2197 10.5945 13.3464 10.5 13.5L9.4 15.7L8.16 16.852C8.10961 16.8987 8.06939 16.9554 8.04186 17.0183C8.01433 17.0813 8.00008 17.1493 8 17.218V21.5C8 21.6326 8.05268 21.7598 8.14645 21.8536C8.24021 21.9473 8.36739 22 8.5 22H10.5C10.7 22 11 21.8 11 21.6V21H18V21.5C18 21.7 18.2 22 18.4 22H20.5C20.6326 22 20.7598 21.9473 20.8536 21.8536C20.9473 21.7598 21 21.6326 21 21.5V17.218C20.9999 17.1493 20.9857 17.0813 20.9581 17.0183C20.9306 16.9554 20.8904 16.8987 20.84 16.852L19.6 15.7ZM11.5 14H17.5L18.5 16H10.5L11.5 14ZM12 18.6C12 18.8 11.7 19 11.5 19H9.4C9.2 19 9 18.7 9 18.5V17.4C9.1 17.1 9.3 16.9 9.6 17L11.6 17.4C11.8 17.4 12 17.7 12 17.9V18.6ZM20 18.5C20 18.7 19.8 19 19.6 19H17.5C17.3 19 17 18.8 17 18.6V17.9C17 17.7 17.2 17.4 17.4 17.4L19.4 17C19.7 16.9 19.9 17.1 20 17.4V18.5ZM15 11H14L13 7H16L15 11ZM8.1 8.8L10.7 7.3L11.8 11.3L11 11.7L8.1 8.8ZM18.3 7.3L20.9 8.8L18 11.8L17.1 11.3L18.3 7.3Z" fill="#fff"/><m:metadata><m:parameters><m:parameter m:name="color-1" m:type="color" m:value="#E8304F"/><m:parameter m:name="color-2" m:type="color" m:value="#FFFFFF"/></m:parameters></m:metadata></svg>