<svg height="16" viewBox="0 0 20 20" width="16" xmlns="http://www.w3.org/2000/svg" id="rocket" xmlns:m="https://www.mapbox.com"><path d="M5.5,1H14.5c2.485,0,4.5,2.015,4.5,4.5V14.5c0,2.485-2.015,4.5-4.5,4.5H5.5c-2.485,0-4.5-2.015-4.5-4.5V5.5C1,3.015,3.015,1,5.5,1Z" fill="#5373D4" stroke="#C4DCF2" stroke-linejoin="round" stroke-width="1.2"/><path d="m11.5547 2c-2.14407 0-5.02107 1.471-6.95307 4h-1.6016c-1.1573 0-1.8206.8638-2.277302 1.7773l-.6114 1.2227h1.443402 1.4453l1.5 1.5 1.5 1.5v1.4453 1.4434l1.2227-.6113c.9135-.4568 1.7773-1.1201 1.7773-2.2774v-1.6016c2.52897-1.932 3.99997-4.809 3.99997-6.9531v-1.4453zm-2.55467 3c.5523 0 .99997.4477.99997 1s-.44767 1-.99997 1-1-.4477-1-1 .4477-1 1-1zm-6.5 6-.5.5c-.7222.7222-1 2.5-1 2.5s1.698-.198 2.5-1l.5-.5z" transform="matrix(.8 0 0 .8 4 4)" fill="#FFF"/><m:metadata><m:parameters><m:parameter m:name="background-stroke" m:type="color" m:value="#C4DCF2"/><m:parameter m:name="icon" m:type="color" m:value="#FFFFFF"/><m:parameter m:name="background" m:type="color" m:value="#5373D4"/></m:parameters></m:metadata></svg>