<svg width="20" height="20" viewBox="0 0 20 20" xmlns="http://www.w3.org/2000/svg" id="school" xmlns:m="https://www.mapbox.com"><path d="M19.4 10C19.4 15.1918 15.1917 19.4 9.99998 19.4C4.80821 19.4 0.599976 15.1918 0.599976 10C0.599976 4.80823 4.80821 0.6 9.99998 0.6C15.1917 0.6 19.4 4.80823 19.4 10Z" fill="#A7A7A7" stroke="#DCDCDC" stroke-linejoin="round" stroke-width="1.2"/><path d="M5.542 3.647 3.106 3l.443-1.63a.505.505 0 0 1 .618-.352l1.46.392a.5.5 0 0 1 .355.613l-.44 1.624Zm-4.52 7.356a.496.496 0 0 1-.005-.276l1.819-6.726 2.435.647-1.819 6.726a.499.499 0 0 1-.143.237l-1.457 1.347a.152.152 0 0 1-.247-.066l-.583-1.889ZM10 5c-2.25 0-3-.75-3-3 2.25 0 3 .75 3 3Zm-1.4 7.984c-1.37.21-3.126-1.706-3.52-3.8L5.969 5.9c.399-.35.903-.533 1.419-.533a2.71 2.71 0 0 1 1.564.489.964.964 0 0 0 1.089-.01 2.438 2.438 0 0 1 1.46-.479c.77 0 1.643.489 2.05 1.201 1.536 2.696-1.194 6.709-3.144 6.417a.867.867 0 0 1-.255-.093 1.427 1.427 0 0 0-1.302 0 .866.866 0 0 1-.25.092Z" transform="matrix(.8 0 0 .8 4 4)" style="stroke-linejoin:round;stroke-miterlimit:4;" stroke="#fff" stroke-width="3"/><path d="M5.542 3.647 3.106 3l.443-1.63a.505.505 0 0 1 .618-.352l1.46.392a.5.5 0 0 1 .355.613l-.44 1.624Zm-4.52 7.356a.496.496 0 0 1-.005-.276l1.819-6.726 2.435.647-1.819 6.726a.499.499 0 0 1-.143.237l-1.457 1.347a.152.152 0 0 1-.247-.066l-.583-1.889ZM10 5c-2.25 0-3-.75-3-3 2.25 0 3 .75 3 3Zm-1.4 7.984c-1.37.21-3.126-1.706-3.52-3.8L5.969 5.9c.399-.35.903-.533 1.419-.533a2.71 2.71 0 0 1 1.564.489.964.964 0 0 0 1.089-.01 2.438 2.438 0 0 1 1.46-.479c.77 0 1.643.489 2.05 1.201 1.536 2.696-1.194 6.709-3.144 6.417a.867.867 0 0 1-.255-.093 1.427 1.427 0 0 0-1.302 0 .866.866 0 0 1-.25.092Z" transform="matrix(.8 0 0 .8 4 4)"/><m:metadata><m:parameters><m:parameter m:name="background-stroke" m:type="color" m:value="#DCDCDC"/><m:parameter m:name="icon" m:type="color" m:value="#000000"/><m:parameter m:name="background" m:type="color" m:value="#A7A7A7"/><m:parameter m:name="icon-stroke" m:type="color" m:value="#ffffff"/></m:parameters></m:metadata></svg>