<svg xmlns="http://www.w3.org/2000/svg" width="20" height="20" viewBox="0 0 20 20" id="shoe" xmlns:m="https://www.mapbox.com"><path d="M19.4 10C19.4 15.1918 15.1917 19.4 9.99998 19.4C4.80821 19.4 0.599976 15.1918 0.599976 10C0.599976 4.80823 4.80821 0.6 9.99998 0.6C15.1917 0.6 19.4 4.80823 19.4 10Z" fill="#A7A7A7" stroke="#DCDCDC" stroke-linejoin="round" stroke-width="1.2"/><path d="M9.5,7a9.97,9.97,0,0,1-1.315-.948L6.01,3.221a.558.558,0,0,0-1,.279H5V5H3.209a.5.5,0,0,1-.357-.148S2.5,4,2,4H1.5a.5.5,0,0,0-.5.5V9H6.5c1.5,0,2,1,3.5,1h4V9.5C14,8,10.547,7.594,9.5,7Zm0,4a3.131,3.131,0,0,1-1.526-.447A4.1,4.1,0,0,0,6,10H1v1.5a.5.5,0,0,0,.5.5h4a.5.5,0,0,0,.5-.5V11a3.134,3.134,0,0,1,1.526.447A4.1,4.1,0,0,0,9.5,12h4a.5.5,0,0,0,.5-.5V11Z" transform="matrix(.8 0 0 .8 4 4)" style="stroke-linejoin:round;stroke-miterlimit:4;" stroke="#fff" stroke-width="3"/><path d="M9.5,7a9.97,9.97,0,0,1-1.315-.948L6.01,3.221a.558.558,0,0,0-1,.279H5V5H3.209a.5.5,0,0,1-.357-.148S2.5,4,2,4H1.5a.5.5,0,0,0-.5.5V9H6.5c1.5,0,2,1,3.5,1h4V9.5C14,8,10.547,7.594,9.5,7Zm0,4a3.131,3.131,0,0,1-1.526-.447A4.1,4.1,0,0,0,6,10H1v1.5a.5.5,0,0,0,.5.5h4a.5.5,0,0,0,.5-.5V11a3.134,3.134,0,0,1,1.526.447A4.1,4.1,0,0,0,9.5,12h4a.5.5,0,0,0,.5-.5V11Z" transform="matrix(.8 0 0 .8 4 4)"/><m:metadata><m:parameters><m:parameter m:name="background-stroke" m:type="color" m:value="#DCDCDC"/><m:parameter m:name="icon" m:type="color" m:value="#000000"/><m:parameter m:name="background" m:type="color" m:value="#A7A7A7"/><m:parameter m:name="icon-stroke" m:type="color" m:value="#ffffff"/></m:parameters></m:metadata></svg>