<svg width="20" height="20" viewBox="0 0 20 20" xmlns="http://www.w3.org/2000/svg" id="skateboard" xmlns:m="https://www.mapbox.com"><path d="M19.4 10C19.4 15.1918 15.1917 19.4 9.99998 19.4C4.80821 19.4 0.599976 15.1918 0.599976 10C0.599976 4.80823 4.80821 0.6 9.99998 0.6C15.1917 0.6 19.4 4.80823 19.4 10Z" fill="#A7A7A7" stroke="#DCDCDC" stroke-linejoin="round" stroke-width="1.2"/><path d="M1.25 5.25V5H2.75V5.25C2.75 5.94036 3.30964 6.5 4 6.5H11C11.6904 6.5 12.25 5.94036 12.25 5.25V5H13.75V5.25C13.75 6.76878 12.5188 8 11 8H4C2.48122 8 1.25 6.76878 1.25 5.25ZM5 10C5 10.5523 4.55228 11 4 11 3.44772 11 3 10.5523 3 10 3 9.44772 3.44772 9 4 9 4.55228 9 5 9.44772 5 10ZM12 10C12 10.5523 11.5523 11 11 11 10.4477 11 10 10.5523 10 10 10 9.44772 10.4477 9 11 9 11.5523 9 12 9.44772 12 10Z" transform="matrix(.8 0 0 .8 4 4)" style="stroke-linejoin:round;stroke-miterlimit:4;" stroke="#fff" stroke-width="3"/><path d="M1.25 5.25V5H2.75V5.25C2.75 5.94036 3.30964 6.5 4 6.5H11C11.6904 6.5 12.25 5.94036 12.25 5.25V5H13.75V5.25C13.75 6.76878 12.5188 8 11 8H4C2.48122 8 1.25 6.76878 1.25 5.25ZM5 10C5 10.5523 4.55228 11 4 11 3.44772 11 3 10.5523 3 10 3 9.44772 3.44772 9 4 9 4.55228 9 5 9.44772 5 10ZM12 10C12 10.5523 11.5523 11 11 11 10.4477 11 10 10.5523 10 10 10 9.44772 10.4477 9 11 9 11.5523 9 12 9.44772 12 10Z" transform="matrix(.8 0 0 .8 4 4)"/><m:metadata><m:parameters><m:parameter m:name="background-stroke" m:type="color" m:value="#DCDCDC"/><m:parameter m:name="icon" m:type="color" m:value="#000000"/><m:parameter m:name="background" m:type="color" m:value="#A7A7A7"/><m:parameter m:name="icon-stroke" m:type="color" m:value="#ffffff"/></m:parameters></m:metadata></svg>