<svg width="20" height="20" viewBox="0 0 20 20" xmlns="http://www.w3.org/2000/svg" id="slipway" xmlns:m="https://www.mapbox.com"><path d="M19.4 10C19.4 15.1918 15.1917 19.4 9.99998 19.4C4.80821 19.4 0.599976 15.1918 0.599976 10C0.599976 4.80823 4.80821 0.6 9.99998 0.6C15.1917 0.6 19.4 4.80823 19.4 10Z" fill="#A7A7A7" stroke="#DCDCDC" stroke-linejoin="round" stroke-width="1.2"/><path d="m2 10 12 1.495V12H2v-2Zm12-4-1 1v.583L5.196 4.332l.063-.125L6.61 2.845h.831a.35.35 0 0 0 0-.7h-.976a.352.352 0 0 0-.248.103L4.723 3.753a.371.371 0 0 0-.066.09l-.109.219L2 3c0 2-.03 3.958 2.86 4.5C6.28 7.765 13 9 13 9l2-2-1-1Z" transform="matrix(.8 0 0 .8 4 4)" style="stroke-linejoin:round;stroke-miterlimit:4;" stroke="#fff" stroke-width="3"/><path d="m2 10 12 1.495V12H2v-2Zm12-4-1 1v.583L5.196 4.332l.063-.125L6.61 2.845h.831a.35.35 0 0 0 0-.7h-.976a.352.352 0 0 0-.248.103L4.723 3.753a.371.371 0 0 0-.066.09l-.109.219L2 3c0 2-.03 3.958 2.86 4.5C6.28 7.765 13 9 13 9l2-2-1-1Z" transform="matrix(.8 0 0 .8 4 4)"/><m:metadata><m:parameters><m:parameter m:name="background-stroke" m:type="color" m:value="#DCDCDC"/><m:parameter m:name="icon" m:type="color" m:value="#000000"/><m:parameter m:name="background" m:type="color" m:value="#A7A7A7"/><m:parameter m:name="icon-stroke" m:type="color" m:value="#ffffff"/></m:parameters></m:metadata></svg>