<svg id="table-tennis" xmlns="http://www.w3.org/2000/svg" width="20" height="20" viewBox="0 0 20 20" xmlns:m="https://www.mapbox.com"><path d="M19.4 10C19.4 15.1918 15.1917 19.4 9.99998 19.4C4.80821 19.4 0.599976 15.1918 0.599976 10C0.599976 4.80823 4.80821 0.6 9.99998 0.6C15.1917 0.6 19.4 4.80823 19.4 10Z" fill="#A7A7A7" stroke="#DCDCDC" stroke-linejoin="round" stroke-width="1.2"/><path id="icon_concepts:_sports_leisure" d="M11.9676,10.2275a3.8116,3.8116,0,0,1-1.9122.9831L3.7678,4.9338A4.0283,4.0283,0,0,1,4.7725,3.0324C7.03.7745,9.98.2235,12.3781,2.6219S14.2255,7.97,11.9676,10.2275Zm-6.987,1.6093A3.8422,3.8422,0,0,1,6.149,11.278,4.5328,4.5328,0,0,1,8,11.4452L3.5456,7a4.4126,4.4126,0,0,1,.1572,1.9223,3.6639,3.6639,0,0,1-.5208,1.1159c-1.072,1.263-2.132,1.727-2.132,2.1879A1.8378,1.8378,0,0,0,2.7739,13.95C3.2348,13.95,3.6917,12.9368,4.9806,11.8368Z" transform="matrix(.8 0 0 .8 4 4)" fill="#000" style="stroke-linejoin:round;stroke-miterlimit:4;" stroke="#fff" stroke-width="3"/><path id="icon_concepts:_sports_leisure" d="M11.9676,10.2275a3.8116,3.8116,0,0,1-1.9122.9831L3.7678,4.9338A4.0283,4.0283,0,0,1,4.7725,3.0324C7.03.7745,9.98.2235,12.3781,2.6219S14.2255,7.97,11.9676,10.2275Zm-6.987,1.6093A3.8422,3.8422,0,0,1,6.149,11.278,4.5328,4.5328,0,0,1,8,11.4452L3.5456,7a4.4126,4.4126,0,0,1,.1572,1.9223,3.6639,3.6639,0,0,1-.5208,1.1159c-1.072,1.263-2.132,1.727-2.132,2.1879A1.8378,1.8378,0,0,0,2.7739,13.95C3.2348,13.95,3.6917,12.9368,4.9806,11.8368Z" transform="matrix(.8 0 0 .8 4 4)" fill="#000"/><m:metadata><m:parameters><m:parameter m:name="background-stroke" m:type="color" m:value="#DCDCDC"/><m:parameter m:name="icon" m:type="color" m:value="#000000"/><m:parameter m:name="background" m:type="color" m:value="#A7A7A7"/><m:parameter m:name="icon-stroke" m:type="color" m:value="#ffffff"/></m:parameters></m:metadata></svg>