<svg width="20" height="20" viewBox="0 0 20 20" xmlns="http://www.w3.org/2000/svg" id="toilet" xmlns:m="https://www.mapbox.com"><path d="M19.4 10C19.4 15.1918 15.1917 19.4 9.99998 19.4C4.80821 19.4 0.599976 15.1918 0.599976 10C0.599976 4.80823 4.80821 0.6 9.99998 0.6C15.1917 0.6 19.4 4.80823 19.4 10Z" fill="#A7A7A7" stroke="#DCDCDC" stroke-linejoin="round" stroke-width="1.2"/><path d="M3 1.5a1.5 1.5 0 1 0 3 0 1.5 1.5 0 0 0-3 0ZM11.5 0a1.5 1.5 0 1 1 0 3 1.5 1.5 0 0 1 0-3ZM3.29 4a1 1 0 0 0-.868.504L.566 7.752a.5.5 0 1 0 .868.496l1.412-2.472A345.048 345.048 0 0 0 1 11h2v2.5a.5.5 0 0 0 1 0V11h1v2.5a.5.5 0 0 0 1 0V11h2L6.103 5.687l1.463 2.561a.5.5 0 1 0 .868-.496L6.578 4.504A1 1 0 0 0 5.71 4H3.29ZM9 4.5a.5.5 0 0 1 .5-.5h4a.5.5 0 0 1 .5.5v5a.5.5 0 0 1-1 0v4a.5.5 0 0 1-1 0v-4h-1v4a.5.5 0 0 1-1 0v-4a.5.5 0 0 1-1 0v-5Z" transform="matrix(.8 0 0 .8 4 4)" style="stroke-linejoin:round;stroke-miterlimit:4;" stroke="#fff" stroke-width="3"/><path d="M3 1.5a1.5 1.5 0 1 0 3 0 1.5 1.5 0 0 0-3 0ZM11.5 0a1.5 1.5 0 1 1 0 3 1.5 1.5 0 0 1 0-3ZM3.29 4a1 1 0 0 0-.868.504L.566 7.752a.5.5 0 1 0 .868.496l1.412-2.472A345.048 345.048 0 0 0 1 11h2v2.5a.5.5 0 0 0 1 0V11h1v2.5a.5.5 0 0 0 1 0V11h2L6.103 5.687l1.463 2.561a.5.5 0 1 0 .868-.496L6.578 4.504A1 1 0 0 0 5.71 4H3.29ZM9 4.5a.5.5 0 0 1 .5-.5h4a.5.5 0 0 1 .5.5v5a.5.5 0 0 1-1 0v4a.5.5 0 0 1-1 0v-4h-1v4a.5.5 0 0 1-1 0v-4a.5.5 0 0 1-1 0v-5Z" transform="matrix(.8 0 0 .8 4 4)"/><m:metadata><m:parameters><m:parameter m:name="background-stroke" m:type="color" m:value="#DCDCDC"/><m:parameter m:name="icon" m:type="color" m:value="#000000"/><m:parameter m:name="background" m:type="color" m:value="#A7A7A7"/><m:parameter m:name="icon-stroke" m:type="color" m:value="#ffffff"/></m:parameters></m:metadata></svg>