<svg version="1.1" id="town-hall" xmlns="http://www.w3.org/2000/svg" width="20" height="20" viewBox="0 0 20 20" xmlns:m="https://www.mapbox.com"><path d="M19.4 10C19.4 15.1918 15.1917 19.4 9.99998 19.4C4.80821 19.4 0.599976 15.1918 0.599976 10C0.599976 4.80823 4.80821 0.6 9.99998 0.6C15.1917 0.6 19.4 4.80823 19.4 10Z" fill="#A7A7A7" stroke="#DCDCDC" stroke-linejoin="round" stroke-width="1.2"/><path d="M13,4H9l0-3L7.5,0L6,1v3H2L1,5v1h13V5L13,4z M7.5,1.5c0.4,0,0.7,0.3,0.7,0.8S7.9,3,7.5,3S6.7,2.7,6.7,2.2	C6.7,1.8,7.1,1.5,7.5,1.5z M13,7H2v4l-1,1.5V14h13v-1.5L13,11V7z M5,12.5H4V8h1V12.5z M8,12.5H7V8h1V12.5z M11,12.5h-1V8h1V12.5z" transform="matrix(.8 0 0 .8 4 4)" style="stroke-linejoin:round;stroke-miterlimit:4;" stroke="#fff" stroke-width="3"/><path d="M13,4H9l0-3L7.5,0L6,1v3H2L1,5v1h13V5L13,4z M7.5,1.5c0.4,0,0.7,0.3,0.7,0.8S7.9,3,7.5,3S6.7,2.7,6.7,2.2	C6.7,1.8,7.1,1.5,7.5,1.5z M13,7H2v4l-1,1.5V14h13v-1.5L13,11V7z M5,12.5H4V8h1V12.5z M8,12.5H7V8h1V12.5z M11,12.5h-1V8h1V12.5z" transform="matrix(.8 0 0 .8 4 4)"/><m:metadata><m:parameters><m:parameter m:name="background-stroke" m:type="color" m:value="#DCDCDC"/><m:parameter m:name="icon" m:type="color" m:value="#000000"/><m:parameter m:name="background" m:type="color" m:value="#A7A7A7"/><m:parameter m:name="icon-stroke" m:type="color" m:value="#ffffff"/></m:parameters></m:metadata></svg>