<svg xmlns="http://www.w3.org/2000/svg" id="tw-county-township-2" width="20" height="20" viewBox="0 0 20 20" xmlns:m="https://www.mapbox.com"><g><path d="M0,0 H20 V20 H0 Z" fill="none"/><path d="M3,1 H17 C17,1 19,1 19,3 V17 C19,17 19,19 17,19 H3 C3,19 1,19 1,17 V3 C1,3 1,1 3,1" fill="none" stroke="hsl(230, 18%, 13%)" stroke-linejoin="round" stroke-miterlimit="4px" stroke-width="2"/><path d="M3,1 H17 C17,1 19,1 19,3 V17 C19,17 19,19 17,19 H3 C3,19 1,19 1,17 V3 C1,3 1,1 3,1" fill="hsl(0, 0%, 100%)"/><path d="M0,7 H20 V13 H0 Z" fill="none" id="mapbox-text-placeholder"/></g><m:metadata><m:parameters><m:parameter m:name="color-1" m:type="color" m:value="#1B1D27"/><m:parameter m:name="color-2" m:type="color" m:value="#FFFFFF"/></m:parameters></m:metadata></svg>