<svg id="viewpoint" xmlns="http://www.w3.org/2000/svg" width="20" height="20" viewBox="0 0 20 20" xmlns:m="https://www.mapbox.com"><path d="M19.4 10C19.4 15.1918 15.1917 19.4 9.99998 19.4C4.80821 19.4 0.599976 15.1918 0.599976 10C0.599976 4.80823 4.80821 0.6 9.99998 0.6C15.1917 0.6 19.4 4.80823 19.4 10Z" fill="#A7A7A7" stroke="#DCDCDC" stroke-linejoin="round" stroke-width="1.2"/><path id="cf3b542b-d2af-4732-9b92-9e3dc05e460f" d="M6.02,8.425a2.3859,2.3859,0,0,0-.46.44l-4.55-3.5a7.9976,7.9976,0,0,1,1.51-1.51Zm6.46-4.56-3.5,4.55a2.3971,2.3971,0,0,1,.45.45l4.56-3.5A7.945,7.945,0,0,0,12.48,3.865ZM7.3042,10.0129a1.5,1.5,0,1,0,1.6829,1.2914h0A1.5,1.5,0,0,0,7.3042,10.0129ZM6.43,2.235a7.9329,7.9329,0,0,0-2.06.55l2.2,5.32a2.0438,2.0438,0,0,1,.61-.17Zm2.14.01-.75,5.69a2.49,2.49,0,0,1,.61.16l2.2-5.3A7.2129,7.2129,0,0,0,8.57,2.245Z" transform="matrix(.8 0 0 .8 4 4)" fill="#000" style="stroke-linejoin:round;stroke-miterlimit:4;" stroke="#fff" stroke-width="3"/><path id="cf3b542b-d2af-4732-9b92-9e3dc05e460f" d="M6.02,8.425a2.3859,2.3859,0,0,0-.46.44l-4.55-3.5a7.9976,7.9976,0,0,1,1.51-1.51Zm6.46-4.56-3.5,4.55a2.3971,2.3971,0,0,1,.45.45l4.56-3.5A7.945,7.945,0,0,0,12.48,3.865ZM7.3042,10.0129a1.5,1.5,0,1,0,1.6829,1.2914h0A1.5,1.5,0,0,0,7.3042,10.0129ZM6.43,2.235a7.9329,7.9329,0,0,0-2.06.55l2.2,5.32a2.0438,2.0438,0,0,1,.61-.17Zm2.14.01-.75,5.69a2.49,2.49,0,0,1,.61.16l2.2-5.3A7.2129,7.2129,0,0,0,8.57,2.245Z" transform="matrix(.8 0 0 .8 4 4)" fill="#000"/><m:metadata><m:parameters><m:parameter m:name="background-stroke" m:type="color" m:value="#DCDCDC"/><m:parameter m:name="icon" m:type="color" m:value="#000000"/><m:parameter m:name="background" m:type="color" m:value="#A7A7A7"/><m:parameter m:name="icon-stroke" m:type="color" m:value="#ffffff"/></m:parameters></m:metadata></svg>