<svg xmlns="http://www.w3.org/2000/svg" width="20" height="20" viewBox="0 0 20 20" id="watch" xmlns:m="https://www.mapbox.com"><path d="M19.4 10C19.4 15.1918 15.1917 19.4 9.99998 19.4C4.80821 19.4 0.599976 15.1918 0.599976 10C0.599976 4.80823 4.80821 0.6 9.99998 0.6C15.1917 0.6 19.4 4.80823 19.4 10Z" fill="#A7A7A7" stroke="#DCDCDC" stroke-linejoin="round" stroke-width="1.2"/><path d="M12.5,7H12a.426.426,0,0,0-.049.01A4.484,4.484,0,0,0,10,3.76V1.5A.5.5,0,0,0,9.5,1h-4a.5.5,0,0,0-.5.5V3.76a4.5,4.5,0,0,0,0,7.48V13.5a.5.5,0,0,0,.5.5h4a.5.5,0,0,0,.5-.5V11.24a4.486,4.486,0,0,0,1.951-3.25A.426.426,0,0,0,12,8h.5a.5.5,0,0,0,0-1Zm-5,4A3.5,3.5,0,1,1,11,7.5,3.5,3.5,0,0,1,7.5,11ZM9,7H8V5.5a.5.5,0,0,0-1,0v2a.5.5,0,0,0,.5.5H9A.5.5,0,0,0,9,7Z" transform="matrix(.8 0 0 .8 4 4)" style="stroke-linejoin:round;stroke-miterlimit:4;" stroke="#fff" stroke-width="3"/><path d="M12.5,7H12a.426.426,0,0,0-.049.01A4.484,4.484,0,0,0,10,3.76V1.5A.5.5,0,0,0,9.5,1h-4a.5.5,0,0,0-.5.5V3.76a4.5,4.5,0,0,0,0,7.48V13.5a.5.5,0,0,0,.5.5h4a.5.5,0,0,0,.5-.5V11.24a4.486,4.486,0,0,0,1.951-3.25A.426.426,0,0,0,12,8h.5a.5.5,0,0,0,0-1Zm-5,4A3.5,3.5,0,1,1,11,7.5,3.5,3.5,0,0,1,7.5,11ZM9,7H8V5.5a.5.5,0,0,0-1,0v2a.5.5,0,0,0,.5.5H9A.5.5,0,0,0,9,7Z" transform="matrix(.8 0 0 .8 4 4)"/><m:metadata><m:parameters><m:parameter m:name="background-stroke" m:type="color" m:value="#DCDCDC"/><m:parameter m:name="icon" m:type="color" m:value="#000000"/><m:parameter m:name="background" m:type="color" m:value="#A7A7A7"/><m:parameter m:name="icon-stroke" m:type="color" m:value="#ffffff"/></m:parameters></m:metadata></svg>